%TF.GenerationSoftware,KiCad,Pcbnew,10.0.0*%
%TF.CreationDate,2026-05-05T22:29:36-05:00*%
%TF.ProjectId,project_02,70726f6a-6563-4745-9f30-322e6b696361,1A*%
%TF.SameCoordinates,Original*%
%TF.FileFunction,Copper,L4,Bot*%
%TF.FilePolarity,Positive*%
%FSLAX46Y46*%
G04 Gerber Fmt 4.6, Leading zero omitted, Abs format (unit mm)*
G04 Created by KiCad (PCBNEW 10.0.0) date 2026-05-05 22:29:36*
%MOMM*%
%LPD*%
G01*
G04 APERTURE LIST*
G04 Aperture macros list*
%AMRoundRect*
0 Rectangle with rounded corners*
0 $1 Rounding radius*
0 $2 $3 $4 $5 $6 $7 $8 $9 X,Y pos of 4 corners*
0 Add a 4 corners polygon primitive as box body*
4,1,4,$2,$3,$4,$5,$6,$7,$8,$9,$2,$3,0*
0 Add four circle primitives for the rounded corners*
1,1,$1+$1,$2,$3*
1,1,$1+$1,$4,$5*
1,1,$1+$1,$6,$7*
1,1,$1+$1,$8,$9*
0 Add four rect primitives between the rounded corners*
20,1,$1+$1,$2,$3,$4,$5,0*
20,1,$1+$1,$4,$5,$6,$7,0*
20,1,$1+$1,$6,$7,$8,$9,0*
20,1,$1+$1,$8,$9,$2,$3,0*%
%AMOutline5P*
0 Free polygon, 5 corners , with rotation*
0 The origin of the aperture is its center*
0 number of corners: always 5*
0 $1 to $10 corner X, Y*
0 $11 Rotation angle, in degrees counterclockwise*
0 create outline with 5 corners*
4,1,5,$1,$2,$3,$4,$5,$6,$7,$8,$9,$10,$1,$2,$11*%
%AMOutline6P*
0 Free polygon, 6 corners , with rotation*
0 The origin of the aperture is its center*
0 number of corners: always 6*
0 $1 to $12 corner X, Y*
0 $13 Rotation angle, in degrees counterclockwise*
0 create outline with 6 corners*
4,1,6,$1,$2,$3,$4,$5,$6,$7,$8,$9,$10,$11,$12,$1,$2,$13*%
%AMOutline7P*
0 Free polygon, 7 corners , with rotation*
0 The origin of the aperture is its center*
0 number of corners: always 7*
0 $1 to $14 corner X, Y*
0 $15 Rotation angle, in degrees counterclockwise*
0 create outline with 7 corners*
4,1,7,$1,$2,$3,$4,$5,$6,$7,$8,$9,$10,$11,$12,$13,$14,$1,$2,$15*%
%AMOutline8P*
0 Free polygon, 8 corners , with rotation*
0 The origin of the aperture is its center*
0 number of corners: always 8*
0 $1 to $16 corner X, Y*
0 $17 Rotation angle, in degrees counterclockwise*
0 create outline with 8 corners*
4,1,8,$1,$2,$3,$4,$5,$6,$7,$8,$9,$10,$11,$12,$13,$14,$15,$16,$1,$2,$17*%
G04 Aperture macros list end*
%TA.AperFunction,ComponentPad*%
%ADD10R,1.524000X1.524000*%
%TD*%
%TA.AperFunction,ComponentPad*%
%ADD11Outline8P,-0.762000X0.315631X-0.315631X0.762000X0.315631X0.762000X0.762000X0.315631X0.762000X-0.315631X0.315631X-0.762000X-0.315631X-0.762000X-0.762000X-0.315631X180.000000*%
%TD*%
%TA.AperFunction,ComponentPad*%
%ADD12C,1.120000*%
%TD*%
%TA.AperFunction,ComponentPad*%
%ADD13C,1.960000*%
%TD*%
%TA.AperFunction,SMDPad,CuDef*%
%ADD14RoundRect,0.508000X-0.000010X-0.000010X0.000010X-0.000010X0.000010X0.000010X-0.000010X0.000010X0*%
%TD*%
%TA.AperFunction,ComponentPad*%
%ADD15C,4.445000*%
%TD*%
%TA.AperFunction,ComponentPad*%
%ADD16RoundRect,0.250000X0.350000X0.625000X-0.350000X0.625000X-0.350000X-0.625000X0.350000X-0.625000X0*%
%TD*%
%TA.AperFunction,ComponentPad*%
%ADD17O,1.200000X1.750000*%
%TD*%
%TA.AperFunction,ComponentPad*%
%ADD18RoundRect,0.170000X0.680000X-0.680000X0.680000X0.680000X-0.680000X0.680000X-0.680000X-0.680000X0*%
%TD*%
%TA.AperFunction,ComponentPad*%
%ADD19C,1.700000*%
%TD*%
%TA.AperFunction,ViaPad*%
%ADD20C,0.508000*%
%TD*%
%TA.AperFunction,Conductor*%
%ADD21C,0.508000*%
%TD*%
%TA.AperFunction,Conductor*%
%ADD22C,0.254000*%
%TD*%
G04 APERTURE END LIST*
D10*
%TO.P,U1,P1_01,VIN_P1_01*%
%TO.N,unconnected-(U1-VIN-PadP1_01)*%
X47244000Y-133223000D03*
D11*
%TO.P,U1,P1_02,AIN6(3.3V)GPIO87_P1_02*%
%TO.N,unconnected-(U1-AIN6(3.3V)GPIO87-PadP1_02)*%
X47244000Y-135763000D03*
%TO.P,U1,P1_03,DRVVBUS_P1_03*%
%TO.N,unconnected-(U1-DRVVBUS-PadP1_03)*%
X49784000Y-133223000D03*
%TO.P,U1,P1_04,GPIO89_P1_04*%
%TO.N,unconnected-(U1-GPIO89-PadP1_04)*%
X49784000Y-135763000D03*
%TO.P,U1,P1_05,VBUS_P1_05*%
%TO.N,unconnected-(U1-VBUS-PadP1_05)*%
X52324000Y-133223000D03*
%TO.P,U1,P1_06,SPI0.CS_P1_06*%
%TO.N,unconnected-(U1-SPI0.CS-PadP1_06)*%
X52324000Y-135763000D03*
%TO.P,U1,P1_07,USB1.VIN_P1_07*%
%TO.N,unconnected-(U1-USB1.VIN-PadP1_07)*%
X54864000Y-133223000D03*
%TO.P,U1,P1_08,SPI0.CLK_P1_08*%
%TO.N,unconnected-(U1-SPI0.CLK-PadP1_08)*%
X54864000Y-135763000D03*
%TO.P,U1,P1_09,USB1.D-_P1_09*%
%TO.N,unconnected-(U1-USB1.D--PadP1_09)*%
X57404000Y-133223000D03*
%TO.P,U1,P1_10,SPI0.MISO_P1_10*%
%TO.N,unconnected-(U1-SPI0.MISO-PadP1_10)*%
X57404000Y-135763000D03*
%TO.P,U1,P1_11,USB1.D+_P1_11*%
%TO.N,unconnected-(U1-USB1.D+-PadP1_11)*%
X59944000Y-133223000D03*
%TO.P,U1,P1_12,SPI0.MOSI_P1_12*%
%TO.N,unconnected-(U1-SPI0.MOSI-PadP1_12)*%
X59944000Y-135763000D03*
%TO.P,U1,P1_13,USB1.ID_P1_13*%
%TO.N,unconnected-(U1-USB1.ID-PadP1_13)*%
X62484000Y-133223000D03*
%TO.P,U1,P1_14,3.3V@1_P1_14*%
%TO.N,+3V3*%
X62484000Y-135763000D03*
%TO.P,U1,P1_15,GND@1_P1_15*%
%TO.N,GND*%
X65024000Y-133223000D03*
%TO.P,U1,P1_16,GND@2_P1_16*%
X65024000Y-135763000D03*
%TO.P,U1,P1_17,AIN.VREF-_P1_17*%
%TO.N,unconnected-(U1-AIN.VREF--PadP1_17)*%
X67564000Y-133223000D03*
%TO.P,U1,P1_18,AIN.VREF+_P1_18*%
%TO.N,+1V8*%
X67564000Y-135763000D03*
%TO.P,U1,P1_19,AIN0(1.8V)_P1_19*%
%TO.N,unconnected-(U1-AIN0(1.8V)-PadP1_19)*%
X70104000Y-133223000D03*
%TO.P,U1,P1_20,GPIO20_P1_20*%
%TO.N,unconnected-(U1-GPIO20-PadP1_20)*%
X70104000Y-135763000D03*
%TO.P,U1,P1_21,AIN1(1.8V)_P1_21*%
%TO.N,/FSR*%
X72644000Y-133223000D03*
%TO.P,U1,P1_22,GND@3_P1_22*%
%TO.N,GND*%
X72644000Y-135763000D03*
%TO.P,U1,P1_23,AIN2(1.8V)_P1_23*%
%TO.N,unconnected-(U1-AIN2(1.8V)-PadP1_23)*%
X75184000Y-133223000D03*
%TO.P,U1,P1_24,VOUT@1_P1_24*%
%TO.N,+5V*%
X75184000Y-135763000D03*
%TO.P,U1,P1_25,AIN3(1.8V)_P1_25*%
%TO.N,unconnected-(U1-AIN3(1.8V)-PadP1_25)*%
X77724000Y-133223000D03*
%TO.P,U1,P1_26,I2C2.SDA_P1_26*%
%TO.N,unconnected-(U1-I2C2.SDA-PadP1_26)*%
X77724000Y-135763000D03*
%TO.P,U1,P1_27,AIN4(1.8V)_P1_27*%
%TO.N,unconnected-(U1-AIN4(1.8V)-PadP1_27)*%
X80264000Y-133223000D03*
%TO.P,U1,P1_28,I2C2.SCL_P1_28*%
%TO.N,unconnected-(U1-I2C2.SCL-PadP1_28)*%
X80264000Y-135763000D03*
%TO.P,U1,P1_29,PRU0.7_P1_29*%
%TO.N,unconnected-(U1-PRU0.7-PadP1_29)*%
X82804000Y-133223000D03*
%TO.P,U1,P1_30,UART0.TX_P1_30*%
%TO.N,unconnected-(U1-UART0.TX-PadP1_30)*%
X82804000Y-135763000D03*
%TO.P,U1,P1_31,PRU0.4_P1_31*%
%TO.N,unconnected-(U1-PRU0.4-PadP1_31)*%
X85344000Y-133223000D03*
%TO.P,U1,P1_32,UART0.RX_P1_32*%
%TO.N,unconnected-(U1-UART0.RX-PadP1_32)*%
X85344000Y-135763000D03*
%TO.P,U1,P1_33,PRU0.1_P1_33*%
%TO.N,unconnected-(U1-PRU0.1-PadP1_33)*%
X87884000Y-133223000D03*
%TO.P,U1,P1_34,GPIO26_P1_34*%
%TO.N,unconnected-(U1-GPIO26-PadP1_34)*%
X87884000Y-135763000D03*
%TO.P,U1,P1_35,PRU1.10_P1_35*%
%TO.N,unconnected-(U1-PRU1.10-PadP1_35)*%
X90424000Y-133223000D03*
%TO.P,U1,P1_36,PWM0A_P1_36*%
%TO.N,/BUZZER*%
X90424000Y-135763000D03*
D10*
%TO.P,U1,P2_01,PWM1A_P2_01*%
%TO.N,unconnected-(U1-PWM1A-PadP2_01)*%
X47244000Y-158623000D03*
D11*
%TO.P,U1,P2_02,GPIO59_P2_02*%
%TO.N,unconnected-(U1-GPIO59-PadP2_02)*%
X47244000Y-161163000D03*
%TO.P,U1,P2_03,GPIO23_P2_03*%
%TO.N,unconnected-(U1-GPIO23-PadP2_03)*%
X49784000Y-158623000D03*
%TO.P,U1,P2_04,GPIO58_P2_04*%
%TO.N,unconnected-(U1-GPIO58-PadP2_04)*%
X49784000Y-161163000D03*
%TO.P,U1,P2_05,UART4.RX_P2_05*%
%TO.N,unconnected-(U1-UART4.RX-PadP2_05)*%
X52324000Y-158623000D03*
%TO.P,U1,P2_06,GPIO57_P2_06*%
%TO.N,unconnected-(U1-GPIO57-PadP2_06)*%
X52324000Y-161163000D03*
%TO.P,U1,P2_07,UART4.TX_P2_07*%
%TO.N,unconnected-(U1-UART4.TX-PadP2_07)*%
X54864000Y-158623000D03*
%TO.P,U1,P2_08,GPIO60_P2_08*%
%TO.N,/BUTTON*%
X54864000Y-161163000D03*
%TO.P,U1,P2_09,I2C1.SCL_P2_09*%
%TO.N,/I2C_SCL*%
X57404000Y-158623000D03*
%TO.P,U1,P2_10,GPIO52_P2_10*%
%TO.N,unconnected-(U1-GPIO52-PadP2_10)*%
X57404000Y-161163000D03*
%TO.P,U1,P2_11,I2C1.SDA_P2_11*%
%TO.N,/I2C_SDA*%
X59944000Y-158623000D03*
%TO.P,U1,P2_12,PWR.BTN_P2_12*%
%TO.N,unconnected-(U1-PWR.BTN-PadP2_12)*%
X59944000Y-161163000D03*
%TO.P,U1,P2_13,VOUT@2_P2_13*%
%TO.N,+5V*%
X62484000Y-158623000D03*
%TO.P,U1,P2_14,BAT.VIN_P2_14*%
%TO.N,unconnected-(U1-BAT.VIN-PadP2_14)*%
X62484000Y-161163000D03*
%TO.P,U1,P2_15,GND@4_P2_15*%
%TO.N,GND*%
X65024000Y-158623000D03*
%TO.P,U1,P2_16,BAT.TEMP_P2_16*%
%TO.N,unconnected-(U1-BAT.TEMP-PadP2_16)*%
X65024000Y-161163000D03*
%TO.P,U1,P2_17,GPIO65_P2_17*%
%TO.N,unconnected-(U1-GPIO65-PadP2_17)*%
X67564000Y-158623000D03*
%TO.P,U1,P2_18,GPIO47_P2_18*%
%TO.N,unconnected-(U1-GPIO47-PadP2_18)*%
X67564000Y-161163000D03*
%TO.P,U1,P2_19,GPIO27_P2_19*%
%TO.N,unconnected-(U1-GPIO27-PadP2_19)*%
X70104000Y-158623000D03*
%TO.P,U1,P2_20,GPIO64_P2_20*%
%TO.N,unconnected-(U1-GPIO64-PadP2_20)*%
X70104000Y-161163000D03*
%TO.P,U1,P2_21,GND@5_P2_21*%
%TO.N,GND*%
X72644000Y-158623000D03*
%TO.P,U1,P2_22,GPIO46_P2_22*%
%TO.N,unconnected-(U1-GPIO46-PadP2_22)*%
X72644000Y-161163000D03*
%TO.P,U1,P2_23,3.3V@2_P2_23*%
%TO.N,+3V3*%
X75184000Y-158623000D03*
%TO.P,U1,P2_24,GPIO44_P2_24*%
%TO.N,unconnected-(U1-GPIO44-PadP2_24)*%
X75184000Y-161163000D03*
%TO.P,U1,P2_25,SPI1.MOSI_P2_25*%
%TO.N,unconnected-(U1-SPI1.MOSI-PadP2_25)*%
X77724000Y-158623000D03*
%TO.P,U1,P2_26,RESET#_P2_26*%
%TO.N,unconnected-(U1-RESET#-PadP2_26)*%
X77724000Y-161163000D03*
%TO.P,U1,P2_27,SPI1.MISO_P2_27*%
%TO.N,unconnected-(U1-SPI1.MISO-PadP2_27)*%
X80264000Y-158623000D03*
%TO.P,U1,P2_28,PRU0.6_P2_28*%
%TO.N,unconnected-(U1-PRU0.6-PadP2_28)*%
X80264000Y-161163000D03*
%TO.P,U1,P2_29,SPI1.CLK_P2_29*%
%TO.N,unconnected-(U1-SPI1.CLK-PadP2_29)*%
X82804000Y-158623000D03*
%TO.P,U1,P2_30,PRU0.3_P2_30*%
%TO.N,unconnected-(U1-PRU0.3-PadP2_30)*%
X82804000Y-161163000D03*
%TO.P,U1,P2_31,SPI1.CS_P2_31*%
%TO.N,unconnected-(U1-SPI1.CS-PadP2_31)*%
X85344000Y-158623000D03*
%TO.P,U1,P2_32,PRU0.2_P2_32*%
%TO.N,unconnected-(U1-PRU0.2-PadP2_32)*%
X85344000Y-161163000D03*
%TO.P,U1,P2_33,GPIO45_P2_33*%
%TO.N,unconnected-(U1-GPIO45-PadP2_33)*%
X87884000Y-158623000D03*
%TO.P,U1,P2_34,PRU0.5_P2_34*%
%TO.N,unconnected-(U1-PRU0.5-PadP2_34)*%
X87884000Y-161163000D03*
%TO.P,U1,P2_35,AIN5(3.3V)GPIO86_P2_35*%
%TO.N,unconnected-(U1-AIN5(3.3V)GPIO86-PadP2_35)*%
X90424000Y-158623000D03*
%TO.P,U1,P2_36,AIN7(1.8V)_P2_36*%
%TO.N,unconnected-(U1-AIN7(1.8V)-PadP2_36)*%
X90424000Y-161163000D03*
%TD*%
D12*
%TO.P,U3,+,+_+*%
%TO.N,/BUZZER*%
X99060000Y-170038000D03*
%TO.P,U3,-,-_-*%
%TO.N,GND*%
X99060000Y-163538000D03*
%TD*%
D13*
%TO.P,SW2,1,1_1*%
%TO.N,/BUTTON*%
X97509000Y-147233000D03*
%TO.P,SW2,2,2_2*%
%TO.N,GND*%
X97509000Y-152233000D03*
%TO.P,SW2,3,3_3*%
%TO.N,/BUTTON*%
X110009000Y-147233000D03*
%TO.P,SW2,4,4_4*%
%TO.N,GND*%
X110009000Y-152233000D03*
%TD*%
D14*
%TO.P,FUD5,1,1_1*%
%TO.N,unconnected-(FUD5-Pad1)*%
X43434000Y-135128000D03*
%TD*%
D15*
%TO.P,M1,1,1_1*%
%TO.N,GNDPWR*%
X110490000Y-173138000D03*
%TD*%
%TO.P,M2,1,1_1*%
%TO.N,GNDPWR*%
X41910000Y-173138000D03*
%TD*%
D14*
%TO.P,FUD1,1,1_1*%
%TO.N,unconnected-(FUD1-Pad1)*%
X106934000Y-135128000D03*
%TD*%
%TO.P,FUD3,1,1_1*%
%TO.N,unconnected-(FUD3-Pad1)*%
X110109000Y-167042000D03*
%TD*%
D15*
%TO.P,M3,1,1_1*%
%TO.N,GNDPWR*%
X41910000Y-129958000D03*
%TD*%
D16*
%TO.P,J1,1,Pin_1_1*%
%TO.N,+1V8*%
X102219000Y-138213000D03*
D17*
%TO.P,J1,2,Pin_2_2*%
%TO.N,/FSR*%
X100219000Y-138213000D03*
%TD*%
D15*
%TO.P,M4,1,1_1*%
%TO.N,GNDPWR*%
X110490000Y-129958000D03*
%TD*%
D18*
%TO.P,U2,1,GND_1*%
%TO.N,GND*%
X51334000Y-151003000D03*
D19*
%TO.P,U2,2,VCC_2*%
%TO.N,+3V3*%
X51334000Y-148463000D03*
%TO.P,U2,3,SCL_3*%
%TO.N,/I2C_SCL*%
X51334000Y-145923000D03*
%TO.P,U2,4,SDA_4*%
%TO.N,/I2C_SDA*%
X51334000Y-143383000D03*
%TD*%
D20*
%TO.N,+3V3*%
X43434000Y-142748000D03*
X43434000Y-147828000D03*
%TO.N,GND*%
X108839000Y-136398000D03*
X94234000Y-138938000D03*
%TO.N,+3V3*%
X66294000Y-170688000D03*
%TD*%
%TO.N,+5V*%
D21*
X75184000Y-135763000D02*
X75184000Y-142113000D01*
X64389000Y-152908000D02*
X64389000Y-156718000D01*
X75184000Y-142113000D02*
X64389000Y-152908000D01*
X64389000Y-156718000D02*
X62484000Y-158623000D01*
%TO.N,/BUZZER*%
D22*
X99060000Y-170038000D02*
X93599000Y-164577000D01*
X93599000Y-164577000D02*
X93599000Y-140208000D01*
X93599000Y-140208000D02*
X92964000Y-139573000D01*
X92964000Y-139573000D02*
X92964000Y-138303000D01*
X92964000Y-138303000D02*
X90424000Y-135763000D01*
%TD*%
M02*
