%TF.GenerationSoftware,KiCad,Pcbnew,10.0.0*%
%TF.CreationDate,2026-05-05T22:29:36-05:00*%
%TF.ProjectId,project_02,70726f6a-6563-4745-9f30-322e6b696361,1A*%
%TF.SameCoordinates,Original*%
%TF.FileFunction,Soldermask,Bot*%
%TF.FilePolarity,Negative*%
%FSLAX46Y46*%
G04 Gerber Fmt 4.6, Leading zero omitted, Abs format (unit mm)*
G04 Created by KiCad (PCBNEW 10.0.0) date 2026-05-05 22:29:36*
%MOMM*%
%LPD*%
G01*
G04 APERTURE LIST*
G04 Aperture macros list*
%AMRoundRect*
0 Rectangle with rounded corners*
0 $1 Rounding radius*
0 $2 $3 $4 $5 $6 $7 $8 $9 X,Y pos of 4 corners*
0 Add a 4 corners polygon primitive as box body*
4,1,4,$2,$3,$4,$5,$6,$7,$8,$9,$2,$3,0*
0 Add four circle primitives for the rounded corners*
1,1,$1+$1,$2,$3*
1,1,$1+$1,$4,$5*
1,1,$1+$1,$6,$7*
1,1,$1+$1,$8,$9*
0 Add four rect primitives between the rounded corners*
20,1,$1+$1,$2,$3,$4,$5,0*
20,1,$1+$1,$4,$5,$6,$7,0*
20,1,$1+$1,$6,$7,$8,$9,0*
20,1,$1+$1,$8,$9,$2,$3,0*%
%AMFreePoly0*
4,1,25,0.364611,0.820373,0.369513,0.815882,0.815882,0.369513,0.837910,0.322272,0.838200,0.315631,0.838200,-0.315631,0.820373,-0.364611,0.815882,-0.369513,0.369513,-0.815882,0.322272,-0.837910,0.315631,-0.838200,-0.315631,-0.838200,-0.364611,-0.820373,-0.369513,-0.815882,-0.815882,-0.369513,-0.837910,-0.322272,-0.838200,-0.315631,-0.838200,0.315631,-0.820373,0.364611,-0.815882,0.369513,
-0.369513,0.815882,-0.322272,0.837910,-0.315631,0.838200,0.315631,0.838200,0.364611,0.820373,0.364611,0.820373,$1*%
G04 Aperture macros list end*
%ADD10C,0.609600*%
%ADD11RoundRect,0.076200X0.762000X0.762000X-0.762000X0.762000X-0.762000X-0.762000X0.762000X-0.762000X0*%
%ADD12FreePoly0,180.000000*%
%ADD13C,1.272400*%
%ADD14C,2.112400*%
%ADD15RoundRect,0.584200X-0.000010X-0.000010X0.000010X-0.000010X0.000010X0.000010X-0.000010X0.000010X0*%
%ADD16C,4.597400*%
%ADD17RoundRect,0.250000X0.350000X0.625000X-0.350000X0.625000X-0.350000X-0.625000X0.350000X-0.625000X0*%
%ADD18O,1.200000X1.750000*%
%ADD19RoundRect,0.170000X0.680000X-0.680000X0.680000X0.680000X-0.680000X0.680000X-0.680000X-0.680000X0*%
%ADD20C,1.700000*%
G04 APERTURE END LIST*
%TO.C,FUD5*%
D10*
X44196000Y-135128000D02*
G75*
G02*
X42672000Y-135128000I-762000J0D01*
G01*
X42672000Y-135128000D02*
G75*
G02*
X44196000Y-135128000I762000J0D01*
G01*
%TO.C,FUD1*%
X107696000Y-135128000D02*
G75*
G02*
X106172000Y-135128000I-762000J0D01*
G01*
X106172000Y-135128000D02*
G75*
G02*
X107696000Y-135128000I762000J0D01*
G01*
%TO.C,FUD3*%
X110871000Y-167042000D02*
G75*
G02*
X109347000Y-167042000I-762000J0D01*
G01*
X109347000Y-167042000D02*
G75*
G02*
X110871000Y-167042000I762000J0D01*
G01*
%TD*%
D11*
%TO.C,U1*%
X47244000Y-133223000D03*
D12*
X47244000Y-135763000D03*
X49784000Y-133223000D03*
X49784000Y-135763000D03*
X52324000Y-133223000D03*
X52324000Y-135763000D03*
X54864000Y-133223000D03*
X54864000Y-135763000D03*
X57404000Y-133223000D03*
X57404000Y-135763000D03*
X59944000Y-133223000D03*
X59944000Y-135763000D03*
X62484000Y-133223000D03*
X62484000Y-135763000D03*
X65024000Y-133223000D03*
X65024000Y-135763000D03*
X67564000Y-133223000D03*
X67564000Y-135763000D03*
X70104000Y-133223000D03*
X70104000Y-135763000D03*
X72644000Y-133223000D03*
X72644000Y-135763000D03*
X75184000Y-133223000D03*
X75184000Y-135763000D03*
X77724000Y-133223000D03*
X77724000Y-135763000D03*
X80264000Y-133223000D03*
X80264000Y-135763000D03*
X82804000Y-133223000D03*
X82804000Y-135763000D03*
X85344000Y-133223000D03*
X85344000Y-135763000D03*
X87884000Y-133223000D03*
X87884000Y-135763000D03*
X90424000Y-133223000D03*
X90424000Y-135763000D03*
D11*
X47244000Y-158623000D03*
D12*
X47244000Y-161163000D03*
X49784000Y-158623000D03*
X49784000Y-161163000D03*
X52324000Y-158623000D03*
X52324000Y-161163000D03*
X54864000Y-158623000D03*
X54864000Y-161163000D03*
X57404000Y-158623000D03*
X57404000Y-161163000D03*
X59944000Y-158623000D03*
X59944000Y-161163000D03*
X62484000Y-158623000D03*
X62484000Y-161163000D03*
X65024000Y-158623000D03*
X65024000Y-161163000D03*
X67564000Y-158623000D03*
X67564000Y-161163000D03*
X70104000Y-158623000D03*
X70104000Y-161163000D03*
X72644000Y-158623000D03*
X72644000Y-161163000D03*
X75184000Y-158623000D03*
X75184000Y-161163000D03*
X77724000Y-158623000D03*
X77724000Y-161163000D03*
X80264000Y-158623000D03*
X80264000Y-161163000D03*
X82804000Y-158623000D03*
X82804000Y-161163000D03*
X85344000Y-158623000D03*
X85344000Y-161163000D03*
X87884000Y-158623000D03*
X87884000Y-161163000D03*
X90424000Y-158623000D03*
X90424000Y-161163000D03*
%TD*%
D13*
%TO.C,U3*%
X99060000Y-170038000D03*
X99060000Y-163538000D03*
%TD*%
D14*
%TO.C,SW2*%
X97509000Y-147233000D03*
X97509000Y-152233000D03*
X110009000Y-147233000D03*
X110009000Y-152233000D03*
%TD*%
D15*
%TO.C,FUD5*%
X43434000Y-135128000D03*
%TD*%
D16*
%TO.C,M1*%
X110490000Y-173138000D03*
%TD*%
%TO.C,M2*%
X41910000Y-173138000D03*
%TD*%
D15*
%TO.C,FUD1*%
X106934000Y-135128000D03*
%TD*%
%TO.C,FUD3*%
X110109000Y-167042000D03*
%TD*%
D16*
%TO.C,M3*%
X41910000Y-129958000D03*
%TD*%
D17*
%TO.C,J1*%
X102219000Y-138213000D03*
D18*
X100219000Y-138213000D03*
%TD*%
D16*
%TO.C,M4*%
X110490000Y-129958000D03*
%TD*%
D19*
%TO.C,U2*%
X51334000Y-151003000D03*
D20*
X51334000Y-148463000D03*
X51334000Y-145923000D03*
X51334000Y-143383000D03*
%TD*%
M02*
