%TF.GenerationSoftware,KiCad,Pcbnew,10.0.0*%
%TF.CreationDate,2026-05-05T22:29:36-05:00*%
%TF.ProjectId,project_02,70726f6a-6563-4745-9f30-322e6b696361,1A*%
%TF.SameCoordinates,Original*%
%TF.FileFunction,Copper,L3,Inr*%
%TF.FilePolarity,Positive*%
%FSLAX46Y46*%
G04 Gerber Fmt 4.6, Leading zero omitted, Abs format (unit mm)*
G04 Created by KiCad (PCBNEW 10.0.0) date 2026-05-05 22:29:36*
%MOMM*%
%LPD*%
G01*
G04 APERTURE LIST*
G04 Aperture macros list*
%AMRoundRect*
0 Rectangle with rounded corners*
0 $1 Rounding radius*
0 $2 $3 $4 $5 $6 $7 $8 $9 X,Y pos of 4 corners*
0 Add a 4 corners polygon primitive as box body*
4,1,4,$2,$3,$4,$5,$6,$7,$8,$9,$2,$3,0*
0 Add four circle primitives for the rounded corners*
1,1,$1+$1,$2,$3*
1,1,$1+$1,$4,$5*
1,1,$1+$1,$6,$7*
1,1,$1+$1,$8,$9*
0 Add four rect primitives between the rounded corners*
20,1,$1+$1,$2,$3,$4,$5,0*
20,1,$1+$1,$4,$5,$6,$7,0*
20,1,$1+$1,$6,$7,$8,$9,0*
20,1,$1+$1,$8,$9,$2,$3,0*%
%AMOutline5P*
0 Free polygon, 5 corners , with rotation*
0 The origin of the aperture is its center*
0 number of corners: always 5*
0 $1 to $10 corner X, Y*
0 $11 Rotation angle, in degrees counterclockwise*
0 create outline with 5 corners*
4,1,5,$1,$2,$3,$4,$5,$6,$7,$8,$9,$10,$1,$2,$11*%
%AMOutline6P*
0 Free polygon, 6 corners , with rotation*
0 The origin of the aperture is its center*
0 number of corners: always 6*
0 $1 to $12 corner X, Y*
0 $13 Rotation angle, in degrees counterclockwise*
0 create outline with 6 corners*
4,1,6,$1,$2,$3,$4,$5,$6,$7,$8,$9,$10,$11,$12,$1,$2,$13*%
%AMOutline7P*
0 Free polygon, 7 corners , with rotation*
0 The origin of the aperture is its center*
0 number of corners: always 7*
0 $1 to $14 corner X, Y*
0 $15 Rotation angle, in degrees counterclockwise*
0 create outline with 7 corners*
4,1,7,$1,$2,$3,$4,$5,$6,$7,$8,$9,$10,$11,$12,$13,$14,$1,$2,$15*%
%AMOutline8P*
0 Free polygon, 8 corners , with rotation*
0 The origin of the aperture is its center*
0 number of corners: always 8*
0 $1 to $16 corner X, Y*
0 $17 Rotation angle, in degrees counterclockwise*
0 create outline with 8 corners*
4,1,8,$1,$2,$3,$4,$5,$6,$7,$8,$9,$10,$11,$12,$13,$14,$15,$16,$1,$2,$17*%
G04 Aperture macros list end*
%TA.AperFunction,ComponentPad*%
%ADD10R,1.524000X1.524000*%
%TD*%
%TA.AperFunction,ComponentPad*%
%ADD11Outline8P,-0.762000X0.315631X-0.315631X0.762000X0.315631X0.762000X0.762000X0.315631X0.762000X-0.315631X0.315631X-0.762000X-0.315631X-0.762000X-0.762000X-0.315631X180.000000*%
%TD*%
%TA.AperFunction,ComponentPad*%
%ADD12C,1.120000*%
%TD*%
%TA.AperFunction,ComponentPad*%
%ADD13C,1.960000*%
%TD*%
%TA.AperFunction,ComponentPad*%
%ADD14C,4.445000*%
%TD*%
%TA.AperFunction,ComponentPad*%
%ADD15RoundRect,0.250000X0.350000X0.625000X-0.350000X0.625000X-0.350000X-0.625000X0.350000X-0.625000X0*%
%TD*%
%TA.AperFunction,ComponentPad*%
%ADD16O,1.200000X1.750000*%
%TD*%
%TA.AperFunction,ComponentPad*%
%ADD17RoundRect,0.170000X0.680000X-0.680000X0.680000X0.680000X-0.680000X0.680000X-0.680000X-0.680000X0*%
%TD*%
%TA.AperFunction,ComponentPad*%
%ADD18C,1.700000*%
%TD*%
%TA.AperFunction,ViaPad*%
%ADD19C,0.508000*%
%TD*%
G04 APERTURE END LIST*
D10*
%TO.N,unconnected-(U1-VIN-PadP1_01)*%
%TO.C,U1*%
X47244000Y-133223000D03*
D11*
%TO.N,unconnected-(U1-AIN6(3.3V)GPIO87-PadP1_02)*%
X47244000Y-135763000D03*
%TO.N,unconnected-(U1-DRVVBUS-PadP1_03)*%
X49784000Y-133223000D03*
%TO.N,unconnected-(U1-GPIO89-PadP1_04)*%
X49784000Y-135763000D03*
%TO.N,unconnected-(U1-VBUS-PadP1_05)*%
X52324000Y-133223000D03*
%TO.N,unconnected-(U1-SPI0.CS-PadP1_06)*%
X52324000Y-135763000D03*
%TO.N,unconnected-(U1-USB1.VIN-PadP1_07)*%
X54864000Y-133223000D03*
%TO.N,unconnected-(U1-SPI0.CLK-PadP1_08)*%
X54864000Y-135763000D03*
%TO.N,unconnected-(U1-USB1.D--PadP1_09)*%
X57404000Y-133223000D03*
%TO.N,unconnected-(U1-SPI0.MISO-PadP1_10)*%
X57404000Y-135763000D03*
%TO.N,unconnected-(U1-USB1.D+-PadP1_11)*%
X59944000Y-133223000D03*
%TO.N,unconnected-(U1-SPI0.MOSI-PadP1_12)*%
X59944000Y-135763000D03*
%TO.N,unconnected-(U1-USB1.ID-PadP1_13)*%
X62484000Y-133223000D03*
%TO.N,+3V3*%
X62484000Y-135763000D03*
%TO.N,GND*%
X65024000Y-133223000D03*
X65024000Y-135763000D03*
%TO.N,unconnected-(U1-AIN.VREF--PadP1_17)*%
X67564000Y-133223000D03*
%TO.N,+1V8*%
X67564000Y-135763000D03*
%TO.N,unconnected-(U1-AIN0(1.8V)-PadP1_19)*%
X70104000Y-133223000D03*
%TO.N,unconnected-(U1-GPIO20-PadP1_20)*%
X70104000Y-135763000D03*
%TO.N,/FSR*%
X72644000Y-133223000D03*
%TO.N,GND*%
X72644000Y-135763000D03*
%TO.N,unconnected-(U1-AIN2(1.8V)-PadP1_23)*%
X75184000Y-133223000D03*
%TO.N,+5V*%
X75184000Y-135763000D03*
%TO.N,unconnected-(U1-AIN3(1.8V)-PadP1_25)*%
X77724000Y-133223000D03*
%TO.N,unconnected-(U1-I2C2.SDA-PadP1_26)*%
X77724000Y-135763000D03*
%TO.N,unconnected-(U1-AIN4(1.8V)-PadP1_27)*%
X80264000Y-133223000D03*
%TO.N,unconnected-(U1-I2C2.SCL-PadP1_28)*%
X80264000Y-135763000D03*
%TO.N,unconnected-(U1-PRU0.7-PadP1_29)*%
X82804000Y-133223000D03*
%TO.N,unconnected-(U1-UART0.TX-PadP1_30)*%
X82804000Y-135763000D03*
%TO.N,unconnected-(U1-PRU0.4-PadP1_31)*%
X85344000Y-133223000D03*
%TO.N,unconnected-(U1-UART0.RX-PadP1_32)*%
X85344000Y-135763000D03*
%TO.N,unconnected-(U1-PRU0.1-PadP1_33)*%
X87884000Y-133223000D03*
%TO.N,unconnected-(U1-GPIO26-PadP1_34)*%
X87884000Y-135763000D03*
%TO.N,unconnected-(U1-PRU1.10-PadP1_35)*%
X90424000Y-133223000D03*
%TO.N,/BUZZER*%
X90424000Y-135763000D03*
D10*
%TO.N,unconnected-(U1-PWM1A-PadP2_01)*%
X47244000Y-158623000D03*
D11*
%TO.N,unconnected-(U1-GPIO59-PadP2_02)*%
X47244000Y-161163000D03*
%TO.N,unconnected-(U1-GPIO23-PadP2_03)*%
X49784000Y-158623000D03*
%TO.N,unconnected-(U1-GPIO58-PadP2_04)*%
X49784000Y-161163000D03*
%TO.N,unconnected-(U1-UART4.RX-PadP2_05)*%
X52324000Y-158623000D03*
%TO.N,unconnected-(U1-GPIO57-PadP2_06)*%
X52324000Y-161163000D03*
%TO.N,unconnected-(U1-UART4.TX-PadP2_07)*%
X54864000Y-158623000D03*
%TO.N,/BUTTON*%
X54864000Y-161163000D03*
%TO.N,/I2C_SCL*%
X57404000Y-158623000D03*
%TO.N,unconnected-(U1-GPIO52-PadP2_10)*%
X57404000Y-161163000D03*
%TO.N,/I2C_SDA*%
X59944000Y-158623000D03*
%TO.N,unconnected-(U1-PWR.BTN-PadP2_12)*%
X59944000Y-161163000D03*
%TO.N,+5V*%
X62484000Y-158623000D03*
%TO.N,unconnected-(U1-BAT.VIN-PadP2_14)*%
X62484000Y-161163000D03*
%TO.N,GND*%
X65024000Y-158623000D03*
%TO.N,unconnected-(U1-BAT.TEMP-PadP2_16)*%
X65024000Y-161163000D03*
%TO.N,unconnected-(U1-GPIO65-PadP2_17)*%
X67564000Y-158623000D03*
%TO.N,unconnected-(U1-GPIO47-PadP2_18)*%
X67564000Y-161163000D03*
%TO.N,unconnected-(U1-GPIO27-PadP2_19)*%
X70104000Y-158623000D03*
%TO.N,unconnected-(U1-GPIO64-PadP2_20)*%
X70104000Y-161163000D03*
%TO.N,GND*%
X72644000Y-158623000D03*
%TO.N,unconnected-(U1-GPIO46-PadP2_22)*%
X72644000Y-161163000D03*
%TO.N,+3V3*%
X75184000Y-158623000D03*
%TO.N,unconnected-(U1-GPIO44-PadP2_24)*%
X75184000Y-161163000D03*
%TO.N,unconnected-(U1-SPI1.MOSI-PadP2_25)*%
X77724000Y-158623000D03*
%TO.N,unconnected-(U1-RESET#-PadP2_26)*%
X77724000Y-161163000D03*
%TO.N,unconnected-(U1-SPI1.MISO-PadP2_27)*%
X80264000Y-158623000D03*
%TO.N,unconnected-(U1-PRU0.6-PadP2_28)*%
X80264000Y-161163000D03*
%TO.N,unconnected-(U1-SPI1.CLK-PadP2_29)*%
X82804000Y-158623000D03*
%TO.N,unconnected-(U1-PRU0.3-PadP2_30)*%
X82804000Y-161163000D03*
%TO.N,unconnected-(U1-SPI1.CS-PadP2_31)*%
X85344000Y-158623000D03*
%TO.N,unconnected-(U1-PRU0.2-PadP2_32)*%
X85344000Y-161163000D03*
%TO.N,unconnected-(U1-GPIO45-PadP2_33)*%
X87884000Y-158623000D03*
%TO.N,unconnected-(U1-PRU0.5-PadP2_34)*%
X87884000Y-161163000D03*
%TO.N,unconnected-(U1-AIN5(3.3V)GPIO86-PadP2_35)*%
X90424000Y-158623000D03*
%TO.N,unconnected-(U1-AIN7(1.8V)-PadP2_36)*%
X90424000Y-161163000D03*
%TD*%
D12*
%TO.N,/BUZZER*%
%TO.C,U3*%
X99060000Y-170038000D03*
%TO.N,GND*%
X99060000Y-163538000D03*
%TD*%
D13*
%TO.N,/BUTTON*%
%TO.C,SW2*%
X97509000Y-147233000D03*
%TO.N,GND*%
X97509000Y-152233000D03*
%TO.N,/BUTTON*%
X110009000Y-147233000D03*
%TO.N,GND*%
X110009000Y-152233000D03*
%TD*%
D14*
%TO.N,GNDPWR*%
%TO.C,M1*%
X110490000Y-173138000D03*
%TD*%
%TO.N,GNDPWR*%
%TO.C,M2*%
X41910000Y-173138000D03*
%TD*%
%TO.N,GNDPWR*%
%TO.C,M3*%
X41910000Y-129958000D03*
%TD*%
D15*
%TO.N,+1V8*%
%TO.C,J1*%
X102219000Y-138213000D03*
D16*
%TO.N,/FSR*%
X100219000Y-138213000D03*
%TD*%
D14*
%TO.N,GNDPWR*%
%TO.C,M4*%
X110490000Y-129958000D03*
%TD*%
D17*
%TO.N,GND*%
%TO.C,U2*%
X51334000Y-151003000D03*
D18*
%TO.N,+3V3*%
X51334000Y-148463000D03*
%TO.N,/I2C_SCL*%
X51334000Y-145923000D03*
%TO.N,/I2C_SDA*%
X51334000Y-143383000D03*
%TD*%
D19*
%TO.N,+3V3*%
X43434000Y-142748000D03*
X43434000Y-147828000D03*
%TO.N,GND*%
X108839000Y-136398000D03*
X94234000Y-138938000D03*
%TO.N,+3V3*%
X66294000Y-170688000D03*
%TD*%
%TA.AperFunction,Conductor*%
%TO.N,+3V3*%
G36*
X114027194Y-126420806D02*
G01*
X114045500Y-126465000D01*
X114045500Y-176631000D01*
X114027194Y-176675194D01*
X113983000Y-176693500D01*
X38417000Y-176693500D01*
X38372806Y-176675194D01*
X38354500Y-176631000D01*
X38354500Y-172998898D01*
X39433000Y-172998898D01*
X39433000Y-173277101D01*
X39464148Y-173553555D01*
X39464151Y-173553572D01*
X39526055Y-173824795D01*
X39526056Y-173824801D01*
X39617939Y-174087389D01*
X39738656Y-174338060D01*
X39886669Y-174573621D01*
X39886681Y-174573638D01*
X40060123Y-174791128D01*
X40060128Y-174791134D01*
X40060134Y-174791141D01*
X40256859Y-174987866D01*
X40256866Y-174987872D01*
X40256871Y-174987876D01*
X40474361Y-175161318D01*
X40474367Y-175161322D01*
X40474373Y-175161327D01*
X40709940Y-175309344D01*
X40960600Y-175430056D01*
X40960606Y-175430058D01*
X40960610Y-175430060D01*
X41223198Y-175521943D01*
X41494433Y-175583850D01*
X41770895Y-175615000D01*
X41770898Y-175615000D01*
X42049102Y-175615000D01*
X42049105Y-175615000D01*
X42325567Y-175583850D01*
X42596802Y-175521943D01*
X42859400Y-175430056D01*
X43110060Y-175309344D01*
X43345627Y-175161327D01*
X43563141Y-174987866D01*
X43759866Y-174791141D01*
X43933327Y-174573627D01*
X44081344Y-174338060D01*
X44202056Y-174087400D01*
X44293943Y-173824802D01*
X44355850Y-173553567D01*
X44387000Y-173277105D01*
X44387000Y-172998898D01*
X108013000Y-172998898D01*
X108013000Y-173277101D01*
X108044148Y-173553555D01*
X108044151Y-173553572D01*
X108106055Y-173824795D01*
X108106056Y-173824801D01*
X108197939Y-174087389D01*
X108318656Y-174338060D01*
X108466669Y-174573621D01*
X108466681Y-174573638D01*
X108640123Y-174791128D01*
X108640128Y-174791134D01*
X108640134Y-174791141D01*
X108836859Y-174987866D01*
X108836866Y-174987872D01*
X108836871Y-174987876D01*
X109054361Y-175161318D01*
X109054367Y-175161322D01*
X109054373Y-175161327D01*
X109289940Y-175309344D01*
X109540600Y-175430056D01*
X109540606Y-175430058D01*
X109540610Y-175430060D01*
X109803198Y-175521943D01*
X110074433Y-175583850D01*
X110350895Y-175615000D01*
X110350898Y-175615000D01*
X110629102Y-175615000D01*
X110629105Y-175615000D01*
X110905567Y-175583850D01*
X111176802Y-175521943D01*
X111439400Y-175430056D01*
X111690060Y-175309344D01*
X111925627Y-175161327D01*
X112143141Y-174987866D01*
X112339866Y-174791141D01*
X112513327Y-174573627D01*
X112661344Y-174338060D01*
X112782056Y-174087400D01*
X112873943Y-173824802D01*
X112935850Y-173553567D01*
X112967000Y-173277105D01*
X112967000Y-172998895D01*
X112935850Y-172722433D01*
X112873943Y-172451198D01*
X112782060Y-172188610D01*
X112782058Y-172188606D01*
X112782056Y-172188600D01*
X112661344Y-171937940D01*
X112513327Y-171702373D01*
X112513322Y-171702367D01*
X112513318Y-171702361D01*
X112339876Y-171484871D01*
X112339872Y-171484866D01*
X112339866Y-171484859D01*
X112143141Y-171288134D01*
X112143134Y-171288128D01*
X112143128Y-171288123D01*
X111925638Y-171114681D01*
X111925621Y-171114669D01*
X111690060Y-170966656D01*
X111439400Y-170845944D01*
X111439397Y-170845943D01*
X111439389Y-170845939D01*
X111176801Y-170754056D01*
X111176795Y-170754055D01*
X110905572Y-170692151D01*
X110905569Y-170692150D01*
X110905567Y-170692150D01*
X110905565Y-170692149D01*
X110905555Y-170692148D01*
X110714866Y-170670663D01*
X110629105Y-170661000D01*
X110350895Y-170661000D01*
X110265838Y-170670583D01*
X110074444Y-170692148D01*
X110074427Y-170692151D01*
X109803204Y-170754055D01*
X109803198Y-170754056D01*
X109540610Y-170845939D01*
X109289939Y-170966656D01*
X109054378Y-171114669D01*
X109054361Y-171114681D01*
X108836871Y-171288123D01*
X108836851Y-171288141D01*
X108640141Y-171484851D01*
X108640123Y-171484871D01*
X108466681Y-171702361D01*
X108466669Y-171702378D01*
X108318656Y-171937939D01*
X108197939Y-172188610D01*
X108106056Y-172451198D01*
X108106055Y-172451204D01*
X108044151Y-172722427D01*
X108044148Y-172722444D01*
X108013000Y-172998898D01*
X44387000Y-172998898D01*
X44387000Y-172998895D01*
X44355850Y-172722433D01*
X44293943Y-172451198D01*
X44202060Y-172188610D01*
X44202058Y-172188606D01*
X44202056Y-172188600D01*
X44081344Y-171937940D01*
X43933327Y-171702373D01*
X43933322Y-171702367D01*
X43933318Y-171702361D01*
X43759876Y-171484871D01*
X43759872Y-171484866D01*
X43759866Y-171484859D01*
X43563141Y-171288134D01*
X43563134Y-171288128D01*
X43563128Y-171288123D01*
X43345638Y-171114681D01*
X43345621Y-171114669D01*
X43110060Y-170966656D01*
X42859400Y-170845944D01*
X42859397Y-170845943D01*
X42859389Y-170845939D01*
X42596801Y-170754056D01*
X42596795Y-170754055D01*
X42325572Y-170692151D01*
X42325569Y-170692150D01*
X42325567Y-170692150D01*
X42325565Y-170692149D01*
X42325555Y-170692148D01*
X42134866Y-170670663D01*
X42049105Y-170661000D01*
X41770895Y-170661000D01*
X41685838Y-170670583D01*
X41494444Y-170692148D01*
X41494427Y-170692151D01*
X41223204Y-170754055D01*
X41223198Y-170754056D01*
X40960610Y-170845939D01*
X40709939Y-170966656D01*
X40474378Y-171114669D01*
X40474361Y-171114681D01*
X40256871Y-171288123D01*
X40256851Y-171288141D01*
X40060141Y-171484851D01*
X40060123Y-171484871D01*
X39886681Y-171702361D01*
X39886669Y-171702378D01*
X39738656Y-171937939D01*
X39617939Y-172188610D01*
X39526056Y-172451198D01*
X39526055Y-172451204D01*
X39464151Y-172722427D01*
X39464148Y-172722444D01*
X39433000Y-172998898D01*
X38354500Y-172998898D01*
X38354500Y-169957778D01*
X98245500Y-169957778D01*
X98245500Y-170118221D01*
X98276801Y-170275584D01*
X98338199Y-170423810D01*
X98427337Y-170557213D01*
X98540787Y-170670663D01*
X98674190Y-170759801D01*
X98744064Y-170788743D01*
X98822415Y-170821198D01*
X98822418Y-170821198D01*
X98822419Y-170821199D01*
X98979779Y-170852500D01*
X99140221Y-170852500D01*
X99297581Y-170821199D01*
X99297582Y-170821198D01*
X99297584Y-170821198D01*
X99326526Y-170809209D01*
X99445810Y-170759801D01*
X99579213Y-170670663D01*
X99692663Y-170557213D01*
X99781801Y-170423810D01*
X99843199Y-170275581D01*
X99874500Y-170118221D01*
X99874500Y-169957779D01*
X99843199Y-169800419D01*
X99843198Y-169800418D01*
X99843198Y-169800415D01*
X99810743Y-169722064D01*
X99781801Y-169652190D01*
X99692663Y-169518787D01*
X99579213Y-169405337D01*
X99579212Y-169405336D01*
X99445812Y-169316200D01*
X99445810Y-169316199D01*
X99297584Y-169254801D01*
X99140221Y-169223500D01*
X98979779Y-169223500D01*
X98822415Y-169254801D01*
X98674189Y-169316199D01*
X98674187Y-169316200D01*
X98540787Y-169405336D01*
X98427336Y-169518787D01*
X98338200Y-169652187D01*
X98338199Y-169652189D01*
X98276801Y-169800415D01*
X98245500Y-169957778D01*
X38354500Y-169957778D01*
X38354500Y-163457778D01*
X98245500Y-163457778D01*
X98245500Y-163618221D01*
X98276801Y-163775584D01*
X98338199Y-163923810D01*
X98427337Y-164057213D01*
X98540787Y-164170663D01*
X98674190Y-164259801D01*
X98744064Y-164288743D01*
X98822415Y-164321198D01*
X98822418Y-164321198D01*
X98822419Y-164321199D01*
X98979779Y-164352500D01*
X99140221Y-164352500D01*
X99297581Y-164321199D01*
X99297582Y-164321198D01*
X99297584Y-164321198D01*
X99326526Y-164309209D01*
X99445810Y-164259801D01*
X99579213Y-164170663D01*
X99692663Y-164057213D01*
X99781801Y-163923810D01*
X99843199Y-163775581D01*
X99874500Y-163618221D01*
X99874500Y-163457779D01*
X99843199Y-163300419D01*
X99843198Y-163300418D01*
X99843198Y-163300415D01*
X99810743Y-163222064D01*
X99781801Y-163152190D01*
X99692663Y-163018787D01*
X99579213Y-162905337D01*
X99579212Y-162905336D01*
X99445812Y-162816200D01*
X99445810Y-162816199D01*
X99297584Y-162754801D01*
X99140221Y-162723500D01*
X98979779Y-162723500D01*
X98822415Y-162754801D01*
X98674189Y-162816199D01*
X98674187Y-162816200D01*
X98540787Y-162905336D01*
X98427336Y-163018787D01*
X98338200Y-163152187D01*
X98338199Y-163152189D01*
X98276801Y-163300415D01*
X98245500Y-163457778D01*
X38354500Y-163457778D01*
X38354500Y-160822302D01*
X46227499Y-160822302D01*
X46227499Y-161503700D01*
X46242264Y-161577931D01*
X46242265Y-161577933D01*
X46284314Y-161640863D01*
X46284316Y-161640865D01*
X46766134Y-162122682D01*
X46766136Y-162122684D01*
X46829066Y-162164733D01*
X46829068Y-162164734D01*
X46903302Y-162179500D01*
X47584700Y-162179501D01*
X47658932Y-162164735D01*
X47721864Y-162122685D01*
X48203684Y-161640864D01*
X48245734Y-161577932D01*
X48260500Y-161503698D01*
X48260501Y-160822302D01*
X48767499Y-160822302D01*
X48767499Y-161503700D01*
X48782264Y-161577931D01*
X48782265Y-161577933D01*
X48824314Y-161640863D01*
X48824316Y-161640865D01*
X49306134Y-162122682D01*
X49306136Y-162122684D01*
X49369066Y-162164733D01*
X49369068Y-162164734D01*
X49443302Y-162179500D01*
X50124700Y-162179501D01*
X50198932Y-162164735D01*
X50261864Y-162122685D01*
X50743684Y-161640864D01*
X50785734Y-161577932D01*
X50800500Y-161503698D01*
X50800501Y-160822302D01*
X51307499Y-160822302D01*
X51307499Y-161503700D01*
X51322264Y-161577931D01*
X51322265Y-161577933D01*
X51364314Y-161640863D01*
X51364316Y-161640865D01*
X51846134Y-162122682D01*
X51846136Y-162122684D01*
X51909066Y-162164733D01*
X51909068Y-162164734D01*
X51983302Y-162179500D01*
X52664700Y-162179501D01*
X52738932Y-162164735D01*
X52801864Y-162122685D01*
X53283684Y-161640864D01*
X53325734Y-161577932D01*
X53340500Y-161503698D01*
X53340501Y-160822302D01*
X53847499Y-160822302D01*
X53847499Y-161503700D01*
X53862264Y-161577931D01*
X53862265Y-161577933D01*
X53904314Y-161640863D01*
X53904316Y-161640865D01*
X54386134Y-162122682D01*
X54386136Y-162122684D01*
X54449066Y-162164733D01*
X54449068Y-162164734D01*
X54523302Y-162179500D01*
X55204700Y-162179501D01*
X55278932Y-162164735D01*
X55341864Y-162122685D01*
X55823684Y-161640864D01*
X55865734Y-161577932D01*
X55880500Y-161503698D01*
X55880501Y-160822302D01*
X56387499Y-160822302D01*
X56387499Y-161503700D01*
X56402264Y-161577931D01*
X56402265Y-161577933D01*
X56444314Y-161640863D01*
X56444316Y-161640865D01*
X56926134Y-162122682D01*
X56926136Y-162122684D01*
X56989066Y-162164733D01*
X56989068Y-162164734D01*
X57063302Y-162179500D01*
X57744700Y-162179501D01*
X57818932Y-162164735D01*
X57881864Y-162122685D01*
X58363684Y-161640864D01*
X58405734Y-161577932D01*
X58420500Y-161503698D01*
X58420501Y-160822302D01*
X58927499Y-160822302D01*
X58927499Y-161503700D01*
X58942264Y-161577931D01*
X58942265Y-161577933D01*
X58984314Y-161640863D01*
X58984316Y-161640865D01*
X59466134Y-162122682D01*
X59466136Y-162122684D01*
X59529066Y-162164733D01*
X59529068Y-162164734D01*
X59603302Y-162179500D01*
X60284700Y-162179501D01*
X60358932Y-162164735D01*
X60421864Y-162122685D01*
X60903684Y-161640864D01*
X60945734Y-161577932D01*
X60960500Y-161503698D01*
X60960501Y-160822302D01*
X61467499Y-160822302D01*
X61467499Y-161503700D01*
X61482264Y-161577931D01*
X61482265Y-161577933D01*
X61524314Y-161640863D01*
X61524316Y-161640865D01*
X62006134Y-162122682D01*
X62006136Y-162122684D01*
X62069066Y-162164733D01*
X62069068Y-162164734D01*
X62143302Y-162179500D01*
X62824700Y-162179501D01*
X62898932Y-162164735D01*
X62961864Y-162122685D01*
X63443684Y-161640864D01*
X63485734Y-161577932D01*
X63500500Y-161503698D01*
X63500501Y-160822302D01*
X64007499Y-160822302D01*
X64007499Y-161503700D01*
X64022264Y-161577931D01*
X64022265Y-161577933D01*
X64064314Y-161640863D01*
X64064316Y-161640865D01*
X64546134Y-162122682D01*
X64546136Y-162122684D01*
X64609066Y-162164733D01*
X64609068Y-162164734D01*
X64683302Y-162179500D01*
X65364700Y-162179501D01*
X65438932Y-162164735D01*
X65501864Y-162122685D01*
X65983684Y-161640864D01*
X66025734Y-161577932D01*
X66040500Y-161503698D01*
X66040501Y-160822302D01*
X66547499Y-160822302D01*
X66547499Y-161503700D01*
X66562264Y-161577931D01*
X66562265Y-161577933D01*
X66604314Y-161640863D01*
X66604316Y-161640865D01*
X67086134Y-162122682D01*
X67086136Y-162122684D01*
X67149066Y-162164733D01*
X67149068Y-162164734D01*
X67223302Y-162179500D01*
X67904700Y-162179501D01*
X67978932Y-162164735D01*
X68041864Y-162122685D01*
X68523684Y-161640864D01*
X68565734Y-161577932D01*
X68580500Y-161503698D01*
X68580501Y-160822302D01*
X69087499Y-160822302D01*
X69087499Y-161503700D01*
X69102264Y-161577931D01*
X69102265Y-161577933D01*
X69144314Y-161640863D01*
X69144316Y-161640865D01*
X69626134Y-162122682D01*
X69626136Y-162122684D01*
X69689066Y-162164733D01*
X69689068Y-162164734D01*
X69763302Y-162179500D01*
X70444700Y-162179501D01*
X70518932Y-162164735D01*
X70581864Y-162122685D01*
X71063684Y-161640864D01*
X71105734Y-161577932D01*
X71120500Y-161503698D01*
X71120501Y-160822302D01*
X71627499Y-160822302D01*
X71627499Y-161503700D01*
X71642264Y-161577931D01*
X71642265Y-161577933D01*
X71684314Y-161640863D01*
X71684316Y-161640865D01*
X72166134Y-162122682D01*
X72166136Y-162122684D01*
X72229066Y-162164733D01*
X72229068Y-162164734D01*
X72303302Y-162179500D01*
X72984700Y-162179501D01*
X73058932Y-162164735D01*
X73121864Y-162122685D01*
X73603684Y-161640864D01*
X73645734Y-161577932D01*
X73660500Y-161503698D01*
X73660501Y-160822302D01*
X74167499Y-160822302D01*
X74167499Y-161503700D01*
X74182264Y-161577931D01*
X74182265Y-161577933D01*
X74224314Y-161640863D01*
X74224316Y-161640865D01*
X74706134Y-162122682D01*
X74706136Y-162122684D01*
X74769066Y-162164733D01*
X74769068Y-162164734D01*
X74843302Y-162179500D01*
X75524700Y-162179501D01*
X75598932Y-162164735D01*
X75661864Y-162122685D01*
X76143684Y-161640864D01*
X76185734Y-161577932D01*
X76200500Y-161503698D01*
X76200501Y-160822302D01*
X76707499Y-160822302D01*
X76707499Y-161503700D01*
X76722264Y-161577931D01*
X76722265Y-161577933D01*
X76764314Y-161640863D01*
X76764316Y-161640865D01*
X77246134Y-162122682D01*
X77246136Y-162122684D01*
X77309066Y-162164733D01*
X77309068Y-162164734D01*
X77383302Y-162179500D01*
X78064700Y-162179501D01*
X78138932Y-162164735D01*
X78201864Y-162122685D01*
X78683684Y-161640864D01*
X78725734Y-161577932D01*
X78740500Y-161503698D01*
X78740501Y-160822302D01*
X79247499Y-160822302D01*
X79247499Y-161503700D01*
X79262264Y-161577931D01*
X79262265Y-161577933D01*
X79304314Y-161640863D01*
X79304316Y-161640865D01*
X79786134Y-162122682D01*
X79786136Y-162122684D01*
X79849066Y-162164733D01*
X79849068Y-162164734D01*
X79923302Y-162179500D01*
X80604700Y-162179501D01*
X80678932Y-162164735D01*
X80741864Y-162122685D01*
X81223684Y-161640864D01*
X81265734Y-161577932D01*
X81280500Y-161503698D01*
X81280501Y-160822302D01*
X81787499Y-160822302D01*
X81787499Y-161503700D01*
X81802264Y-161577931D01*
X81802265Y-161577933D01*
X81844314Y-161640863D01*
X81844316Y-161640865D01*
X82326134Y-162122682D01*
X82326136Y-162122684D01*
X82389066Y-162164733D01*
X82389068Y-162164734D01*
X82463302Y-162179500D01*
X83144700Y-162179501D01*
X83218932Y-162164735D01*
X83281864Y-162122685D01*
X83763684Y-161640864D01*
X83805734Y-161577932D01*
X83820500Y-161503698D01*
X83820501Y-160822302D01*
X84327499Y-160822302D01*
X84327499Y-161503700D01*
X84342264Y-161577931D01*
X84342265Y-161577933D01*
X84384314Y-161640863D01*
X84384316Y-161640865D01*
X84866134Y-162122682D01*
X84866136Y-162122684D01*
X84929066Y-162164733D01*
X84929068Y-162164734D01*
X85003302Y-162179500D01*
X85684700Y-162179501D01*
X85758932Y-162164735D01*
X85821864Y-162122685D01*
X86303684Y-161640864D01*
X86345734Y-161577932D01*
X86360500Y-161503698D01*
X86360501Y-160822302D01*
X86867499Y-160822302D01*
X86867499Y-161503700D01*
X86882264Y-161577931D01*
X86882265Y-161577933D01*
X86924314Y-161640863D01*
X86924316Y-161640865D01*
X87406134Y-162122682D01*
X87406136Y-162122684D01*
X87469066Y-162164733D01*
X87469068Y-162164734D01*
X87543302Y-162179500D01*
X88224700Y-162179501D01*
X88298932Y-162164735D01*
X88361864Y-162122685D01*
X88843684Y-161640864D01*
X88885734Y-161577932D01*
X88900500Y-161503698D01*
X88900501Y-160822302D01*
X89407499Y-160822302D01*
X89407499Y-161503700D01*
X89422264Y-161577931D01*
X89422265Y-161577933D01*
X89464314Y-161640863D01*
X89464316Y-161640865D01*
X89946134Y-162122682D01*
X89946136Y-162122684D01*
X90009066Y-162164733D01*
X90009068Y-162164734D01*
X90083302Y-162179500D01*
X90764700Y-162179501D01*
X90838932Y-162164735D01*
X90901864Y-162122685D01*
X91383684Y-161640864D01*
X91425734Y-161577932D01*
X91440500Y-161503698D01*
X91440501Y-160822300D01*
X91425735Y-160748068D01*
X91383685Y-160685136D01*
X90901864Y-160203316D01*
X90901863Y-160203315D01*
X90838933Y-160161266D01*
X90838931Y-160161265D01*
X90764698Y-160146500D01*
X90764697Y-160146499D01*
X90083299Y-160146499D01*
X90009068Y-160161264D01*
X90009066Y-160161265D01*
X89946136Y-160203314D01*
X89946134Y-160203316D01*
X89464317Y-160685134D01*
X89464315Y-160685136D01*
X89422266Y-160748066D01*
X89422265Y-160748068D01*
X89407500Y-160822301D01*
X89407499Y-160822302D01*
X88900501Y-160822302D01*
X88900501Y-160822300D01*
X88885735Y-160748068D01*
X88843685Y-160685136D01*
X88361864Y-160203316D01*
X88361863Y-160203315D01*
X88298933Y-160161266D01*
X88298931Y-160161265D01*
X88224698Y-160146500D01*
X88224697Y-160146499D01*
X87543299Y-160146499D01*
X87469068Y-160161264D01*
X87469066Y-160161265D01*
X87406136Y-160203314D01*
X87406134Y-160203316D01*
X86924317Y-160685134D01*
X86924315Y-160685136D01*
X86882266Y-160748066D01*
X86882265Y-160748068D01*
X86867500Y-160822301D01*
X86867499Y-160822302D01*
X86360501Y-160822302D01*
X86360501Y-160822300D01*
X86345735Y-160748068D01*
X86303685Y-160685136D01*
X85821864Y-160203316D01*
X85821863Y-160203315D01*
X85758933Y-160161266D01*
X85758931Y-160161265D01*
X85684698Y-160146500D01*
X85684697Y-160146499D01*
X85003299Y-160146499D01*
X84929068Y-160161264D01*
X84929066Y-160161265D01*
X84866136Y-160203314D01*
X84866134Y-160203316D01*
X84384317Y-160685134D01*
X84384315Y-160685136D01*
X84342266Y-160748066D01*
X84342265Y-160748068D01*
X84327500Y-160822301D01*
X84327499Y-160822302D01*
X83820501Y-160822302D01*
X83820501Y-160822300D01*
X83805735Y-160748068D01*
X83763685Y-160685136D01*
X83281864Y-160203316D01*
X83281863Y-160203315D01*
X83218933Y-160161266D01*
X83218931Y-160161265D01*
X83144698Y-160146500D01*
X83144697Y-160146499D01*
X82463299Y-160146499D01*
X82389068Y-160161264D01*
X82389066Y-160161265D01*
X82326136Y-160203314D01*
X82326134Y-160203316D01*
X81844317Y-160685134D01*
X81844315Y-160685136D01*
X81802266Y-160748066D01*
X81802265Y-160748068D01*
X81787500Y-160822301D01*
X81787499Y-160822302D01*
X81280501Y-160822302D01*
X81280501Y-160822300D01*
X81265735Y-160748068D01*
X81223685Y-160685136D01*
X80741864Y-160203316D01*
X80741863Y-160203315D01*
X80678933Y-160161266D01*
X80678931Y-160161265D01*
X80604698Y-160146500D01*
X80604697Y-160146499D01*
X79923299Y-160146499D01*
X79849068Y-160161264D01*
X79849066Y-160161265D01*
X79786136Y-160203314D01*
X79786134Y-160203316D01*
X79304317Y-160685134D01*
X79304315Y-160685136D01*
X79262266Y-160748066D01*
X79262265Y-160748068D01*
X79247500Y-160822301D01*
X79247499Y-160822302D01*
X78740501Y-160822302D01*
X78740501Y-160822300D01*
X78725735Y-160748068D01*
X78683685Y-160685136D01*
X78201864Y-160203316D01*
X78201863Y-160203315D01*
X78138933Y-160161266D01*
X78138931Y-160161265D01*
X78064698Y-160146500D01*
X78064697Y-160146499D01*
X77383299Y-160146499D01*
X77309068Y-160161264D01*
X77309066Y-160161265D01*
X77246136Y-160203314D01*
X77246134Y-160203316D01*
X76764317Y-160685134D01*
X76764315Y-160685136D01*
X76722266Y-160748066D01*
X76722265Y-160748068D01*
X76707500Y-160822301D01*
X76707499Y-160822302D01*
X76200501Y-160822302D01*
X76200501Y-160822300D01*
X76185735Y-160748068D01*
X76143685Y-160685136D01*
X75661864Y-160203316D01*
X75661863Y-160203315D01*
X75598933Y-160161266D01*
X75598931Y-160161265D01*
X75524698Y-160146500D01*
X75524697Y-160146499D01*
X74843299Y-160146499D01*
X74769068Y-160161264D01*
X74769066Y-160161265D01*
X74706136Y-160203314D01*
X74706134Y-160203316D01*
X74224317Y-160685134D01*
X74224315Y-160685136D01*
X74182266Y-160748066D01*
X74182265Y-160748068D01*
X74167500Y-160822301D01*
X74167499Y-160822302D01*
X73660501Y-160822302D01*
X73660501Y-160822300D01*
X73645735Y-160748068D01*
X73603685Y-160685136D01*
X73121864Y-160203316D01*
X73121863Y-160203315D01*
X73058933Y-160161266D01*
X73058931Y-160161265D01*
X72984698Y-160146500D01*
X72984697Y-160146499D01*
X72303299Y-160146499D01*
X72229068Y-160161264D01*
X72229066Y-160161265D01*
X72166136Y-160203314D01*
X72166134Y-160203316D01*
X71684317Y-160685134D01*
X71684315Y-160685136D01*
X71642266Y-160748066D01*
X71642265Y-160748068D01*
X71627500Y-160822301D01*
X71627499Y-160822302D01*
X71120501Y-160822302D01*
X71120501Y-160822300D01*
X71105735Y-160748068D01*
X71063685Y-160685136D01*
X70581864Y-160203316D01*
X70581863Y-160203315D01*
X70518933Y-160161266D01*
X70518931Y-160161265D01*
X70444698Y-160146500D01*
X70444697Y-160146499D01*
X69763299Y-160146499D01*
X69689068Y-160161264D01*
X69689066Y-160161265D01*
X69626136Y-160203314D01*
X69626134Y-160203316D01*
X69144317Y-160685134D01*
X69144315Y-160685136D01*
X69102266Y-160748066D01*
X69102265Y-160748068D01*
X69087500Y-160822301D01*
X69087499Y-160822302D01*
X68580501Y-160822302D01*
X68580501Y-160822300D01*
X68565735Y-160748068D01*
X68523685Y-160685136D01*
X68041864Y-160203316D01*
X68041863Y-160203315D01*
X67978933Y-160161266D01*
X67978931Y-160161265D01*
X67904698Y-160146500D01*
X67904697Y-160146499D01*
X67223299Y-160146499D01*
X67149068Y-160161264D01*
X67149066Y-160161265D01*
X67086136Y-160203314D01*
X67086134Y-160203316D01*
X66604317Y-160685134D01*
X66604315Y-160685136D01*
X66562266Y-160748066D01*
X66562265Y-160748068D01*
X66547500Y-160822301D01*
X66547499Y-160822302D01*
X66040501Y-160822302D01*
X66040501Y-160822300D01*
X66025735Y-160748068D01*
X65983685Y-160685136D01*
X65501864Y-160203316D01*
X65501863Y-160203315D01*
X65438933Y-160161266D01*
X65438931Y-160161265D01*
X65364698Y-160146500D01*
X65364697Y-160146499D01*
X64683299Y-160146499D01*
X64609068Y-160161264D01*
X64609066Y-160161265D01*
X64546136Y-160203314D01*
X64546134Y-160203316D01*
X64064317Y-160685134D01*
X64064315Y-160685136D01*
X64022266Y-160748066D01*
X64022265Y-160748068D01*
X64007500Y-160822301D01*
X64007499Y-160822302D01*
X63500501Y-160822302D01*
X63500501Y-160822300D01*
X63485735Y-160748068D01*
X63443685Y-160685136D01*
X62961864Y-160203316D01*
X62961863Y-160203315D01*
X62898933Y-160161266D01*
X62898931Y-160161265D01*
X62824698Y-160146500D01*
X62824697Y-160146499D01*
X62143299Y-160146499D01*
X62069068Y-160161264D01*
X62069066Y-160161265D01*
X62006136Y-160203314D01*
X62006134Y-160203316D01*
X61524317Y-160685134D01*
X61524315Y-160685136D01*
X61482266Y-160748066D01*
X61482265Y-160748068D01*
X61467500Y-160822301D01*
X61467499Y-160822302D01*
X60960501Y-160822302D01*
X60960501Y-160822300D01*
X60945735Y-160748068D01*
X60903685Y-160685136D01*
X60421864Y-160203316D01*
X60421863Y-160203315D01*
X60358933Y-160161266D01*
X60358931Y-160161265D01*
X60284698Y-160146500D01*
X60284697Y-160146499D01*
X59603299Y-160146499D01*
X59529068Y-160161264D01*
X59529066Y-160161265D01*
X59466136Y-160203314D01*
X59466134Y-160203316D01*
X58984317Y-160685134D01*
X58984315Y-160685136D01*
X58942266Y-160748066D01*
X58942265Y-160748068D01*
X58927500Y-160822301D01*
X58927499Y-160822302D01*
X58420501Y-160822302D01*
X58420501Y-160822300D01*
X58405735Y-160748068D01*
X58363685Y-160685136D01*
X57881864Y-160203316D01*
X57881863Y-160203315D01*
X57818933Y-160161266D01*
X57818931Y-160161265D01*
X57744698Y-160146500D01*
X57744697Y-160146499D01*
X57063299Y-160146499D01*
X56989068Y-160161264D01*
X56989066Y-160161265D01*
X56926136Y-160203314D01*
X56926134Y-160203316D01*
X56444317Y-160685134D01*
X56444315Y-160685136D01*
X56402266Y-160748066D01*
X56402265Y-160748068D01*
X56387500Y-160822301D01*
X56387499Y-160822302D01*
X55880501Y-160822302D01*
X55880501Y-160822300D01*
X55865735Y-160748068D01*
X55823685Y-160685136D01*
X55341864Y-160203316D01*
X55341863Y-160203315D01*
X55278933Y-160161266D01*
X55278931Y-160161265D01*
X55204698Y-160146500D01*
X55204697Y-160146499D01*
X54523299Y-160146499D01*
X54449068Y-160161264D01*
X54449066Y-160161265D01*
X54386136Y-160203314D01*
X54386134Y-160203316D01*
X53904317Y-160685134D01*
X53904315Y-160685136D01*
X53862266Y-160748066D01*
X53862265Y-160748068D01*
X53847500Y-160822301D01*
X53847499Y-160822302D01*
X53340501Y-160822302D01*
X53340501Y-160822300D01*
X53325735Y-160748068D01*
X53283685Y-160685136D01*
X52801864Y-160203316D01*
X52801863Y-160203315D01*
X52738933Y-160161266D01*
X52738931Y-160161265D01*
X52664698Y-160146500D01*
X52664697Y-160146499D01*
X51983299Y-160146499D01*
X51909068Y-160161264D01*
X51909066Y-160161265D01*
X51846136Y-160203314D01*
X51846134Y-160203316D01*
X51364317Y-160685134D01*
X51364315Y-160685136D01*
X51322266Y-160748066D01*
X51322265Y-160748068D01*
X51307500Y-160822301D01*
X51307499Y-160822302D01*
X50800501Y-160822302D01*
X50800501Y-160822300D01*
X50785735Y-160748068D01*
X50743685Y-160685136D01*
X50261864Y-160203316D01*
X50261863Y-160203315D01*
X50198933Y-160161266D01*
X50198931Y-160161265D01*
X50124698Y-160146500D01*
X50124697Y-160146499D01*
X49443299Y-160146499D01*
X49369068Y-160161264D01*
X49369066Y-160161265D01*
X49306136Y-160203314D01*
X49306134Y-160203316D01*
X48824317Y-160685134D01*
X48824315Y-160685136D01*
X48782266Y-160748066D01*
X48782265Y-160748068D01*
X48767500Y-160822301D01*
X48767499Y-160822302D01*
X48260501Y-160822302D01*
X48260501Y-160822300D01*
X48245735Y-160748068D01*
X48203685Y-160685136D01*
X47721864Y-160203316D01*
X47721863Y-160203315D01*
X47658933Y-160161266D01*
X47658931Y-160161265D01*
X47584698Y-160146500D01*
X47584697Y-160146499D01*
X46903299Y-160146499D01*
X46829068Y-160161264D01*
X46829066Y-160161265D01*
X46766136Y-160203314D01*
X46766134Y-160203316D01*
X46284317Y-160685134D01*
X46284315Y-160685136D01*
X46242266Y-160748066D01*
X46242265Y-160748068D01*
X46227500Y-160822301D01*
X46227499Y-160822302D01*
X38354500Y-160822302D01*
X38354500Y-157835932D01*
X46227500Y-157835932D01*
X46227500Y-159410064D01*
X46227501Y-159410068D01*
X46242265Y-159484299D01*
X46242267Y-159484303D01*
X46298515Y-159568484D01*
X46382697Y-159624733D01*
X46382699Y-159624734D01*
X46456933Y-159639500D01*
X48031066Y-159639499D01*
X48105301Y-159624734D01*
X48189484Y-159568484D01*
X48245734Y-159484301D01*
X48260500Y-159410067D01*
X48260499Y-158564480D01*
X48260499Y-158282302D01*
X48767499Y-158282302D01*
X48767499Y-158963700D01*
X48782264Y-159037931D01*
X48782265Y-159037933D01*
X48824314Y-159100863D01*
X48824316Y-159100865D01*
X49306134Y-159582682D01*
X49306136Y-159582684D01*
X49369066Y-159624733D01*
X49369068Y-159624734D01*
X49443302Y-159639500D01*
X50124700Y-159639501D01*
X50198932Y-159624735D01*
X50261864Y-159582685D01*
X50743684Y-159100864D01*
X50785734Y-159037932D01*
X50800500Y-158963698D01*
X50800501Y-158282302D01*
X51307499Y-158282302D01*
X51307499Y-158963700D01*
X51322264Y-159037931D01*
X51322265Y-159037933D01*
X51364314Y-159100863D01*
X51364316Y-159100865D01*
X51846134Y-159582682D01*
X51846136Y-159582684D01*
X51909066Y-159624733D01*
X51909068Y-159624734D01*
X51983302Y-159639500D01*
X52664700Y-159639501D01*
X52738932Y-159624735D01*
X52801864Y-159582685D01*
X53283684Y-159100864D01*
X53325734Y-159037932D01*
X53340500Y-158963698D01*
X53340501Y-158282302D01*
X53847499Y-158282302D01*
X53847499Y-158963700D01*
X53862264Y-159037931D01*
X53862265Y-159037933D01*
X53904314Y-159100863D01*
X53904316Y-159100865D01*
X54386134Y-159582682D01*
X54386136Y-159582684D01*
X54449066Y-159624733D01*
X54449068Y-159624734D01*
X54523302Y-159639500D01*
X55204700Y-159639501D01*
X55278932Y-159624735D01*
X55341864Y-159582685D01*
X55823684Y-159100864D01*
X55865734Y-159037932D01*
X55880500Y-158963698D01*
X55880501Y-158282302D01*
X56387499Y-158282302D01*
X56387499Y-158963700D01*
X56402264Y-159037931D01*
X56402265Y-159037933D01*
X56444314Y-159100863D01*
X56444316Y-159100865D01*
X56926134Y-159582682D01*
X56926136Y-159582684D01*
X56989066Y-159624733D01*
X56989068Y-159624734D01*
X57063302Y-159639500D01*
X57744700Y-159639501D01*
X57818932Y-159624735D01*
X57881864Y-159582685D01*
X58363684Y-159100864D01*
X58405734Y-159037932D01*
X58420500Y-158963698D01*
X58420501Y-158282302D01*
X58927499Y-158282302D01*
X58927499Y-158963700D01*
X58942264Y-159037931D01*
X58942265Y-159037933D01*
X58984314Y-159100863D01*
X58984316Y-159100865D01*
X59466134Y-159582682D01*
X59466136Y-159582684D01*
X59529066Y-159624733D01*
X59529068Y-159624734D01*
X59603302Y-159639500D01*
X60284700Y-159639501D01*
X60358932Y-159624735D01*
X60421864Y-159582685D01*
X60903684Y-159100864D01*
X60945734Y-159037932D01*
X60960500Y-158963698D01*
X60960501Y-158282302D01*
X61467499Y-158282302D01*
X61467499Y-158963700D01*
X61482264Y-159037931D01*
X61482265Y-159037933D01*
X61524314Y-159100863D01*
X61524316Y-159100865D01*
X62006134Y-159582682D01*
X62006136Y-159582684D01*
X62069066Y-159624733D01*
X62069068Y-159624734D01*
X62143302Y-159639500D01*
X62824700Y-159639501D01*
X62898932Y-159624735D01*
X62961864Y-159582685D01*
X63443684Y-159100864D01*
X63485734Y-159037932D01*
X63500500Y-158963698D01*
X63500501Y-158282302D01*
X64007499Y-158282302D01*
X64007499Y-158963700D01*
X64022264Y-159037931D01*
X64022265Y-159037933D01*
X64064314Y-159100863D01*
X64064316Y-159100865D01*
X64546134Y-159582682D01*
X64546136Y-159582684D01*
X64609066Y-159624733D01*
X64609068Y-159624734D01*
X64683302Y-159639500D01*
X65364700Y-159639501D01*
X65438932Y-159624735D01*
X65501864Y-159582685D01*
X65983684Y-159100864D01*
X66025734Y-159037932D01*
X66040500Y-158963698D01*
X66040501Y-158282302D01*
X66547499Y-158282302D01*
X66547499Y-158963700D01*
X66562264Y-159037931D01*
X66562265Y-159037933D01*
X66604314Y-159100863D01*
X66604316Y-159100865D01*
X67086134Y-159582682D01*
X67086136Y-159582684D01*
X67149066Y-159624733D01*
X67149068Y-159624734D01*
X67223302Y-159639500D01*
X67904700Y-159639501D01*
X67978932Y-159624735D01*
X68041864Y-159582685D01*
X68523684Y-159100864D01*
X68565734Y-159037932D01*
X68580500Y-158963698D01*
X68580501Y-158282302D01*
X69087499Y-158282302D01*
X69087499Y-158963700D01*
X69102264Y-159037931D01*
X69102265Y-159037933D01*
X69144314Y-159100863D01*
X69144316Y-159100865D01*
X69626134Y-159582682D01*
X69626136Y-159582684D01*
X69689066Y-159624733D01*
X69689068Y-159624734D01*
X69763302Y-159639500D01*
X70444700Y-159639501D01*
X70518932Y-159624735D01*
X70581864Y-159582685D01*
X71063684Y-159100864D01*
X71105734Y-159037932D01*
X71120500Y-158963698D01*
X71120501Y-158282302D01*
X71627499Y-158282302D01*
X71627499Y-158963700D01*
X71642264Y-159037931D01*
X71642265Y-159037933D01*
X71684314Y-159100863D01*
X71684316Y-159100865D01*
X72166134Y-159582682D01*
X72166136Y-159582684D01*
X72229066Y-159624733D01*
X72229068Y-159624734D01*
X72303302Y-159639500D01*
X72984700Y-159639501D01*
X73058932Y-159624735D01*
X73121864Y-159582685D01*
X73603684Y-159100864D01*
X73645734Y-159037932D01*
X73660500Y-158963698D01*
X73660501Y-158282300D01*
X73656310Y-158261232D01*
X74041000Y-158261232D01*
X74041000Y-158432500D01*
X74780721Y-158432500D01*
X74769792Y-158451429D01*
X74739500Y-158564480D01*
X74739500Y-158681520D01*
X74769792Y-158794571D01*
X74780721Y-158813500D01*
X74041000Y-158813500D01*
X74041000Y-158984770D01*
X74045672Y-159025697D01*
X74045673Y-159025701D01*
X74094330Y-159143169D01*
X74094335Y-159143176D01*
X74119956Y-159175401D01*
X74119973Y-159175420D01*
X74631583Y-159687031D01*
X74663827Y-159712666D01*
X74663832Y-159712669D01*
X74781300Y-159761326D01*
X74822232Y-159766000D01*
X74993500Y-159766000D01*
X74993500Y-159026279D01*
X75012429Y-159037208D01*
X75125480Y-159067500D01*
X75242520Y-159067500D01*
X75355571Y-159037208D01*
X75374500Y-159026279D01*
X75374500Y-159766000D01*
X75545770Y-159766000D01*
X75586697Y-159761327D01*
X75586701Y-159761326D01*
X75704169Y-159712669D01*
X75704176Y-159712664D01*
X75736401Y-159687043D01*
X75736420Y-159687026D01*
X76248031Y-159175416D01*
X76273666Y-159143172D01*
X76273669Y-159143167D01*
X76322326Y-159025701D01*
X76322326Y-159025697D01*
X76327000Y-158984767D01*
X76327000Y-158813500D01*
X75587279Y-158813500D01*
X75598208Y-158794571D01*
X75628500Y-158681520D01*
X75628500Y-158564480D01*
X75598208Y-158451429D01*
X75587279Y-158432500D01*
X76327000Y-158432500D01*
X76327000Y-158282302D01*
X76707499Y-158282302D01*
X76707499Y-158963700D01*
X76722264Y-159037931D01*
X76722265Y-159037933D01*
X76764314Y-159100863D01*
X76764316Y-159100865D01*
X77246134Y-159582682D01*
X77246136Y-159582684D01*
X77309066Y-159624733D01*
X77309068Y-159624734D01*
X77383302Y-159639500D01*
X78064700Y-159639501D01*
X78138932Y-159624735D01*
X78201864Y-159582685D01*
X78683684Y-159100864D01*
X78725734Y-159037932D01*
X78740500Y-158963698D01*
X78740501Y-158282302D01*
X79247499Y-158282302D01*
X79247499Y-158963700D01*
X79262264Y-159037931D01*
X79262265Y-159037933D01*
X79304314Y-159100863D01*
X79304316Y-159100865D01*
X79786134Y-159582682D01*
X79786136Y-159582684D01*
X79849066Y-159624733D01*
X79849068Y-159624734D01*
X79923302Y-159639500D01*
X80604700Y-159639501D01*
X80678932Y-159624735D01*
X80741864Y-159582685D01*
X81223684Y-159100864D01*
X81265734Y-159037932D01*
X81280500Y-158963698D01*
X81280501Y-158282302D01*
X81787499Y-158282302D01*
X81787499Y-158963700D01*
X81802264Y-159037931D01*
X81802265Y-159037933D01*
X81844314Y-159100863D01*
X81844316Y-159100865D01*
X82326134Y-159582682D01*
X82326136Y-159582684D01*
X82389066Y-159624733D01*
X82389068Y-159624734D01*
X82463302Y-159639500D01*
X83144700Y-159639501D01*
X83218932Y-159624735D01*
X83281864Y-159582685D01*
X83763684Y-159100864D01*
X83805734Y-159037932D01*
X83820500Y-158963698D01*
X83820501Y-158282302D01*
X84327499Y-158282302D01*
X84327499Y-158963700D01*
X84342264Y-159037931D01*
X84342265Y-159037933D01*
X84384314Y-159100863D01*
X84384316Y-159100865D01*
X84866134Y-159582682D01*
X84866136Y-159582684D01*
X84929066Y-159624733D01*
X84929068Y-159624734D01*
X85003302Y-159639500D01*
X85684700Y-159639501D01*
X85758932Y-159624735D01*
X85821864Y-159582685D01*
X86303684Y-159100864D01*
X86345734Y-159037932D01*
X86360500Y-158963698D01*
X86360501Y-158282302D01*
X86867499Y-158282302D01*
X86867499Y-158963700D01*
X86882264Y-159037931D01*
X86882265Y-159037933D01*
X86924314Y-159100863D01*
X86924316Y-159100865D01*
X87406134Y-159582682D01*
X87406136Y-159582684D01*
X87469066Y-159624733D01*
X87469068Y-159624734D01*
X87543302Y-159639500D01*
X88224700Y-159639501D01*
X88298932Y-159624735D01*
X88361864Y-159582685D01*
X88843684Y-159100864D01*
X88885734Y-159037932D01*
X88900500Y-158963698D01*
X88900501Y-158282302D01*
X89407499Y-158282302D01*
X89407499Y-158963700D01*
X89422264Y-159037931D01*
X89422265Y-159037933D01*
X89464314Y-159100863D01*
X89464316Y-159100865D01*
X89946134Y-159582682D01*
X89946136Y-159582684D01*
X90009066Y-159624733D01*
X90009068Y-159624734D01*
X90083302Y-159639500D01*
X90764700Y-159639501D01*
X90838932Y-159624735D01*
X90901864Y-159582685D01*
X91383684Y-159100864D01*
X91425734Y-159037932D01*
X91440500Y-158963698D01*
X91440501Y-158282300D01*
X91425735Y-158208068D01*
X91383685Y-158145136D01*
X90901864Y-157663316D01*
X90901863Y-157663315D01*
X90838933Y-157621266D01*
X90838931Y-157621265D01*
X90764698Y-157606500D01*
X90764697Y-157606499D01*
X90083299Y-157606499D01*
X90009068Y-157621264D01*
X90009066Y-157621265D01*
X89946136Y-157663314D01*
X89946134Y-157663316D01*
X89464317Y-158145134D01*
X89464315Y-158145136D01*
X89422266Y-158208066D01*
X89422265Y-158208068D01*
X89407500Y-158282301D01*
X89407499Y-158282302D01*
X88900501Y-158282302D01*
X88900501Y-158282300D01*
X88885735Y-158208068D01*
X88843685Y-158145136D01*
X88361864Y-157663316D01*
X88361863Y-157663315D01*
X88298933Y-157621266D01*
X88298931Y-157621265D01*
X88224698Y-157606500D01*
X88224697Y-157606499D01*
X87543299Y-157606499D01*
X87469068Y-157621264D01*
X87469066Y-157621265D01*
X87406136Y-157663314D01*
X87406134Y-157663316D01*
X86924317Y-158145134D01*
X86924315Y-158145136D01*
X86882266Y-158208066D01*
X86882265Y-158208068D01*
X86867500Y-158282301D01*
X86867499Y-158282302D01*
X86360501Y-158282302D01*
X86360501Y-158282300D01*
X86345735Y-158208068D01*
X86303685Y-158145136D01*
X85821864Y-157663316D01*
X85821863Y-157663315D01*
X85758933Y-157621266D01*
X85758931Y-157621265D01*
X85684698Y-157606500D01*
X85684697Y-157606499D01*
X85003299Y-157606499D01*
X84929068Y-157621264D01*
X84929066Y-157621265D01*
X84866136Y-157663314D01*
X84866134Y-157663316D01*
X84384317Y-158145134D01*
X84384315Y-158145136D01*
X84342266Y-158208066D01*
X84342265Y-158208068D01*
X84327500Y-158282301D01*
X84327499Y-158282302D01*
X83820501Y-158282302D01*
X83820501Y-158282300D01*
X83805735Y-158208068D01*
X83763685Y-158145136D01*
X83281864Y-157663316D01*
X83281863Y-157663315D01*
X83218933Y-157621266D01*
X83218931Y-157621265D01*
X83144698Y-157606500D01*
X83144697Y-157606499D01*
X82463299Y-157606499D01*
X82389068Y-157621264D01*
X82389066Y-157621265D01*
X82326136Y-157663314D01*
X82326134Y-157663316D01*
X81844317Y-158145134D01*
X81844315Y-158145136D01*
X81802266Y-158208066D01*
X81802265Y-158208068D01*
X81787500Y-158282301D01*
X81787499Y-158282302D01*
X81280501Y-158282302D01*
X81280501Y-158282300D01*
X81265735Y-158208068D01*
X81223685Y-158145136D01*
X80741864Y-157663316D01*
X80741863Y-157663315D01*
X80678933Y-157621266D01*
X80678931Y-157621265D01*
X80604698Y-157606500D01*
X80604697Y-157606499D01*
X79923299Y-157606499D01*
X79849068Y-157621264D01*
X79849066Y-157621265D01*
X79786136Y-157663314D01*
X79786134Y-157663316D01*
X79304317Y-158145134D01*
X79304315Y-158145136D01*
X79262266Y-158208066D01*
X79262265Y-158208068D01*
X79247500Y-158282301D01*
X79247499Y-158282302D01*
X78740501Y-158282302D01*
X78740501Y-158282300D01*
X78725735Y-158208068D01*
X78683685Y-158145136D01*
X78201864Y-157663316D01*
X78201863Y-157663315D01*
X78138933Y-157621266D01*
X78138931Y-157621265D01*
X78064698Y-157606500D01*
X78064697Y-157606499D01*
X77383299Y-157606499D01*
X77309068Y-157621264D01*
X77309066Y-157621265D01*
X77246136Y-157663314D01*
X77246134Y-157663316D01*
X76764317Y-158145134D01*
X76764315Y-158145136D01*
X76722266Y-158208066D01*
X76722265Y-158208068D01*
X76707500Y-158282301D01*
X76707499Y-158282302D01*
X76327000Y-158282302D01*
X76327000Y-158261229D01*
X76322327Y-158220302D01*
X76322326Y-158220298D01*
X76273669Y-158102830D01*
X76273664Y-158102823D01*
X76248043Y-158070598D01*
X76248026Y-158070579D01*
X75736416Y-157558968D01*
X75704172Y-157533333D01*
X75704167Y-157533330D01*
X75586699Y-157484673D01*
X75545768Y-157480000D01*
X75374500Y-157480000D01*
X75374500Y-158219720D01*
X75355571Y-158208792D01*
X75242520Y-158178500D01*
X75125480Y-158178500D01*
X75012429Y-158208792D01*
X74993500Y-158219720D01*
X74993500Y-157480000D01*
X74822230Y-157480000D01*
X74781302Y-157484672D01*
X74781298Y-157484673D01*
X74663830Y-157533330D01*
X74663823Y-157533335D01*
X74631598Y-157558956D01*
X74631579Y-157558973D01*
X74119968Y-158070583D01*
X74094333Y-158102827D01*
X74094330Y-158102832D01*
X74045673Y-158220298D01*
X74045673Y-158220302D01*
X74041000Y-158261232D01*
X73656310Y-158261232D01*
X73645735Y-158208068D01*
X73603685Y-158145136D01*
X73121864Y-157663316D01*
X73121863Y-157663315D01*
X73058933Y-157621266D01*
X73058931Y-157621265D01*
X72984698Y-157606500D01*
X72984697Y-157606499D01*
X72303299Y-157606499D01*
X72229068Y-157621264D01*
X72229066Y-157621265D01*
X72166136Y-157663314D01*
X72166134Y-157663316D01*
X71684317Y-158145134D01*
X71684315Y-158145136D01*
X71642266Y-158208066D01*
X71642265Y-158208068D01*
X71627500Y-158282301D01*
X71627499Y-158282302D01*
X71120501Y-158282302D01*
X71120501Y-158282300D01*
X71105735Y-158208068D01*
X71063685Y-158145136D01*
X70581864Y-157663316D01*
X70581863Y-157663315D01*
X70518933Y-157621266D01*
X70518931Y-157621265D01*
X70444698Y-157606500D01*
X70444697Y-157606499D01*
X69763299Y-157606499D01*
X69689068Y-157621264D01*
X69689066Y-157621265D01*
X69626136Y-157663314D01*
X69626134Y-157663316D01*
X69144317Y-158145134D01*
X69144315Y-158145136D01*
X69102266Y-158208066D01*
X69102265Y-158208068D01*
X69087500Y-158282301D01*
X69087499Y-158282302D01*
X68580501Y-158282302D01*
X68580501Y-158282300D01*
X68565735Y-158208068D01*
X68523685Y-158145136D01*
X68041864Y-157663316D01*
X68041863Y-157663315D01*
X67978933Y-157621266D01*
X67978931Y-157621265D01*
X67904698Y-157606500D01*
X67904697Y-157606499D01*
X67223299Y-157606499D01*
X67149068Y-157621264D01*
X67149066Y-157621265D01*
X67086136Y-157663314D01*
X67086134Y-157663316D01*
X66604317Y-158145134D01*
X66604315Y-158145136D01*
X66562266Y-158208066D01*
X66562265Y-158208068D01*
X66547500Y-158282301D01*
X66547499Y-158282302D01*
X66040501Y-158282302D01*
X66040501Y-158282300D01*
X66025735Y-158208068D01*
X65983685Y-158145136D01*
X65501864Y-157663316D01*
X65501863Y-157663315D01*
X65438933Y-157621266D01*
X65438931Y-157621265D01*
X65364698Y-157606500D01*
X65364697Y-157606499D01*
X64683299Y-157606499D01*
X64609068Y-157621264D01*
X64609066Y-157621265D01*
X64546136Y-157663314D01*
X64546134Y-157663316D01*
X64064317Y-158145134D01*
X64064315Y-158145136D01*
X64022266Y-158208066D01*
X64022265Y-158208068D01*
X64007500Y-158282301D01*
X64007499Y-158282302D01*
X63500501Y-158282302D01*
X63500501Y-158282300D01*
X63485735Y-158208068D01*
X63443685Y-158145136D01*
X62961864Y-157663316D01*
X62961863Y-157663315D01*
X62898933Y-157621266D01*
X62898931Y-157621265D01*
X62824698Y-157606500D01*
X62824697Y-157606499D01*
X62143299Y-157606499D01*
X62069068Y-157621264D01*
X62069066Y-157621265D01*
X62006136Y-157663314D01*
X62006134Y-157663316D01*
X61524317Y-158145134D01*
X61524315Y-158145136D01*
X61482266Y-158208066D01*
X61482265Y-158208068D01*
X61467500Y-158282301D01*
X61467499Y-158282302D01*
X60960501Y-158282302D01*
X60960501Y-158282300D01*
X60945735Y-158208068D01*
X60903685Y-158145136D01*
X60421864Y-157663316D01*
X60421863Y-157663315D01*
X60358933Y-157621266D01*
X60358931Y-157621265D01*
X60284698Y-157606500D01*
X60284697Y-157606499D01*
X59603299Y-157606499D01*
X59529068Y-157621264D01*
X59529066Y-157621265D01*
X59466136Y-157663314D01*
X59466134Y-157663316D01*
X58984317Y-158145134D01*
X58984315Y-158145136D01*
X58942266Y-158208066D01*
X58942265Y-158208068D01*
X58927500Y-158282301D01*
X58927499Y-158282302D01*
X58420501Y-158282302D01*
X58420501Y-158282300D01*
X58405735Y-158208068D01*
X58363685Y-158145136D01*
X57881864Y-157663316D01*
X57881863Y-157663315D01*
X57818933Y-157621266D01*
X57818931Y-157621265D01*
X57744698Y-157606500D01*
X57744697Y-157606499D01*
X57063299Y-157606499D01*
X56989068Y-157621264D01*
X56989066Y-157621265D01*
X56926136Y-157663314D01*
X56926134Y-157663316D01*
X56444317Y-158145134D01*
X56444315Y-158145136D01*
X56402266Y-158208066D01*
X56402265Y-158208068D01*
X56387500Y-158282301D01*
X56387499Y-158282302D01*
X55880501Y-158282302D01*
X55880501Y-158282300D01*
X55865735Y-158208068D01*
X55823685Y-158145136D01*
X55341864Y-157663316D01*
X55341863Y-157663315D01*
X55278933Y-157621266D01*
X55278931Y-157621265D01*
X55204698Y-157606500D01*
X55204697Y-157606499D01*
X54523299Y-157606499D01*
X54449068Y-157621264D01*
X54449066Y-157621265D01*
X54386136Y-157663314D01*
X54386134Y-157663316D01*
X53904317Y-158145134D01*
X53904315Y-158145136D01*
X53862266Y-158208066D01*
X53862265Y-158208068D01*
X53847500Y-158282301D01*
X53847499Y-158282302D01*
X53340501Y-158282302D01*
X53340501Y-158282300D01*
X53325735Y-158208068D01*
X53283685Y-158145136D01*
X52801864Y-157663316D01*
X52801863Y-157663315D01*
X52738933Y-157621266D01*
X52738931Y-157621265D01*
X52664698Y-157606500D01*
X52664697Y-157606499D01*
X51983299Y-157606499D01*
X51909068Y-157621264D01*
X51909066Y-157621265D01*
X51846136Y-157663314D01*
X51846134Y-157663316D01*
X51364317Y-158145134D01*
X51364315Y-158145136D01*
X51322266Y-158208066D01*
X51322265Y-158208068D01*
X51307500Y-158282301D01*
X51307499Y-158282302D01*
X50800501Y-158282302D01*
X50800501Y-158282300D01*
X50785735Y-158208068D01*
X50743685Y-158145136D01*
X50261864Y-157663316D01*
X50261863Y-157663315D01*
X50198933Y-157621266D01*
X50198931Y-157621265D01*
X50124698Y-157606500D01*
X50124697Y-157606499D01*
X49443299Y-157606499D01*
X49369068Y-157621264D01*
X49369066Y-157621265D01*
X49306136Y-157663314D01*
X49306134Y-157663316D01*
X48824317Y-158145134D01*
X48824315Y-158145136D01*
X48782266Y-158208066D01*
X48782265Y-158208068D01*
X48767500Y-158282301D01*
X48767499Y-158282302D01*
X48260499Y-158282302D01*
X48260499Y-157835935D01*
X48260499Y-157835933D01*
X48245734Y-157761699D01*
X48245732Y-157761696D01*
X48189484Y-157677515D01*
X48105302Y-157621266D01*
X48105300Y-157621265D01*
X48031067Y-157606500D01*
X46456935Y-157606500D01*
X46456931Y-157606501D01*
X46382700Y-157621265D01*
X46382696Y-157621267D01*
X46298515Y-157677515D01*
X46242266Y-157761697D01*
X46242265Y-157761699D01*
X46227500Y-157835932D01*
X38354500Y-157835932D01*
X38354500Y-152135845D01*
X96274500Y-152135845D01*
X96274500Y-152330154D01*
X96274501Y-152330168D01*
X96304897Y-152522078D01*
X96364943Y-152706881D01*
X96364944Y-152706883D01*
X96453161Y-152880019D01*
X96567376Y-153037223D01*
X96567379Y-153037226D01*
X96567382Y-153037230D01*
X96704769Y-153174617D01*
X96704772Y-153174619D01*
X96704777Y-153174624D01*
X96861981Y-153288839D01*
X97035117Y-153377056D01*
X97219921Y-153437102D01*
X97411843Y-153467500D01*
X97411845Y-153467500D01*
X97606155Y-153467500D01*
X97606157Y-153467500D01*
X97798079Y-153437102D01*
X97982883Y-153377056D01*
X98156019Y-153288839D01*
X98313223Y-153174624D01*
X98450624Y-153037223D01*
X98564839Y-152880019D01*
X98653056Y-152706883D01*
X98713102Y-152522079D01*
X98743500Y-152330157D01*
X98743500Y-152135845D01*
X108774500Y-152135845D01*
X108774500Y-152330154D01*
X108774501Y-152330168D01*
X108804897Y-152522078D01*
X108864943Y-152706881D01*
X108864944Y-152706883D01*
X108953161Y-152880019D01*
X109067376Y-153037223D01*
X109067379Y-153037226D01*
X109067382Y-153037230D01*
X109204769Y-153174617D01*
X109204772Y-153174619D01*
X109204777Y-153174624D01*
X109361981Y-153288839D01*
X109535117Y-153377056D01*
X109719921Y-153437102D01*
X109911843Y-153467500D01*
X109911845Y-153467500D01*
X110106155Y-153467500D01*
X110106157Y-153467500D01*
X110298079Y-153437102D01*
X110482883Y-153377056D01*
X110656019Y-153288839D01*
X110813223Y-153174624D01*
X110950624Y-153037223D01*
X111064839Y-152880019D01*
X111153056Y-152706883D01*
X111213102Y-152522079D01*
X111243500Y-152330157D01*
X111243500Y-152135843D01*
X111213102Y-151943921D01*
X111153056Y-151759117D01*
X111064839Y-151585981D01*
X110950624Y-151428777D01*
X110950619Y-151428772D01*
X110950617Y-151428769D01*
X110813230Y-151291382D01*
X110813226Y-151291379D01*
X110813223Y-151291376D01*
X110656019Y-151177161D01*
X110482883Y-151088944D01*
X110482881Y-151088943D01*
X110298077Y-151028897D01*
X110298078Y-151028897D01*
X110106168Y-150998501D01*
X110106158Y-150998500D01*
X110106157Y-150998500D01*
X109911843Y-150998500D01*
X109911841Y-150998500D01*
X109911831Y-150998501D01*
X109719921Y-151028897D01*
X109535118Y-151088943D01*
X109535110Y-151088947D01*
X109367613Y-151174291D01*
X109361981Y-151177161D01*
X109204777Y-151291376D01*
X109204769Y-151291382D01*
X109067382Y-151428769D01*
X108953160Y-151585983D01*
X108864947Y-151759110D01*
X108864943Y-151759118D01*
X108804897Y-151943921D01*
X108774501Y-152135831D01*
X108774500Y-152135845D01*
X98743500Y-152135845D01*
X98743500Y-152135843D01*
X98713102Y-151943921D01*
X98653056Y-151759117D01*
X98564839Y-151585981D01*
X98450624Y-151428777D01*
X98450619Y-151428772D01*
X98450617Y-151428769D01*
X98313230Y-151291382D01*
X98313226Y-151291379D01*
X98313223Y-151291376D01*
X98156019Y-151177161D01*
X97982883Y-151088944D01*
X97982881Y-151088943D01*
X97798077Y-151028897D01*
X97798078Y-151028897D01*
X97606168Y-150998501D01*
X97606158Y-150998500D01*
X97606157Y-150998500D01*
X97411843Y-150998500D01*
X97411841Y-150998500D01*
X97411831Y-150998501D01*
X97219921Y-151028897D01*
X97035118Y-151088943D01*
X97035110Y-151088947D01*
X96867613Y-151174291D01*
X96861981Y-151177161D01*
X96704777Y-151291376D01*
X96704769Y-151291382D01*
X96567382Y-151428769D01*
X96453160Y-151585983D01*
X96364947Y-151759110D01*
X96364943Y-151759118D01*
X96304897Y-151943921D01*
X96274501Y-152135831D01*
X96274500Y-152135845D01*
X38354500Y-152135845D01*
X38354500Y-150289591D01*
X50229500Y-150289591D01*
X50229500Y-151716402D01*
X50229501Y-151716408D01*
X50245244Y-151815812D01*
X50245244Y-151815814D01*
X50306292Y-151935625D01*
X50401375Y-152030708D01*
X50521187Y-152091756D01*
X50620593Y-152107500D01*
X52047406Y-152107499D01*
X52146813Y-152091756D01*
X52266625Y-152030708D01*
X52361708Y-151935625D01*
X52422756Y-151815813D01*
X52438500Y-151716407D01*
X52438499Y-150289594D01*
X52422756Y-150190187D01*
X52361708Y-150070375D01*
X52266625Y-149975292D01*
X52146813Y-149914244D01*
X52047407Y-149898500D01*
X52047406Y-149898500D01*
X50620597Y-149898500D01*
X50620591Y-149898501D01*
X50521187Y-149914244D01*
X50521185Y-149914244D01*
X50401374Y-149975292D01*
X50306292Y-150070374D01*
X50245244Y-150190185D01*
X50245244Y-150190186D01*
X50229500Y-150289591D01*
X38354500Y-150289591D01*
X38354500Y-148366120D01*
X50103000Y-148366120D01*
X50103000Y-148559879D01*
X50103001Y-148559893D01*
X50133311Y-148751259D01*
X50193188Y-148935541D01*
X50193189Y-148935543D01*
X50281157Y-149108187D01*
X50339331Y-149188258D01*
X50869364Y-148658225D01*
X50933901Y-148770007D01*
X51026993Y-148863099D01*
X51138772Y-148927634D01*
X50608739Y-149457667D01*
X50688812Y-149515842D01*
X50861456Y-149603810D01*
X50861458Y-149603811D01*
X51045741Y-149663688D01*
X51045740Y-149663688D01*
X51237106Y-149693998D01*
X51237120Y-149694000D01*
X51430880Y-149694000D01*
X51430893Y-149693998D01*
X51622259Y-149663688D01*
X51806541Y-149603811D01*
X51806543Y-149603810D01*
X51979184Y-149515844D01*
X52059258Y-149457666D01*
X51529227Y-148927635D01*
X51641007Y-148863099D01*
X51734099Y-148770007D01*
X51798635Y-148658227D01*
X52328666Y-149188258D01*
X52386844Y-149108184D01*
X52474810Y-148935543D01*
X52474811Y-148935541D01*
X52534688Y-148751259D01*
X52564998Y-148559893D01*
X52565000Y-148559879D01*
X52565000Y-148366120D01*
X52564998Y-148366106D01*
X52534688Y-148174740D01*
X52474811Y-147990458D01*
X52474810Y-147990456D01*
X52386842Y-147817812D01*
X52328666Y-147737739D01*
X51798634Y-148267771D01*
X51734099Y-148155993D01*
X51641007Y-148062901D01*
X51529225Y-147998364D01*
X52059259Y-147468331D01*
X51979187Y-147410157D01*
X51806543Y-147322189D01*
X51806541Y-147322188D01*
X51622258Y-147262311D01*
X51622259Y-147262311D01*
X51430893Y-147232001D01*
X51430880Y-147232000D01*
X51237120Y-147232000D01*
X51237106Y-147232001D01*
X51045740Y-147262311D01*
X50861458Y-147322188D01*
X50861456Y-147322189D01*
X50688815Y-147410155D01*
X50608740Y-147468332D01*
X51138772Y-147998364D01*
X51026993Y-148062901D01*
X50933901Y-148155993D01*
X50869364Y-148267772D01*
X50339332Y-147737740D01*
X50281155Y-147817815D01*
X50193189Y-147990456D01*
X50193188Y-147990458D01*
X50133311Y-148174740D01*
X50103001Y-148366106D01*
X50103000Y-148366120D01*
X38354500Y-148366120D01*
X38354500Y-147135845D01*
X96274500Y-147135845D01*
X96274500Y-147330154D01*
X96274501Y-147330168D01*
X96304897Y-147522078D01*
X96364943Y-147706881D01*
X96364944Y-147706883D01*
X96453161Y-147880019D01*
X96567376Y-148037223D01*
X96567379Y-148037226D01*
X96567382Y-148037230D01*
X96704769Y-148174617D01*
X96704772Y-148174619D01*
X96704777Y-148174624D01*
X96861981Y-148288839D01*
X97035117Y-148377056D01*
X97219921Y-148437102D01*
X97411843Y-148467500D01*
X97411845Y-148467500D01*
X97606155Y-148467500D01*
X97606157Y-148467500D01*
X97798079Y-148437102D01*
X97982883Y-148377056D01*
X98156019Y-148288839D01*
X98313223Y-148174624D01*
X98450624Y-148037223D01*
X98564839Y-147880019D01*
X98653056Y-147706883D01*
X98713102Y-147522079D01*
X98743500Y-147330157D01*
X98743500Y-147135845D01*
X108774500Y-147135845D01*
X108774500Y-147330154D01*
X108774501Y-147330168D01*
X108804897Y-147522078D01*
X108864943Y-147706881D01*
X108864944Y-147706883D01*
X108953161Y-147880019D01*
X109067376Y-148037223D01*
X109067379Y-148037226D01*
X109067382Y-148037230D01*
X109204769Y-148174617D01*
X109204772Y-148174619D01*
X109204777Y-148174624D01*
X109361981Y-148288839D01*
X109535117Y-148377056D01*
X109719921Y-148437102D01*
X109911843Y-148467500D01*
X109911845Y-148467500D01*
X110106155Y-148467500D01*
X110106157Y-148467500D01*
X110298079Y-148437102D01*
X110482883Y-148377056D01*
X110656019Y-148288839D01*
X110813223Y-148174624D01*
X110950624Y-148037223D01*
X111064839Y-147880019D01*
X111153056Y-147706883D01*
X111213102Y-147522079D01*
X111243500Y-147330157D01*
X111243500Y-147135843D01*
X111213102Y-146943921D01*
X111153056Y-146759117D01*
X111064839Y-146585981D01*
X110950624Y-146428777D01*
X110950619Y-146428772D01*
X110950617Y-146428769D01*
X110813230Y-146291382D01*
X110813226Y-146291379D01*
X110813223Y-146291376D01*
X110656019Y-146177161D01*
X110482883Y-146088944D01*
X110482881Y-146088943D01*
X110298077Y-146028897D01*
X110298078Y-146028897D01*
X110106168Y-145998501D01*
X110106158Y-145998500D01*
X110106157Y-145998500D01*
X109911843Y-145998500D01*
X109911841Y-145998500D01*
X109911831Y-145998501D01*
X109719921Y-146028897D01*
X109535118Y-146088943D01*
X109535110Y-146088947D01*
X109367613Y-146174291D01*
X109361981Y-146177161D01*
X109204777Y-146291376D01*
X109204769Y-146291382D01*
X109067382Y-146428769D01*
X109067376Y-146428776D01*
X109067376Y-146428777D01*
X109014260Y-146501886D01*
X108953160Y-146585983D01*
X108864947Y-146759110D01*
X108864943Y-146759118D01*
X108804897Y-146943921D01*
X108774501Y-147135831D01*
X108774500Y-147135845D01*
X98743500Y-147135845D01*
X98743500Y-147135843D01*
X98713102Y-146943921D01*
X98653056Y-146759117D01*
X98564839Y-146585981D01*
X98450624Y-146428777D01*
X98450619Y-146428772D01*
X98450617Y-146428769D01*
X98313230Y-146291382D01*
X98313226Y-146291379D01*
X98313223Y-146291376D01*
X98156019Y-146177161D01*
X97982883Y-146088944D01*
X97982881Y-146088943D01*
X97798077Y-146028897D01*
X97798078Y-146028897D01*
X97606168Y-145998501D01*
X97606158Y-145998500D01*
X97606157Y-145998500D01*
X97411843Y-145998500D01*
X97411841Y-145998500D01*
X97411831Y-145998501D01*
X97219921Y-146028897D01*
X97035118Y-146088943D01*
X97035110Y-146088947D01*
X96867613Y-146174291D01*
X96861981Y-146177161D01*
X96704777Y-146291376D01*
X96704769Y-146291382D01*
X96567382Y-146428769D01*
X96567376Y-146428776D01*
X96567376Y-146428777D01*
X96514260Y-146501886D01*
X96453160Y-146585983D01*
X96364947Y-146759110D01*
X96364943Y-146759118D01*
X96304897Y-146943921D01*
X96274501Y-147135831D01*
X96274500Y-147135845D01*
X38354500Y-147135845D01*
X38354500Y-145836076D01*
X50229500Y-145836076D01*
X50229500Y-146009923D01*
X50229501Y-146009937D01*
X50256696Y-146181637D01*
X50310419Y-146346979D01*
X50310423Y-146346987D01*
X50389348Y-146501886D01*
X50491534Y-146642532D01*
X50491541Y-146642540D01*
X50614459Y-146765458D01*
X50614467Y-146765465D01*
X50755116Y-146867653D01*
X50910019Y-146946580D01*
X51075362Y-147000303D01*
X51247074Y-147027500D01*
X51247076Y-147027500D01*
X51420924Y-147027500D01*
X51420926Y-147027500D01*
X51592638Y-147000303D01*
X51757981Y-146946580D01*
X51912884Y-146867653D01*
X52053533Y-146765465D01*
X52176465Y-146642533D01*
X52278653Y-146501884D01*
X52357580Y-146346981D01*
X52411303Y-146181638D01*
X52438500Y-146009926D01*
X52438500Y-145836074D01*
X52411303Y-145664362D01*
X52357580Y-145499019D01*
X52278653Y-145344116D01*
X52176465Y-145203467D01*
X52176458Y-145203459D01*
X52053540Y-145080541D01*
X52053532Y-145080534D01*
X51912886Y-144978348D01*
X51757987Y-144899423D01*
X51757979Y-144899419D01*
X51592636Y-144845696D01*
X51592637Y-144845696D01*
X51420937Y-144818501D01*
X51420927Y-144818500D01*
X51420926Y-144818500D01*
X51247074Y-144818500D01*
X51247072Y-144818500D01*
X51247062Y-144818501D01*
X51075362Y-144845696D01*
X50910020Y-144899419D01*
X50910012Y-144899423D01*
X50755113Y-144978348D01*
X50614467Y-145080534D01*
X50614459Y-145080541D01*
X50491541Y-145203459D01*
X50491534Y-145203467D01*
X50389348Y-145344113D01*
X50310423Y-145499012D01*
X50310419Y-145499020D01*
X50256696Y-145664362D01*
X50229501Y-145836062D01*
X50229500Y-145836076D01*
X38354500Y-145836076D01*
X38354500Y-143296076D01*
X50229500Y-143296076D01*
X50229500Y-143469923D01*
X50229501Y-143469937D01*
X50256696Y-143641637D01*
X50310419Y-143806979D01*
X50310423Y-143806987D01*
X50389348Y-143961886D01*
X50491534Y-144102532D01*
X50491541Y-144102540D01*
X50614459Y-144225458D01*
X50614467Y-144225465D01*
X50755116Y-144327653D01*
X50910019Y-144406580D01*
X51075362Y-144460303D01*
X51247074Y-144487500D01*
X51247076Y-144487500D01*
X51420924Y-144487500D01*
X51420926Y-144487500D01*
X51592638Y-144460303D01*
X51757981Y-144406580D01*
X51912884Y-144327653D01*
X52053533Y-144225465D01*
X52176465Y-144102533D01*
X52278653Y-143961884D01*
X52357580Y-143806981D01*
X52411303Y-143641638D01*
X52438500Y-143469926D01*
X52438500Y-143296074D01*
X52411303Y-143124362D01*
X52357580Y-142959019D01*
X52278653Y-142804116D01*
X52176465Y-142663467D01*
X52176458Y-142663459D01*
X52053540Y-142540541D01*
X52053532Y-142540534D01*
X51912886Y-142438348D01*
X51757987Y-142359423D01*
X51757979Y-142359419D01*
X51592636Y-142305696D01*
X51592637Y-142305696D01*
X51420937Y-142278501D01*
X51420927Y-142278500D01*
X51420926Y-142278500D01*
X51247074Y-142278500D01*
X51247072Y-142278500D01*
X51247062Y-142278501D01*
X51075362Y-142305696D01*
X50910020Y-142359419D01*
X50910012Y-142359423D01*
X50755113Y-142438348D01*
X50614467Y-142540534D01*
X50614459Y-142540541D01*
X50491541Y-142663459D01*
X50491534Y-142663467D01*
X50389348Y-142804113D01*
X50310423Y-142959012D01*
X50310419Y-142959020D01*
X50256696Y-143124362D01*
X50229501Y-143296062D01*
X50229500Y-143296076D01*
X38354500Y-143296076D01*
X38354500Y-138871056D01*
X93725500Y-138871056D01*
X93725500Y-139004943D01*
X93725501Y-139004951D01*
X93760152Y-139134273D01*
X93760153Y-139134276D01*
X93827098Y-139250225D01*
X93827103Y-139250231D01*
X93921768Y-139344896D01*
X93921774Y-139344901D01*
X94037723Y-139411846D01*
X94037726Y-139411847D01*
X94167055Y-139446500D01*
X94167056Y-139446500D01*
X94300944Y-139446500D01*
X94300945Y-139446500D01*
X94430274Y-139411847D01*
X94546226Y-139344901D01*
X94640901Y-139250226D01*
X94707847Y-139134274D01*
X94742500Y-139004945D01*
X94742500Y-138871055D01*
X94707847Y-138741726D01*
X94707846Y-138741723D01*
X94640901Y-138625774D01*
X94640896Y-138625768D01*
X94546231Y-138531103D01*
X94546225Y-138531098D01*
X94430276Y-138464153D01*
X94430273Y-138464152D01*
X94300951Y-138429501D01*
X94300946Y-138429500D01*
X94300945Y-138429500D01*
X94167055Y-138429500D01*
X94167054Y-138429500D01*
X94167048Y-138429501D01*
X94037726Y-138464152D01*
X94037723Y-138464153D01*
X93921774Y-138531098D01*
X93921768Y-138531103D01*
X93827103Y-138625768D01*
X93827098Y-138625774D01*
X93760153Y-138741723D01*
X93760152Y-138741726D01*
X93725501Y-138871048D01*
X93725500Y-138871056D01*
X38354500Y-138871056D01*
X38354500Y-137853838D01*
X99364500Y-137853838D01*
X99364500Y-138572161D01*
X99397337Y-138737247D01*
X99397337Y-138737248D01*
X99461752Y-138892758D01*
X99461753Y-138892760D01*
X99555265Y-139032711D01*
X99555266Y-139032712D01*
X99674288Y-139151734D01*
X99814242Y-139245248D01*
X99969751Y-139309662D01*
X100134839Y-139342500D01*
X100303161Y-139342500D01*
X100468249Y-139309662D01*
X100623758Y-139245248D01*
X100763712Y-139151734D01*
X100882734Y-139032712D01*
X100976248Y-138892758D01*
X101040662Y-138737249D01*
X101073500Y-138572161D01*
X101073500Y-137853839D01*
X101040662Y-137688751D01*
X100978938Y-137539737D01*
X101364500Y-137539737D01*
X101364500Y-138886246D01*
X101364501Y-138886263D01*
X101370960Y-138946343D01*
X101421656Y-139082263D01*
X101421657Y-139082265D01*
X101421658Y-139082267D01*
X101508596Y-139198404D01*
X101624733Y-139285342D01*
X101760658Y-139336040D01*
X101820745Y-139342500D01*
X102617254Y-139342499D01*
X102677342Y-139336040D01*
X102813267Y-139285342D01*
X102929404Y-139198404D01*
X103016342Y-139082267D01*
X103067040Y-138946342D01*
X103073500Y-138886255D01*
X103073499Y-137539746D01*
X103067040Y-137479658D01*
X103016342Y-137343733D01*
X102929404Y-137227596D01*
X102813267Y-137140658D01*
X102813265Y-137140657D01*
X102813263Y-137140656D01*
X102677343Y-137089960D01*
X102617255Y-137083500D01*
X101820753Y-137083500D01*
X101820736Y-137083501D01*
X101760656Y-137089960D01*
X101624736Y-137140656D01*
X101624731Y-137140659D01*
X101508596Y-137227596D01*
X101421659Y-137343731D01*
X101421656Y-137343736D01*
X101370960Y-137479656D01*
X101364500Y-137539737D01*
X100978938Y-137539737D01*
X100976248Y-137533242D01*
X100882734Y-137393288D01*
X100763712Y-137274266D01*
X100763711Y-137274265D01*
X100623760Y-137180753D01*
X100623758Y-137180752D01*
X100468247Y-137116337D01*
X100303161Y-137083500D01*
X100134839Y-137083500D01*
X99969752Y-137116337D01*
X99969751Y-137116337D01*
X99814241Y-137180752D01*
X99814239Y-137180753D01*
X99674288Y-137274265D01*
X99555265Y-137393288D01*
X99461753Y-137533239D01*
X99461752Y-137533241D01*
X99397337Y-137688751D01*
X99397337Y-137688752D01*
X99364500Y-137853838D01*
X38354500Y-137853838D01*
X38354500Y-135422302D01*
X46227499Y-135422302D01*
X46227499Y-136103700D01*
X46242264Y-136177931D01*
X46242265Y-136177933D01*
X46284314Y-136240863D01*
X46284316Y-136240865D01*
X46766134Y-136722682D01*
X46766136Y-136722684D01*
X46829066Y-136764733D01*
X46829068Y-136764734D01*
X46903302Y-136779500D01*
X47584700Y-136779501D01*
X47658932Y-136764735D01*
X47721864Y-136722685D01*
X48203684Y-136240864D01*
X48245734Y-136177932D01*
X48260500Y-136103698D01*
X48260501Y-135422302D01*
X48767499Y-135422302D01*
X48767499Y-136103700D01*
X48782264Y-136177931D01*
X48782265Y-136177933D01*
X48824314Y-136240863D01*
X48824316Y-136240865D01*
X49306134Y-136722682D01*
X49306136Y-136722684D01*
X49369066Y-136764733D01*
X49369068Y-136764734D01*
X49443302Y-136779500D01*
X50124700Y-136779501D01*
X50198932Y-136764735D01*
X50261864Y-136722685D01*
X50743684Y-136240864D01*
X50785734Y-136177932D01*
X50800500Y-136103698D01*
X50800501Y-135422302D01*
X51307499Y-135422302D01*
X51307499Y-136103700D01*
X51322264Y-136177931D01*
X51322265Y-136177933D01*
X51364314Y-136240863D01*
X51364316Y-136240865D01*
X51846134Y-136722682D01*
X51846136Y-136722684D01*
X51909066Y-136764733D01*
X51909068Y-136764734D01*
X51983302Y-136779500D01*
X52664700Y-136779501D01*
X52738932Y-136764735D01*
X52801864Y-136722685D01*
X53283684Y-136240864D01*
X53325734Y-136177932D01*
X53340500Y-136103698D01*
X53340501Y-135422302D01*
X53847499Y-135422302D01*
X53847499Y-136103700D01*
X53862264Y-136177931D01*
X53862265Y-136177933D01*
X53904314Y-136240863D01*
X53904316Y-136240865D01*
X54386134Y-136722682D01*
X54386136Y-136722684D01*
X54449066Y-136764733D01*
X54449068Y-136764734D01*
X54523302Y-136779500D01*
X55204700Y-136779501D01*
X55278932Y-136764735D01*
X55341864Y-136722685D01*
X55823684Y-136240864D01*
X55865734Y-136177932D01*
X55880500Y-136103698D01*
X55880501Y-135422302D01*
X56387499Y-135422302D01*
X56387499Y-136103700D01*
X56402264Y-136177931D01*
X56402265Y-136177933D01*
X56444314Y-136240863D01*
X56444316Y-136240865D01*
X56926134Y-136722682D01*
X56926136Y-136722684D01*
X56989066Y-136764733D01*
X56989068Y-136764734D01*
X57063302Y-136779500D01*
X57744700Y-136779501D01*
X57818932Y-136764735D01*
X57881864Y-136722685D01*
X58363684Y-136240864D01*
X58405734Y-136177932D01*
X58420500Y-136103698D01*
X58420501Y-135422302D01*
X58927499Y-135422302D01*
X58927499Y-136103700D01*
X58942264Y-136177931D01*
X58942265Y-136177933D01*
X58984314Y-136240863D01*
X58984316Y-136240865D01*
X59466134Y-136722682D01*
X59466136Y-136722684D01*
X59529066Y-136764733D01*
X59529068Y-136764734D01*
X59603302Y-136779500D01*
X60284700Y-136779501D01*
X60358932Y-136764735D01*
X60421864Y-136722685D01*
X60903684Y-136240864D01*
X60945734Y-136177932D01*
X60960500Y-136103698D01*
X60960501Y-135422300D01*
X60956310Y-135401232D01*
X61341000Y-135401232D01*
X61341000Y-135572500D01*
X62080721Y-135572500D01*
X62069792Y-135591429D01*
X62039500Y-135704480D01*
X62039500Y-135821520D01*
X62069792Y-135934571D01*
X62080721Y-135953500D01*
X61341000Y-135953500D01*
X61341000Y-136124770D01*
X61345672Y-136165697D01*
X61345673Y-136165701D01*
X61394330Y-136283169D01*
X61394335Y-136283176D01*
X61419956Y-136315401D01*
X61419973Y-136315420D01*
X61931583Y-136827031D01*
X61963827Y-136852666D01*
X61963832Y-136852669D01*
X62081300Y-136901326D01*
X62122232Y-136906000D01*
X62293500Y-136906000D01*
X62293500Y-136166279D01*
X62312429Y-136177208D01*
X62425480Y-136207500D01*
X62542520Y-136207500D01*
X62655571Y-136177208D01*
X62674500Y-136166279D01*
X62674500Y-136906000D01*
X62845770Y-136906000D01*
X62886697Y-136901327D01*
X62886701Y-136901326D01*
X63004169Y-136852669D01*
X63004176Y-136852664D01*
X63036401Y-136827043D01*
X63036420Y-136827026D01*
X63548031Y-136315416D01*
X63573666Y-136283172D01*
X63573669Y-136283167D01*
X63622326Y-136165701D01*
X63622326Y-136165697D01*
X63627000Y-136124767D01*
X63627000Y-135953500D01*
X62887279Y-135953500D01*
X62898208Y-135934571D01*
X62928500Y-135821520D01*
X62928500Y-135704480D01*
X62898208Y-135591429D01*
X62887279Y-135572500D01*
X63627000Y-135572500D01*
X63627000Y-135422302D01*
X64007499Y-135422302D01*
X64007499Y-136103700D01*
X64022264Y-136177931D01*
X64022265Y-136177933D01*
X64064314Y-136240863D01*
X64064316Y-136240865D01*
X64546134Y-136722682D01*
X64546136Y-136722684D01*
X64609066Y-136764733D01*
X64609068Y-136764734D01*
X64683302Y-136779500D01*
X65364700Y-136779501D01*
X65438932Y-136764735D01*
X65501864Y-136722685D01*
X65983684Y-136240864D01*
X66025734Y-136177932D01*
X66040500Y-136103698D01*
X66040501Y-135422302D01*
X66547499Y-135422302D01*
X66547499Y-136103700D01*
X66562264Y-136177931D01*
X66562265Y-136177933D01*
X66604314Y-136240863D01*
X66604316Y-136240865D01*
X67086134Y-136722682D01*
X67086136Y-136722684D01*
X67149066Y-136764733D01*
X67149068Y-136764734D01*
X67223302Y-136779500D01*
X67904700Y-136779501D01*
X67978932Y-136764735D01*
X68041864Y-136722685D01*
X68523684Y-136240864D01*
X68565734Y-136177932D01*
X68580500Y-136103698D01*
X68580501Y-135422302D01*
X69087499Y-135422302D01*
X69087499Y-136103700D01*
X69102264Y-136177931D01*
X69102265Y-136177933D01*
X69144314Y-136240863D01*
X69144316Y-136240865D01*
X69626134Y-136722682D01*
X69626136Y-136722684D01*
X69689066Y-136764733D01*
X69689068Y-136764734D01*
X69763302Y-136779500D01*
X70444700Y-136779501D01*
X70518932Y-136764735D01*
X70581864Y-136722685D01*
X71063684Y-136240864D01*
X71105734Y-136177932D01*
X71120500Y-136103698D01*
X71120501Y-135422302D01*
X71627499Y-135422302D01*
X71627499Y-136103700D01*
X71642264Y-136177931D01*
X71642265Y-136177933D01*
X71684314Y-136240863D01*
X71684316Y-136240865D01*
X72166134Y-136722682D01*
X72166136Y-136722684D01*
X72229066Y-136764733D01*
X72229068Y-136764734D01*
X72303302Y-136779500D01*
X72984700Y-136779501D01*
X73058932Y-136764735D01*
X73121864Y-136722685D01*
X73603684Y-136240864D01*
X73645734Y-136177932D01*
X73660500Y-136103698D01*
X73660501Y-135422302D01*
X74167499Y-135422302D01*
X74167499Y-136103700D01*
X74182264Y-136177931D01*
X74182265Y-136177933D01*
X74224314Y-136240863D01*
X74224316Y-136240865D01*
X74706134Y-136722682D01*
X74706136Y-136722684D01*
X74769066Y-136764733D01*
X74769068Y-136764734D01*
X74843302Y-136779500D01*
X75524700Y-136779501D01*
X75598932Y-136764735D01*
X75661864Y-136722685D01*
X76143684Y-136240864D01*
X76185734Y-136177932D01*
X76200500Y-136103698D01*
X76200501Y-135422302D01*
X76707499Y-135422302D01*
X76707499Y-136103700D01*
X76722264Y-136177931D01*
X76722265Y-136177933D01*
X76764314Y-136240863D01*
X76764316Y-136240865D01*
X77246134Y-136722682D01*
X77246136Y-136722684D01*
X77309066Y-136764733D01*
X77309068Y-136764734D01*
X77383302Y-136779500D01*
X78064700Y-136779501D01*
X78138932Y-136764735D01*
X78201864Y-136722685D01*
X78683684Y-136240864D01*
X78725734Y-136177932D01*
X78740500Y-136103698D01*
X78740501Y-135422302D01*
X79247499Y-135422302D01*
X79247499Y-136103700D01*
X79262264Y-136177931D01*
X79262265Y-136177933D01*
X79304314Y-136240863D01*
X79304316Y-136240865D01*
X79786134Y-136722682D01*
X79786136Y-136722684D01*
X79849066Y-136764733D01*
X79849068Y-136764734D01*
X79923302Y-136779500D01*
X80604700Y-136779501D01*
X80678932Y-136764735D01*
X80741864Y-136722685D01*
X81223684Y-136240864D01*
X81265734Y-136177932D01*
X81280500Y-136103698D01*
X81280501Y-135422302D01*
X81787499Y-135422302D01*
X81787499Y-136103700D01*
X81802264Y-136177931D01*
X81802265Y-136177933D01*
X81844314Y-136240863D01*
X81844316Y-136240865D01*
X82326134Y-136722682D01*
X82326136Y-136722684D01*
X82389066Y-136764733D01*
X82389068Y-136764734D01*
X82463302Y-136779500D01*
X83144700Y-136779501D01*
X83218932Y-136764735D01*
X83281864Y-136722685D01*
X83763684Y-136240864D01*
X83805734Y-136177932D01*
X83820500Y-136103698D01*
X83820501Y-135422302D01*
X84327499Y-135422302D01*
X84327499Y-136103700D01*
X84342264Y-136177931D01*
X84342265Y-136177933D01*
X84384314Y-136240863D01*
X84384316Y-136240865D01*
X84866134Y-136722682D01*
X84866136Y-136722684D01*
X84929066Y-136764733D01*
X84929068Y-136764734D01*
X85003302Y-136779500D01*
X85684700Y-136779501D01*
X85758932Y-136764735D01*
X85821864Y-136722685D01*
X86303684Y-136240864D01*
X86345734Y-136177932D01*
X86360500Y-136103698D01*
X86360501Y-135422302D01*
X86867499Y-135422302D01*
X86867499Y-136103700D01*
X86882264Y-136177931D01*
X86882265Y-136177933D01*
X86924314Y-136240863D01*
X86924316Y-136240865D01*
X87406134Y-136722682D01*
X87406136Y-136722684D01*
X87469066Y-136764733D01*
X87469068Y-136764734D01*
X87543302Y-136779500D01*
X88224700Y-136779501D01*
X88298932Y-136764735D01*
X88361864Y-136722685D01*
X88843684Y-136240864D01*
X88885734Y-136177932D01*
X88900500Y-136103698D01*
X88900501Y-135422302D01*
X89407499Y-135422302D01*
X89407499Y-136103700D01*
X89422264Y-136177931D01*
X89422265Y-136177933D01*
X89464314Y-136240863D01*
X89464316Y-136240865D01*
X89946134Y-136722682D01*
X89946136Y-136722684D01*
X90009066Y-136764733D01*
X90009068Y-136764734D01*
X90083302Y-136779500D01*
X90764700Y-136779501D01*
X90838932Y-136764735D01*
X90901864Y-136722685D01*
X91293492Y-136331056D01*
X108330500Y-136331056D01*
X108330500Y-136464943D01*
X108330501Y-136464951D01*
X108365152Y-136594273D01*
X108365153Y-136594276D01*
X108432098Y-136710225D01*
X108432103Y-136710231D01*
X108526768Y-136804896D01*
X108526774Y-136804901D01*
X108642723Y-136871846D01*
X108642726Y-136871847D01*
X108772055Y-136906500D01*
X108772056Y-136906500D01*
X108905944Y-136906500D01*
X108905945Y-136906500D01*
X109035274Y-136871847D01*
X109151226Y-136804901D01*
X109245901Y-136710226D01*
X109312847Y-136594274D01*
X109347500Y-136464945D01*
X109347500Y-136331055D01*
X109312847Y-136201726D01*
X109312846Y-136201723D01*
X109245901Y-136085774D01*
X109245896Y-136085768D01*
X109151231Y-135991103D01*
X109151225Y-135991098D01*
X109035276Y-135924153D01*
X109035273Y-135924152D01*
X108905951Y-135889501D01*
X108905946Y-135889500D01*
X108905945Y-135889500D01*
X108772055Y-135889500D01*
X108772054Y-135889500D01*
X108772048Y-135889501D01*
X108642726Y-135924152D01*
X108642723Y-135924153D01*
X108526774Y-135991098D01*
X108526768Y-135991103D01*
X108432103Y-136085768D01*
X108432098Y-136085774D01*
X108365153Y-136201723D01*
X108365152Y-136201726D01*
X108330501Y-136331048D01*
X108330500Y-136331056D01*
X91293492Y-136331056D01*
X91383684Y-136240864D01*
X91425734Y-136177932D01*
X91440500Y-136103698D01*
X91440501Y-135422300D01*
X91425735Y-135348068D01*
X91383685Y-135285136D01*
X90901864Y-134803316D01*
X90901863Y-134803315D01*
X90838933Y-134761266D01*
X90838931Y-134761265D01*
X90764698Y-134746500D01*
X90764697Y-134746499D01*
X90083299Y-134746499D01*
X90009068Y-134761264D01*
X90009066Y-134761265D01*
X89946136Y-134803314D01*
X89946134Y-134803316D01*
X89464317Y-135285134D01*
X89464315Y-135285136D01*
X89422266Y-135348066D01*
X89422265Y-135348068D01*
X89407500Y-135422301D01*
X89407499Y-135422302D01*
X88900501Y-135422302D01*
X88900501Y-135422300D01*
X88885735Y-135348068D01*
X88843685Y-135285136D01*
X88361864Y-134803316D01*
X88361863Y-134803315D01*
X88298933Y-134761266D01*
X88298931Y-134761265D01*
X88224698Y-134746500D01*
X88224697Y-134746499D01*
X87543299Y-134746499D01*
X87469068Y-134761264D01*
X87469066Y-134761265D01*
X87406136Y-134803314D01*
X87406134Y-134803316D01*
X86924317Y-135285134D01*
X86924315Y-135285136D01*
X86882266Y-135348066D01*
X86882265Y-135348068D01*
X86867500Y-135422301D01*
X86867499Y-135422302D01*
X86360501Y-135422302D01*
X86360501Y-135422300D01*
X86345735Y-135348068D01*
X86303685Y-135285136D01*
X85821864Y-134803316D01*
X85821863Y-134803315D01*
X85758933Y-134761266D01*
X85758931Y-134761265D01*
X85684698Y-134746500D01*
X85684697Y-134746499D01*
X85003299Y-134746499D01*
X84929068Y-134761264D01*
X84929066Y-134761265D01*
X84866136Y-134803314D01*
X84866134Y-134803316D01*
X84384317Y-135285134D01*
X84384315Y-135285136D01*
X84342266Y-135348066D01*
X84342265Y-135348068D01*
X84327500Y-135422301D01*
X84327499Y-135422302D01*
X83820501Y-135422302D01*
X83820501Y-135422300D01*
X83805735Y-135348068D01*
X83763685Y-135285136D01*
X83281864Y-134803316D01*
X83281863Y-134803315D01*
X83218933Y-134761266D01*
X83218931Y-134761265D01*
X83144698Y-134746500D01*
X83144697Y-134746499D01*
X82463299Y-134746499D01*
X82389068Y-134761264D01*
X82389066Y-134761265D01*
X82326136Y-134803314D01*
X82326134Y-134803316D01*
X81844317Y-135285134D01*
X81844315Y-135285136D01*
X81802266Y-135348066D01*
X81802265Y-135348068D01*
X81787500Y-135422301D01*
X81787499Y-135422302D01*
X81280501Y-135422302D01*
X81280501Y-135422300D01*
X81265735Y-135348068D01*
X81223685Y-135285136D01*
X80741864Y-134803316D01*
X80741863Y-134803315D01*
X80678933Y-134761266D01*
X80678931Y-134761265D01*
X80604698Y-134746500D01*
X80604697Y-134746499D01*
X79923299Y-134746499D01*
X79849068Y-134761264D01*
X79849066Y-134761265D01*
X79786136Y-134803314D01*
X79786134Y-134803316D01*
X79304317Y-135285134D01*
X79304315Y-135285136D01*
X79262266Y-135348066D01*
X79262265Y-135348068D01*
X79247500Y-135422301D01*
X79247499Y-135422302D01*
X78740501Y-135422302D01*
X78740501Y-135422300D01*
X78725735Y-135348068D01*
X78683685Y-135285136D01*
X78201864Y-134803316D01*
X78201863Y-134803315D01*
X78138933Y-134761266D01*
X78138931Y-134761265D01*
X78064698Y-134746500D01*
X78064697Y-134746499D01*
X77383299Y-134746499D01*
X77309068Y-134761264D01*
X77309066Y-134761265D01*
X77246136Y-134803314D01*
X77246134Y-134803316D01*
X76764317Y-135285134D01*
X76764315Y-135285136D01*
X76722266Y-135348066D01*
X76722265Y-135348068D01*
X76707500Y-135422301D01*
X76707499Y-135422302D01*
X76200501Y-135422302D01*
X76200501Y-135422300D01*
X76185735Y-135348068D01*
X76143685Y-135285136D01*
X75661864Y-134803316D01*
X75661863Y-134803315D01*
X75598933Y-134761266D01*
X75598931Y-134761265D01*
X75524698Y-134746500D01*
X75524697Y-134746499D01*
X74843299Y-134746499D01*
X74769068Y-134761264D01*
X74769066Y-134761265D01*
X74706136Y-134803314D01*
X74706134Y-134803316D01*
X74224317Y-135285134D01*
X74224315Y-135285136D01*
X74182266Y-135348066D01*
X74182265Y-135348068D01*
X74167500Y-135422301D01*
X74167499Y-135422302D01*
X73660501Y-135422302D01*
X73660501Y-135422300D01*
X73645735Y-135348068D01*
X73603685Y-135285136D01*
X73121864Y-134803316D01*
X73121863Y-134803315D01*
X73058933Y-134761266D01*
X73058931Y-134761265D01*
X72984698Y-134746500D01*
X72984697Y-134746499D01*
X72303299Y-134746499D01*
X72229068Y-134761264D01*
X72229066Y-134761265D01*
X72166136Y-134803314D01*
X72166134Y-134803316D01*
X71684317Y-135285134D01*
X71684315Y-135285136D01*
X71642266Y-135348066D01*
X71642265Y-135348068D01*
X71627500Y-135422301D01*
X71627499Y-135422302D01*
X71120501Y-135422302D01*
X71120501Y-135422300D01*
X71105735Y-135348068D01*
X71063685Y-135285136D01*
X70581864Y-134803316D01*
X70581863Y-134803315D01*
X70518933Y-134761266D01*
X70518931Y-134761265D01*
X70444698Y-134746500D01*
X70444697Y-134746499D01*
X69763299Y-134746499D01*
X69689068Y-134761264D01*
X69689066Y-134761265D01*
X69626136Y-134803314D01*
X69626134Y-134803316D01*
X69144317Y-135285134D01*
X69144315Y-135285136D01*
X69102266Y-135348066D01*
X69102265Y-135348068D01*
X69087500Y-135422301D01*
X69087499Y-135422302D01*
X68580501Y-135422302D01*
X68580501Y-135422300D01*
X68565735Y-135348068D01*
X68523685Y-135285136D01*
X68041864Y-134803316D01*
X68041863Y-134803315D01*
X67978933Y-134761266D01*
X67978931Y-134761265D01*
X67904698Y-134746500D01*
X67904697Y-134746499D01*
X67223299Y-134746499D01*
X67149068Y-134761264D01*
X67149066Y-134761265D01*
X67086136Y-134803314D01*
X67086134Y-134803316D01*
X66604317Y-135285134D01*
X66604315Y-135285136D01*
X66562266Y-135348066D01*
X66562265Y-135348068D01*
X66547500Y-135422301D01*
X66547499Y-135422302D01*
X66040501Y-135422302D01*
X66040501Y-135422300D01*
X66025735Y-135348068D01*
X65983685Y-135285136D01*
X65501864Y-134803316D01*
X65501863Y-134803315D01*
X65438933Y-134761266D01*
X65438931Y-134761265D01*
X65364698Y-134746500D01*
X65364697Y-134746499D01*
X64683299Y-134746499D01*
X64609068Y-134761264D01*
X64609066Y-134761265D01*
X64546136Y-134803314D01*
X64546134Y-134803316D01*
X64064317Y-135285134D01*
X64064315Y-135285136D01*
X64022266Y-135348066D01*
X64022265Y-135348068D01*
X64007500Y-135422301D01*
X64007499Y-135422302D01*
X63627000Y-135422302D01*
X63627000Y-135401229D01*
X63622327Y-135360302D01*
X63622326Y-135360298D01*
X63573669Y-135242830D01*
X63573664Y-135242823D01*
X63548043Y-135210598D01*
X63548026Y-135210579D01*
X63036416Y-134698968D01*
X63004172Y-134673333D01*
X63004167Y-134673330D01*
X62886699Y-134624673D01*
X62845768Y-134620000D01*
X62674500Y-134620000D01*
X62674500Y-135359720D01*
X62655571Y-135348792D01*
X62542520Y-135318500D01*
X62425480Y-135318500D01*
X62312429Y-135348792D01*
X62293500Y-135359720D01*
X62293500Y-134620000D01*
X62122230Y-134620000D01*
X62081302Y-134624672D01*
X62081298Y-134624673D01*
X61963830Y-134673330D01*
X61963823Y-134673335D01*
X61931598Y-134698956D01*
X61931579Y-134698973D01*
X61419968Y-135210583D01*
X61394333Y-135242827D01*
X61394330Y-135242832D01*
X61345673Y-135360298D01*
X61345673Y-135360302D01*
X61341000Y-135401232D01*
X60956310Y-135401232D01*
X60945735Y-135348068D01*
X60903685Y-135285136D01*
X60421864Y-134803316D01*
X60421863Y-134803315D01*
X60358933Y-134761266D01*
X60358931Y-134761265D01*
X60284698Y-134746500D01*
X60284697Y-134746499D01*
X59603299Y-134746499D01*
X59529068Y-134761264D01*
X59529066Y-134761265D01*
X59466136Y-134803314D01*
X59466134Y-134803316D01*
X58984317Y-135285134D01*
X58984315Y-135285136D01*
X58942266Y-135348066D01*
X58942265Y-135348068D01*
X58927500Y-135422301D01*
X58927499Y-135422302D01*
X58420501Y-135422302D01*
X58420501Y-135422300D01*
X58405735Y-135348068D01*
X58363685Y-135285136D01*
X57881864Y-134803316D01*
X57881863Y-134803315D01*
X57818933Y-134761266D01*
X57818931Y-134761265D01*
X57744698Y-134746500D01*
X57744697Y-134746499D01*
X57063299Y-134746499D01*
X56989068Y-134761264D01*
X56989066Y-134761265D01*
X56926136Y-134803314D01*
X56926134Y-134803316D01*
X56444317Y-135285134D01*
X56444315Y-135285136D01*
X56402266Y-135348066D01*
X56402265Y-135348068D01*
X56387500Y-135422301D01*
X56387499Y-135422302D01*
X55880501Y-135422302D01*
X55880501Y-135422300D01*
X55865735Y-135348068D01*
X55823685Y-135285136D01*
X55341864Y-134803316D01*
X55341863Y-134803315D01*
X55278933Y-134761266D01*
X55278931Y-134761265D01*
X55204698Y-134746500D01*
X55204697Y-134746499D01*
X54523299Y-134746499D01*
X54449068Y-134761264D01*
X54449066Y-134761265D01*
X54386136Y-134803314D01*
X54386134Y-134803316D01*
X53904317Y-135285134D01*
X53904315Y-135285136D01*
X53862266Y-135348066D01*
X53862265Y-135348068D01*
X53847500Y-135422301D01*
X53847499Y-135422302D01*
X53340501Y-135422302D01*
X53340501Y-135422300D01*
X53325735Y-135348068D01*
X53283685Y-135285136D01*
X52801864Y-134803316D01*
X52801863Y-134803315D01*
X52738933Y-134761266D01*
X52738931Y-134761265D01*
X52664698Y-134746500D01*
X52664697Y-134746499D01*
X51983299Y-134746499D01*
X51909068Y-134761264D01*
X51909066Y-134761265D01*
X51846136Y-134803314D01*
X51846134Y-134803316D01*
X51364317Y-135285134D01*
X51364315Y-135285136D01*
X51322266Y-135348066D01*
X51322265Y-135348068D01*
X51307500Y-135422301D01*
X51307499Y-135422302D01*
X50800501Y-135422302D01*
X50800501Y-135422300D01*
X50785735Y-135348068D01*
X50743685Y-135285136D01*
X50261864Y-134803316D01*
X50261863Y-134803315D01*
X50198933Y-134761266D01*
X50198931Y-134761265D01*
X50124698Y-134746500D01*
X50124697Y-134746499D01*
X49443299Y-134746499D01*
X49369068Y-134761264D01*
X49369066Y-134761265D01*
X49306136Y-134803314D01*
X49306134Y-134803316D01*
X48824317Y-135285134D01*
X48824315Y-135285136D01*
X48782266Y-135348066D01*
X48782265Y-135348068D01*
X48767500Y-135422301D01*
X48767499Y-135422302D01*
X48260501Y-135422302D01*
X48260501Y-135422300D01*
X48245735Y-135348068D01*
X48203685Y-135285136D01*
X47721864Y-134803316D01*
X47721863Y-134803315D01*
X47658933Y-134761266D01*
X47658931Y-134761265D01*
X47584698Y-134746500D01*
X47584697Y-134746499D01*
X46903299Y-134746499D01*
X46829068Y-134761264D01*
X46829066Y-134761265D01*
X46766136Y-134803314D01*
X46766134Y-134803316D01*
X46284317Y-135285134D01*
X46284315Y-135285136D01*
X46242266Y-135348066D01*
X46242265Y-135348068D01*
X46227500Y-135422301D01*
X46227499Y-135422302D01*
X38354500Y-135422302D01*
X38354500Y-132435932D01*
X46227500Y-132435932D01*
X46227500Y-134010064D01*
X46227501Y-134010068D01*
X46242265Y-134084299D01*
X46242267Y-134084303D01*
X46298515Y-134168484D01*
X46382697Y-134224733D01*
X46382699Y-134224734D01*
X46456933Y-134239500D01*
X48031066Y-134239499D01*
X48105301Y-134224734D01*
X48189484Y-134168484D01*
X48245734Y-134084301D01*
X48260500Y-134010067D01*
X48260499Y-132882302D01*
X48767499Y-132882302D01*
X48767499Y-133563700D01*
X48782264Y-133637931D01*
X48782265Y-133637933D01*
X48824314Y-133700863D01*
X48824316Y-133700865D01*
X49306134Y-134182682D01*
X49306136Y-134182684D01*
X49369066Y-134224733D01*
X49369068Y-134224734D01*
X49443302Y-134239500D01*
X50124700Y-134239501D01*
X50198932Y-134224735D01*
X50261864Y-134182685D01*
X50743684Y-133700864D01*
X50785734Y-133637932D01*
X50800500Y-133563698D01*
X50800501Y-132882302D01*
X51307499Y-132882302D01*
X51307499Y-133563700D01*
X51322264Y-133637931D01*
X51322265Y-133637933D01*
X51364314Y-133700863D01*
X51364316Y-133700865D01*
X51846134Y-134182682D01*
X51846136Y-134182684D01*
X51909066Y-134224733D01*
X51909068Y-134224734D01*
X51983302Y-134239500D01*
X52664700Y-134239501D01*
X52738932Y-134224735D01*
X52801864Y-134182685D01*
X53283684Y-133700864D01*
X53325734Y-133637932D01*
X53340500Y-133563698D01*
X53340501Y-132882302D01*
X53847499Y-132882302D01*
X53847499Y-133563700D01*
X53862264Y-133637931D01*
X53862265Y-133637933D01*
X53904314Y-133700863D01*
X53904316Y-133700865D01*
X54386134Y-134182682D01*
X54386136Y-134182684D01*
X54449066Y-134224733D01*
X54449068Y-134224734D01*
X54523302Y-134239500D01*
X55204700Y-134239501D01*
X55278932Y-134224735D01*
X55341864Y-134182685D01*
X55823684Y-133700864D01*
X55865734Y-133637932D01*
X55880500Y-133563698D01*
X55880501Y-132882302D01*
X56387499Y-132882302D01*
X56387499Y-133563700D01*
X56402264Y-133637931D01*
X56402265Y-133637933D01*
X56444314Y-133700863D01*
X56444316Y-133700865D01*
X56926134Y-134182682D01*
X56926136Y-134182684D01*
X56989066Y-134224733D01*
X56989068Y-134224734D01*
X57063302Y-134239500D01*
X57744700Y-134239501D01*
X57818932Y-134224735D01*
X57881864Y-134182685D01*
X58363684Y-133700864D01*
X58405734Y-133637932D01*
X58420500Y-133563698D01*
X58420501Y-132882302D01*
X58927499Y-132882302D01*
X58927499Y-133563700D01*
X58942264Y-133637931D01*
X58942265Y-133637933D01*
X58984314Y-133700863D01*
X58984316Y-133700865D01*
X59466134Y-134182682D01*
X59466136Y-134182684D01*
X59529066Y-134224733D01*
X59529068Y-134224734D01*
X59603302Y-134239500D01*
X60284700Y-134239501D01*
X60358932Y-134224735D01*
X60421864Y-134182685D01*
X60903684Y-133700864D01*
X60945734Y-133637932D01*
X60960500Y-133563698D01*
X60960501Y-132882302D01*
X61467499Y-132882302D01*
X61467499Y-133563700D01*
X61482264Y-133637931D01*
X61482265Y-133637933D01*
X61524314Y-133700863D01*
X61524316Y-133700865D01*
X62006134Y-134182682D01*
X62006136Y-134182684D01*
X62069066Y-134224733D01*
X62069068Y-134224734D01*
X62143302Y-134239500D01*
X62824700Y-134239501D01*
X62898932Y-134224735D01*
X62961864Y-134182685D01*
X63443684Y-133700864D01*
X63485734Y-133637932D01*
X63500500Y-133563698D01*
X63500501Y-132882302D01*
X64007499Y-132882302D01*
X64007499Y-133563700D01*
X64022264Y-133637931D01*
X64022265Y-133637933D01*
X64064314Y-133700863D01*
X64064316Y-133700865D01*
X64546134Y-134182682D01*
X64546136Y-134182684D01*
X64609066Y-134224733D01*
X64609068Y-134224734D01*
X64683302Y-134239500D01*
X65364700Y-134239501D01*
X65438932Y-134224735D01*
X65501864Y-134182685D01*
X65983684Y-133700864D01*
X66025734Y-133637932D01*
X66040500Y-133563698D01*
X66040501Y-132882302D01*
X66547499Y-132882302D01*
X66547499Y-133563700D01*
X66562264Y-133637931D01*
X66562265Y-133637933D01*
X66604314Y-133700863D01*
X66604316Y-133700865D01*
X67086134Y-134182682D01*
X67086136Y-134182684D01*
X67149066Y-134224733D01*
X67149068Y-134224734D01*
X67223302Y-134239500D01*
X67904700Y-134239501D01*
X67978932Y-134224735D01*
X68041864Y-134182685D01*
X68523684Y-133700864D01*
X68565734Y-133637932D01*
X68580500Y-133563698D01*
X68580501Y-132882302D01*
X69087499Y-132882302D01*
X69087499Y-133563700D01*
X69102264Y-133637931D01*
X69102265Y-133637933D01*
X69144314Y-133700863D01*
X69144316Y-133700865D01*
X69626134Y-134182682D01*
X69626136Y-134182684D01*
X69689066Y-134224733D01*
X69689068Y-134224734D01*
X69763302Y-134239500D01*
X70444700Y-134239501D01*
X70518932Y-134224735D01*
X70581864Y-134182685D01*
X71063684Y-133700864D01*
X71105734Y-133637932D01*
X71120500Y-133563698D01*
X71120501Y-132882302D01*
X71627499Y-132882302D01*
X71627499Y-133563700D01*
X71642264Y-133637931D01*
X71642265Y-133637933D01*
X71684314Y-133700863D01*
X71684316Y-133700865D01*
X72166134Y-134182682D01*
X72166136Y-134182684D01*
X72229066Y-134224733D01*
X72229068Y-134224734D01*
X72303302Y-134239500D01*
X72984700Y-134239501D01*
X73058932Y-134224735D01*
X73121864Y-134182685D01*
X73603684Y-133700864D01*
X73645734Y-133637932D01*
X73660500Y-133563698D01*
X73660501Y-132882302D01*
X74167499Y-132882302D01*
X74167499Y-133563700D01*
X74182264Y-133637931D01*
X74182265Y-133637933D01*
X74224314Y-133700863D01*
X74224316Y-133700865D01*
X74706134Y-134182682D01*
X74706136Y-134182684D01*
X74769066Y-134224733D01*
X74769068Y-134224734D01*
X74843302Y-134239500D01*
X75524700Y-134239501D01*
X75598932Y-134224735D01*
X75661864Y-134182685D01*
X76143684Y-133700864D01*
X76185734Y-133637932D01*
X76200500Y-133563698D01*
X76200501Y-132882302D01*
X76707499Y-132882302D01*
X76707499Y-133563700D01*
X76722264Y-133637931D01*
X76722265Y-133637933D01*
X76764314Y-133700863D01*
X76764316Y-133700865D01*
X77246134Y-134182682D01*
X77246136Y-134182684D01*
X77309066Y-134224733D01*
X77309068Y-134224734D01*
X77383302Y-134239500D01*
X78064700Y-134239501D01*
X78138932Y-134224735D01*
X78201864Y-134182685D01*
X78683684Y-133700864D01*
X78725734Y-133637932D01*
X78740500Y-133563698D01*
X78740501Y-132882302D01*
X79247499Y-132882302D01*
X79247499Y-133563700D01*
X79262264Y-133637931D01*
X79262265Y-133637933D01*
X79304314Y-133700863D01*
X79304316Y-133700865D01*
X79786134Y-134182682D01*
X79786136Y-134182684D01*
X79849066Y-134224733D01*
X79849068Y-134224734D01*
X79923302Y-134239500D01*
X80604700Y-134239501D01*
X80678932Y-134224735D01*
X80741864Y-134182685D01*
X81223684Y-133700864D01*
X81265734Y-133637932D01*
X81280500Y-133563698D01*
X81280501Y-132882302D01*
X81787499Y-132882302D01*
X81787499Y-133563700D01*
X81802264Y-133637931D01*
X81802265Y-133637933D01*
X81844314Y-133700863D01*
X81844316Y-133700865D01*
X82326134Y-134182682D01*
X82326136Y-134182684D01*
X82389066Y-134224733D01*
X82389068Y-134224734D01*
X82463302Y-134239500D01*
X83144700Y-134239501D01*
X83218932Y-134224735D01*
X83281864Y-134182685D01*
X83763684Y-133700864D01*
X83805734Y-133637932D01*
X83820500Y-133563698D01*
X83820501Y-132882302D01*
X84327499Y-132882302D01*
X84327499Y-133563700D01*
X84342264Y-133637931D01*
X84342265Y-133637933D01*
X84384314Y-133700863D01*
X84384316Y-133700865D01*
X84866134Y-134182682D01*
X84866136Y-134182684D01*
X84929066Y-134224733D01*
X84929068Y-134224734D01*
X85003302Y-134239500D01*
X85684700Y-134239501D01*
X85758932Y-134224735D01*
X85821864Y-134182685D01*
X86303684Y-133700864D01*
X86345734Y-133637932D01*
X86360500Y-133563698D01*
X86360501Y-132882302D01*
X86867499Y-132882302D01*
X86867499Y-133563700D01*
X86882264Y-133637931D01*
X86882265Y-133637933D01*
X86924314Y-133700863D01*
X86924316Y-133700865D01*
X87406134Y-134182682D01*
X87406136Y-134182684D01*
X87469066Y-134224733D01*
X87469068Y-134224734D01*
X87543302Y-134239500D01*
X88224700Y-134239501D01*
X88298932Y-134224735D01*
X88361864Y-134182685D01*
X88843684Y-133700864D01*
X88885734Y-133637932D01*
X88900500Y-133563698D01*
X88900501Y-132882302D01*
X89407499Y-132882302D01*
X89407499Y-133563700D01*
X89422264Y-133637931D01*
X89422265Y-133637933D01*
X89464314Y-133700863D01*
X89464316Y-133700865D01*
X89946134Y-134182682D01*
X89946136Y-134182684D01*
X90009066Y-134224733D01*
X90009068Y-134224734D01*
X90083302Y-134239500D01*
X90764700Y-134239501D01*
X90838932Y-134224735D01*
X90901864Y-134182685D01*
X91383684Y-133700864D01*
X91425734Y-133637932D01*
X91440500Y-133563698D01*
X91440501Y-132882300D01*
X91425735Y-132808068D01*
X91383685Y-132745136D01*
X90901864Y-132263316D01*
X90901863Y-132263315D01*
X90838933Y-132221266D01*
X90838931Y-132221265D01*
X90764698Y-132206500D01*
X90764697Y-132206499D01*
X90083299Y-132206499D01*
X90009068Y-132221264D01*
X90009066Y-132221265D01*
X89946136Y-132263314D01*
X89946134Y-132263316D01*
X89464317Y-132745134D01*
X89464315Y-132745136D01*
X89422266Y-132808066D01*
X89422265Y-132808068D01*
X89407500Y-132882301D01*
X89407499Y-132882302D01*
X88900501Y-132882302D01*
X88900501Y-132882300D01*
X88885735Y-132808068D01*
X88843685Y-132745136D01*
X88361864Y-132263316D01*
X88361863Y-132263315D01*
X88298933Y-132221266D01*
X88298931Y-132221265D01*
X88224698Y-132206500D01*
X88224697Y-132206499D01*
X87543299Y-132206499D01*
X87469068Y-132221264D01*
X87469066Y-132221265D01*
X87406136Y-132263314D01*
X87406134Y-132263316D01*
X86924317Y-132745134D01*
X86924315Y-132745136D01*
X86882266Y-132808066D01*
X86882265Y-132808068D01*
X86867500Y-132882301D01*
X86867499Y-132882302D01*
X86360501Y-132882302D01*
X86360501Y-132882300D01*
X86345735Y-132808068D01*
X86303685Y-132745136D01*
X85821864Y-132263316D01*
X85821863Y-132263315D01*
X85758933Y-132221266D01*
X85758931Y-132221265D01*
X85684698Y-132206500D01*
X85684697Y-132206499D01*
X85003299Y-132206499D01*
X84929068Y-132221264D01*
X84929066Y-132221265D01*
X84866136Y-132263314D01*
X84866134Y-132263316D01*
X84384317Y-132745134D01*
X84384315Y-132745136D01*
X84342266Y-132808066D01*
X84342265Y-132808068D01*
X84327500Y-132882301D01*
X84327499Y-132882302D01*
X83820501Y-132882302D01*
X83820501Y-132882300D01*
X83805735Y-132808068D01*
X83763685Y-132745136D01*
X83281864Y-132263316D01*
X83281863Y-132263315D01*
X83218933Y-132221266D01*
X83218931Y-132221265D01*
X83144698Y-132206500D01*
X83144697Y-132206499D01*
X82463299Y-132206499D01*
X82389068Y-132221264D01*
X82389066Y-132221265D01*
X82326136Y-132263314D01*
X82326134Y-132263316D01*
X81844317Y-132745134D01*
X81844315Y-132745136D01*
X81802266Y-132808066D01*
X81802265Y-132808068D01*
X81787500Y-132882301D01*
X81787499Y-132882302D01*
X81280501Y-132882302D01*
X81280501Y-132882300D01*
X81265735Y-132808068D01*
X81223685Y-132745136D01*
X80741864Y-132263316D01*
X80741863Y-132263315D01*
X80678933Y-132221266D01*
X80678931Y-132221265D01*
X80604698Y-132206500D01*
X80604697Y-132206499D01*
X79923299Y-132206499D01*
X79849068Y-132221264D01*
X79849066Y-132221265D01*
X79786136Y-132263314D01*
X79786134Y-132263316D01*
X79304317Y-132745134D01*
X79304315Y-132745136D01*
X79262266Y-132808066D01*
X79262265Y-132808068D01*
X79247500Y-132882301D01*
X79247499Y-132882302D01*
X78740501Y-132882302D01*
X78740501Y-132882300D01*
X78725735Y-132808068D01*
X78683685Y-132745136D01*
X78201864Y-132263316D01*
X78201863Y-132263315D01*
X78138933Y-132221266D01*
X78138931Y-132221265D01*
X78064698Y-132206500D01*
X78064697Y-132206499D01*
X77383299Y-132206499D01*
X77309068Y-132221264D01*
X77309066Y-132221265D01*
X77246136Y-132263314D01*
X77246134Y-132263316D01*
X76764317Y-132745134D01*
X76764315Y-132745136D01*
X76722266Y-132808066D01*
X76722265Y-132808068D01*
X76707500Y-132882301D01*
X76707499Y-132882302D01*
X76200501Y-132882302D01*
X76200501Y-132882300D01*
X76185735Y-132808068D01*
X76143685Y-132745136D01*
X75661864Y-132263316D01*
X75661863Y-132263315D01*
X75598933Y-132221266D01*
X75598931Y-132221265D01*
X75524698Y-132206500D01*
X75524697Y-132206499D01*
X74843299Y-132206499D01*
X74769068Y-132221264D01*
X74769066Y-132221265D01*
X74706136Y-132263314D01*
X74706134Y-132263316D01*
X74224317Y-132745134D01*
X74224315Y-132745136D01*
X74182266Y-132808066D01*
X74182265Y-132808068D01*
X74167500Y-132882301D01*
X74167499Y-132882302D01*
X73660501Y-132882302D01*
X73660501Y-132882300D01*
X73645735Y-132808068D01*
X73603685Y-132745136D01*
X73121864Y-132263316D01*
X73121863Y-132263315D01*
X73058933Y-132221266D01*
X73058931Y-132221265D01*
X72984698Y-132206500D01*
X72984697Y-132206499D01*
X72303299Y-132206499D01*
X72229068Y-132221264D01*
X72229066Y-132221265D01*
X72166136Y-132263314D01*
X72166134Y-132263316D01*
X71684317Y-132745134D01*
X71684315Y-132745136D01*
X71642266Y-132808066D01*
X71642265Y-132808068D01*
X71627500Y-132882301D01*
X71627499Y-132882302D01*
X71120501Y-132882302D01*
X71120501Y-132882300D01*
X71105735Y-132808068D01*
X71063685Y-132745136D01*
X70581864Y-132263316D01*
X70581863Y-132263315D01*
X70518933Y-132221266D01*
X70518931Y-132221265D01*
X70444698Y-132206500D01*
X70444697Y-132206499D01*
X69763299Y-132206499D01*
X69689068Y-132221264D01*
X69689066Y-132221265D01*
X69626136Y-132263314D01*
X69626134Y-132263316D01*
X69144317Y-132745134D01*
X69144315Y-132745136D01*
X69102266Y-132808066D01*
X69102265Y-132808068D01*
X69087500Y-132882301D01*
X69087499Y-132882302D01*
X68580501Y-132882302D01*
X68580501Y-132882300D01*
X68565735Y-132808068D01*
X68523685Y-132745136D01*
X68041864Y-132263316D01*
X68041863Y-132263315D01*
X67978933Y-132221266D01*
X67978931Y-132221265D01*
X67904698Y-132206500D01*
X67904697Y-132206499D01*
X67223299Y-132206499D01*
X67149068Y-132221264D01*
X67149066Y-132221265D01*
X67086136Y-132263314D01*
X67086134Y-132263316D01*
X66604317Y-132745134D01*
X66604315Y-132745136D01*
X66562266Y-132808066D01*
X66562265Y-132808068D01*
X66547500Y-132882301D01*
X66547499Y-132882302D01*
X66040501Y-132882302D01*
X66040501Y-132882300D01*
X66025735Y-132808068D01*
X65983685Y-132745136D01*
X65501864Y-132263316D01*
X65501863Y-132263315D01*
X65438933Y-132221266D01*
X65438931Y-132221265D01*
X65364698Y-132206500D01*
X65364697Y-132206499D01*
X64683299Y-132206499D01*
X64609068Y-132221264D01*
X64609066Y-132221265D01*
X64546136Y-132263314D01*
X64546134Y-132263316D01*
X64064317Y-132745134D01*
X64064315Y-132745136D01*
X64022266Y-132808066D01*
X64022265Y-132808068D01*
X64007500Y-132882301D01*
X64007499Y-132882302D01*
X63500501Y-132882302D01*
X63500501Y-132882300D01*
X63485735Y-132808068D01*
X63443685Y-132745136D01*
X62961864Y-132263316D01*
X62961863Y-132263315D01*
X62898933Y-132221266D01*
X62898931Y-132221265D01*
X62824698Y-132206500D01*
X62824697Y-132206499D01*
X62143299Y-132206499D01*
X62069068Y-132221264D01*
X62069066Y-132221265D01*
X62006136Y-132263314D01*
X62006134Y-132263316D01*
X61524317Y-132745134D01*
X61524315Y-132745136D01*
X61482266Y-132808066D01*
X61482265Y-132808068D01*
X61467500Y-132882301D01*
X61467499Y-132882302D01*
X60960501Y-132882302D01*
X60960501Y-132882300D01*
X60945735Y-132808068D01*
X60903685Y-132745136D01*
X60421864Y-132263316D01*
X60421863Y-132263315D01*
X60358933Y-132221266D01*
X60358931Y-132221265D01*
X60284698Y-132206500D01*
X60284697Y-132206499D01*
X59603299Y-132206499D01*
X59529068Y-132221264D01*
X59529066Y-132221265D01*
X59466136Y-132263314D01*
X59466134Y-132263316D01*
X58984317Y-132745134D01*
X58984315Y-132745136D01*
X58942266Y-132808066D01*
X58942265Y-132808068D01*
X58927500Y-132882301D01*
X58927499Y-132882302D01*
X58420501Y-132882302D01*
X58420501Y-132882300D01*
X58405735Y-132808068D01*
X58363685Y-132745136D01*
X57881864Y-132263316D01*
X57881863Y-132263315D01*
X57818933Y-132221266D01*
X57818931Y-132221265D01*
X57744698Y-132206500D01*
X57744697Y-132206499D01*
X57063299Y-132206499D01*
X56989068Y-132221264D01*
X56989066Y-132221265D01*
X56926136Y-132263314D01*
X56926134Y-132263316D01*
X56444317Y-132745134D01*
X56444315Y-132745136D01*
X56402266Y-132808066D01*
X56402265Y-132808068D01*
X56387500Y-132882301D01*
X56387499Y-132882302D01*
X55880501Y-132882302D01*
X55880501Y-132882300D01*
X55865735Y-132808068D01*
X55823685Y-132745136D01*
X55341864Y-132263316D01*
X55341863Y-132263315D01*
X55278933Y-132221266D01*
X55278931Y-132221265D01*
X55204698Y-132206500D01*
X55204697Y-132206499D01*
X54523299Y-132206499D01*
X54449068Y-132221264D01*
X54449066Y-132221265D01*
X54386136Y-132263314D01*
X54386134Y-132263316D01*
X53904317Y-132745134D01*
X53904315Y-132745136D01*
X53862266Y-132808066D01*
X53862265Y-132808068D01*
X53847500Y-132882301D01*
X53847499Y-132882302D01*
X53340501Y-132882302D01*
X53340501Y-132882300D01*
X53325735Y-132808068D01*
X53283685Y-132745136D01*
X52801864Y-132263316D01*
X52801863Y-132263315D01*
X52738933Y-132221266D01*
X52738931Y-132221265D01*
X52664698Y-132206500D01*
X52664697Y-132206499D01*
X51983299Y-132206499D01*
X51909068Y-132221264D01*
X51909066Y-132221265D01*
X51846136Y-132263314D01*
X51846134Y-132263316D01*
X51364317Y-132745134D01*
X51364315Y-132745136D01*
X51322266Y-132808066D01*
X51322265Y-132808068D01*
X51307500Y-132882301D01*
X51307499Y-132882302D01*
X50800501Y-132882302D01*
X50800501Y-132882300D01*
X50785735Y-132808068D01*
X50743685Y-132745136D01*
X50261864Y-132263316D01*
X50261863Y-132263315D01*
X50198933Y-132221266D01*
X50198931Y-132221265D01*
X50124698Y-132206500D01*
X50124697Y-132206499D01*
X49443299Y-132206499D01*
X49369068Y-132221264D01*
X49369066Y-132221265D01*
X49306136Y-132263314D01*
X49306134Y-132263316D01*
X48824317Y-132745134D01*
X48824315Y-132745136D01*
X48782266Y-132808066D01*
X48782265Y-132808068D01*
X48767500Y-132882301D01*
X48767499Y-132882302D01*
X48260499Y-132882302D01*
X48260499Y-132435934D01*
X48245734Y-132361699D01*
X48232533Y-132341943D01*
X48189484Y-132277515D01*
X48105302Y-132221266D01*
X48105300Y-132221265D01*
X48031067Y-132206500D01*
X46456935Y-132206500D01*
X46456931Y-132206501D01*
X46382700Y-132221265D01*
X46382696Y-132221267D01*
X46298515Y-132277515D01*
X46242266Y-132361697D01*
X46242265Y-132361699D01*
X46227500Y-132435932D01*
X38354500Y-132435932D01*
X38354500Y-129818898D01*
X39433000Y-129818898D01*
X39433000Y-130097101D01*
X39464148Y-130373555D01*
X39464151Y-130373572D01*
X39526055Y-130644795D01*
X39526056Y-130644801D01*
X39617939Y-130907389D01*
X39738656Y-131158060D01*
X39886669Y-131393621D01*
X39886681Y-131393638D01*
X40060123Y-131611128D01*
X40060128Y-131611134D01*
X40060134Y-131611141D01*
X40256859Y-131807866D01*
X40256866Y-131807872D01*
X40256871Y-131807876D01*
X40474361Y-131981318D01*
X40474367Y-131981322D01*
X40474373Y-131981327D01*
X40709940Y-132129344D01*
X40960600Y-132250056D01*
X40960606Y-132250058D01*
X40960610Y-132250060D01*
X41223198Y-132341943D01*
X41494433Y-132403850D01*
X41770895Y-132435000D01*
X41770898Y-132435000D01*
X42049102Y-132435000D01*
X42049105Y-132435000D01*
X42325567Y-132403850D01*
X42437359Y-132378334D01*
X42465420Y-132371930D01*
X42510253Y-132361697D01*
X42596802Y-132341943D01*
X42859400Y-132250056D01*
X43110060Y-132129344D01*
X43345627Y-131981327D01*
X43563141Y-131807866D01*
X43759866Y-131611141D01*
X43933327Y-131393627D01*
X44081344Y-131158060D01*
X44202056Y-130907400D01*
X44293943Y-130644802D01*
X44355850Y-130373567D01*
X44387000Y-130097105D01*
X44387000Y-129818898D01*
X108013000Y-129818898D01*
X108013000Y-130097101D01*
X108044148Y-130373555D01*
X108044151Y-130373572D01*
X108106055Y-130644795D01*
X108106056Y-130644801D01*
X108197939Y-130907389D01*
X108318656Y-131158060D01*
X108466669Y-131393621D01*
X108466681Y-131393638D01*
X108640123Y-131611128D01*
X108640128Y-131611134D01*
X108640134Y-131611141D01*
X108836859Y-131807866D01*
X108836866Y-131807872D01*
X108836871Y-131807876D01*
X109054361Y-131981318D01*
X109054367Y-131981322D01*
X109054373Y-131981327D01*
X109289940Y-132129344D01*
X109540600Y-132250056D01*
X109540606Y-132250058D01*
X109540610Y-132250060D01*
X109803198Y-132341943D01*
X110074433Y-132403850D01*
X110350895Y-132435000D01*
X110350898Y-132435000D01*
X110629102Y-132435000D01*
X110629105Y-132435000D01*
X110905567Y-132403850D01*
X111176802Y-132341943D01*
X111439400Y-132250056D01*
X111690060Y-132129344D01*
X111925627Y-131981327D01*
X112143141Y-131807866D01*
X112339866Y-131611141D01*
X112513327Y-131393627D01*
X112661344Y-131158060D01*
X112782056Y-130907400D01*
X112873943Y-130644802D01*
X112935850Y-130373567D01*
X112967000Y-130097105D01*
X112967000Y-129818895D01*
X112935850Y-129542433D01*
X112873943Y-129271198D01*
X112782060Y-129008610D01*
X112782058Y-129008606D01*
X112782056Y-129008600D01*
X112661344Y-128757940D01*
X112513327Y-128522373D01*
X112513322Y-128522367D01*
X112513318Y-128522361D01*
X112339876Y-128304871D01*
X112339872Y-128304866D01*
X112339866Y-128304859D01*
X112143141Y-128108134D01*
X112143134Y-128108128D01*
X112143128Y-128108123D01*
X111925638Y-127934681D01*
X111925621Y-127934669D01*
X111690060Y-127786656D01*
X111439400Y-127665944D01*
X111439397Y-127665943D01*
X111439389Y-127665939D01*
X111176801Y-127574056D01*
X111176795Y-127574055D01*
X110905572Y-127512151D01*
X110905569Y-127512150D01*
X110905567Y-127512150D01*
X110905565Y-127512149D01*
X110905555Y-127512148D01*
X110723881Y-127491678D01*
X110629105Y-127481000D01*
X110350895Y-127481000D01*
X110265838Y-127490583D01*
X110074444Y-127512148D01*
X110074427Y-127512151D01*
X109803204Y-127574055D01*
X109803198Y-127574056D01*
X109540610Y-127665939D01*
X109289939Y-127786656D01*
X109054378Y-127934669D01*
X109054361Y-127934681D01*
X108836871Y-128108123D01*
X108836851Y-128108141D01*
X108640141Y-128304851D01*
X108640123Y-128304871D01*
X108466681Y-128522361D01*
X108466669Y-128522378D01*
X108318656Y-128757939D01*
X108197939Y-129008610D01*
X108106056Y-129271198D01*
X108106055Y-129271204D01*
X108044151Y-129542427D01*
X108044148Y-129542444D01*
X108013000Y-129818898D01*
X44387000Y-129818898D01*
X44387000Y-129818895D01*
X44355850Y-129542433D01*
X44293943Y-129271198D01*
X44202060Y-129008610D01*
X44202058Y-129008606D01*
X44202056Y-129008600D01*
X44081344Y-128757940D01*
X43933327Y-128522373D01*
X43933322Y-128522367D01*
X43933318Y-128522361D01*
X43759876Y-128304871D01*
X43759872Y-128304866D01*
X43759866Y-128304859D01*
X43563141Y-128108134D01*
X43563134Y-128108128D01*
X43563128Y-128108123D01*
X43345638Y-127934681D01*
X43345621Y-127934669D01*
X43110060Y-127786656D01*
X42859400Y-127665944D01*
X42859397Y-127665943D01*
X42859389Y-127665939D01*
X42596801Y-127574056D01*
X42596795Y-127574055D01*
X42325572Y-127512151D01*
X42325569Y-127512150D01*
X42325567Y-127512150D01*
X42325565Y-127512149D01*
X42325555Y-127512148D01*
X42143881Y-127491678D01*
X42049105Y-127481000D01*
X41770895Y-127481000D01*
X41685838Y-127490583D01*
X41494444Y-127512148D01*
X41494427Y-127512151D01*
X41223204Y-127574055D01*
X41223198Y-127574056D01*
X40960610Y-127665939D01*
X40709939Y-127786656D01*
X40474378Y-127934669D01*
X40474361Y-127934681D01*
X40256871Y-128108123D01*
X40256851Y-128108141D01*
X40060141Y-128304851D01*
X40060123Y-128304871D01*
X39886681Y-128522361D01*
X39886669Y-128522378D01*
X39738656Y-128757939D01*
X39617939Y-129008610D01*
X39526056Y-129271198D01*
X39526055Y-129271204D01*
X39464151Y-129542427D01*
X39464148Y-129542444D01*
X39433000Y-129818898D01*
X38354500Y-129818898D01*
X38354500Y-126465000D01*
X38372806Y-126420806D01*
X38417000Y-126402500D01*
X113983000Y-126402500D01*
X114027194Y-126420806D01*
G37*
%TD.AperFunction*%
%TD*%
M02*
