%TF.GenerationSoftware,KiCad,Pcbnew,10.0.0*%
%TF.CreationDate,2026-05-05T22:29:36-05:00*%
%TF.ProjectId,project_02,70726f6a-6563-4745-9f30-322e6b696361,1A*%
%TF.SameCoordinates,Original*%
%TF.FileFunction,Legend,Bot*%
%TF.FilePolarity,Positive*%
%FSLAX46Y46*%
G04 Gerber Fmt 4.6, Leading zero omitted, Abs format (unit mm)*
G04 Created by KiCad (PCBNEW 10.0.0) date 2026-05-05 22:29:36*
%MOMM*%
%LPD*%
G01*
G04 APERTURE LIST*
%ADD10C,0.152400*%
%ADD11C,0.198120*%
%ADD12C,0.254000*%
G04 APERTURE END LIST*
D10*
X42767348Y-151736571D02*
X43614015Y-151736571D01*
X43493063Y-151736571D02*
X43553539Y-151676094D01*
X43553539Y-151676094D02*
X43614015Y-151555142D01*
X43614015Y-151555142D02*
X43614015Y-151373713D01*
X43614015Y-151373713D02*
X43553539Y-151252761D01*
X43553539Y-151252761D02*
X43432586Y-151192285D01*
X43432586Y-151192285D02*
X42767348Y-151192285D01*
X43432586Y-151192285D02*
X43553539Y-151131809D01*
X43553539Y-151131809D02*
X43614015Y-151010856D01*
X43614015Y-151010856D02*
X43614015Y-150829428D01*
X43614015Y-150829428D02*
X43553539Y-150708475D01*
X43553539Y-150708475D02*
X43432586Y-150647999D01*
X43432586Y-150647999D02*
X42767348Y-150647999D01*
X42767348Y-150043238D02*
X43614015Y-150043238D01*
X44037348Y-150043238D02*
X43976872Y-150103714D01*
X43976872Y-150103714D02*
X43916396Y-150043238D01*
X43916396Y-150043238D02*
X43976872Y-149982761D01*
X43976872Y-149982761D02*
X44037348Y-150043238D01*
X44037348Y-150043238D02*
X43916396Y-150043238D01*
X42827825Y-148894190D02*
X42767348Y-149015142D01*
X42767348Y-149015142D02*
X42767348Y-149257047D01*
X42767348Y-149257047D02*
X42827825Y-149377999D01*
X42827825Y-149377999D02*
X42888301Y-149438476D01*
X42888301Y-149438476D02*
X43009253Y-149498952D01*
X43009253Y-149498952D02*
X43372110Y-149498952D01*
X43372110Y-149498952D02*
X43493063Y-149438476D01*
X43493063Y-149438476D02*
X43553539Y-149377999D01*
X43553539Y-149377999D02*
X43614015Y-149257047D01*
X43614015Y-149257047D02*
X43614015Y-149015142D01*
X43614015Y-149015142D02*
X43553539Y-148894190D01*
X42767348Y-148349905D02*
X43614015Y-148349905D01*
X43372110Y-148349905D02*
X43493063Y-148289428D01*
X43493063Y-148289428D02*
X43553539Y-148228952D01*
X43553539Y-148228952D02*
X43614015Y-148108000D01*
X43614015Y-148108000D02*
X43614015Y-147987047D01*
X42767348Y-147382286D02*
X42827825Y-147503238D01*
X42827825Y-147503238D02*
X42888301Y-147563715D01*
X42888301Y-147563715D02*
X43009253Y-147624191D01*
X43009253Y-147624191D02*
X43372110Y-147624191D01*
X43372110Y-147624191D02*
X43493063Y-147563715D01*
X43493063Y-147563715D02*
X43553539Y-147503238D01*
X43553539Y-147503238D02*
X43614015Y-147382286D01*
X43614015Y-147382286D02*
X43614015Y-147200857D01*
X43614015Y-147200857D02*
X43553539Y-147079905D01*
X43553539Y-147079905D02*
X43493063Y-147019429D01*
X43493063Y-147019429D02*
X43372110Y-146958953D01*
X43372110Y-146958953D02*
X43009253Y-146958953D01*
X43009253Y-146958953D02*
X42888301Y-147019429D01*
X42888301Y-147019429D02*
X42827825Y-147079905D01*
X42827825Y-147079905D02*
X42767348Y-147200857D01*
X42767348Y-147200857D02*
X42767348Y-147382286D01*
X44037348Y-146414667D02*
X43009253Y-146414667D01*
X43009253Y-146414667D02*
X42888301Y-146354190D01*
X42888301Y-146354190D02*
X42827825Y-146293714D01*
X42827825Y-146293714D02*
X42767348Y-146172762D01*
X42767348Y-146172762D02*
X42767348Y-145930857D01*
X42767348Y-145930857D02*
X42827825Y-145809905D01*
X42827825Y-145809905D02*
X42888301Y-145749428D01*
X42888301Y-145749428D02*
X43009253Y-145688952D01*
X43009253Y-145688952D02*
X44037348Y-145688952D01*
X42827825Y-145144667D02*
X42767348Y-144963238D01*
X42767348Y-144963238D02*
X42767348Y-144660857D01*
X42767348Y-144660857D02*
X42827825Y-144539905D01*
X42827825Y-144539905D02*
X42888301Y-144479429D01*
X42888301Y-144479429D02*
X43009253Y-144418952D01*
X43009253Y-144418952D02*
X43130205Y-144418952D01*
X43130205Y-144418952D02*
X43251158Y-144479429D01*
X43251158Y-144479429D02*
X43311634Y-144539905D01*
X43311634Y-144539905D02*
X43372110Y-144660857D01*
X43372110Y-144660857D02*
X43432586Y-144902762D01*
X43432586Y-144902762D02*
X43493063Y-145023714D01*
X43493063Y-145023714D02*
X43553539Y-145084191D01*
X43553539Y-145084191D02*
X43674491Y-145144667D01*
X43674491Y-145144667D02*
X43795444Y-145144667D01*
X43795444Y-145144667D02*
X43916396Y-145084191D01*
X43916396Y-145084191D02*
X43976872Y-145023714D01*
X43976872Y-145023714D02*
X44037348Y-144902762D01*
X44037348Y-144902762D02*
X44037348Y-144600381D01*
X44037348Y-144600381D02*
X43976872Y-144418952D01*
X43432586Y-143451333D02*
X43372110Y-143269905D01*
X43372110Y-143269905D02*
X43311634Y-143209428D01*
X43311634Y-143209428D02*
X43190682Y-143148952D01*
X43190682Y-143148952D02*
X43009253Y-143148952D01*
X43009253Y-143148952D02*
X42888301Y-143209428D01*
X42888301Y-143209428D02*
X42827825Y-143269905D01*
X42827825Y-143269905D02*
X42767348Y-143390857D01*
X42767348Y-143390857D02*
X42767348Y-143874667D01*
X42767348Y-143874667D02*
X44037348Y-143874667D01*
X44037348Y-143874667D02*
X44037348Y-143451333D01*
X44037348Y-143451333D02*
X43976872Y-143330381D01*
X43976872Y-143330381D02*
X43916396Y-143269905D01*
X43916396Y-143269905D02*
X43795444Y-143209428D01*
X43795444Y-143209428D02*
X43674491Y-143209428D01*
X43674491Y-143209428D02*
X43553539Y-143269905D01*
X43553539Y-143269905D02*
X43493063Y-143330381D01*
X43493063Y-143330381D02*
X43432586Y-143451333D01*
X43432586Y-143451333D02*
X43432586Y-143874667D01*
X44401619Y-163539651D02*
X44401619Y-164567746D01*
X44401619Y-164567746D02*
X44341142Y-164688698D01*
X44341142Y-164688698D02*
X44280666Y-164749175D01*
X44280666Y-164749175D02*
X44159714Y-164809651D01*
X44159714Y-164809651D02*
X43917809Y-164809651D01*
X43917809Y-164809651D02*
X43796857Y-164749175D01*
X43796857Y-164749175D02*
X43736380Y-164688698D01*
X43736380Y-164688698D02*
X43675904Y-164567746D01*
X43675904Y-164567746D02*
X43675904Y-163539651D01*
X42405904Y-164809651D02*
X43131619Y-164809651D01*
X42768762Y-164809651D02*
X42768762Y-163539651D01*
X42768762Y-163539651D02*
X42889714Y-163721079D01*
X42889714Y-163721079D02*
X43010666Y-163842032D01*
X43010666Y-163842032D02*
X43131619Y-163902508D01*
D11*
X48316363Y-138544761D02*
X48316363Y-137091881D01*
X48316363Y-137091881D02*
X47762885Y-137091881D01*
X47762885Y-137091881D02*
X47624515Y-137161066D01*
X47624515Y-137161066D02*
X47555330Y-137230251D01*
X47555330Y-137230251D02*
X47486146Y-137368620D01*
X47486146Y-137368620D02*
X47486146Y-137576175D01*
X47486146Y-137576175D02*
X47555330Y-137714544D01*
X47555330Y-137714544D02*
X47624515Y-137783729D01*
X47624515Y-137783729D02*
X47762885Y-137852914D01*
X47762885Y-137852914D02*
X48316363Y-137852914D01*
X46102450Y-138544761D02*
X46932667Y-138544761D01*
X46517559Y-138544761D02*
X46517559Y-137091881D01*
X46517559Y-137091881D02*
X46655928Y-137299436D01*
X46655928Y-137299436D02*
X46794298Y-137437805D01*
X46794298Y-137437805D02*
X46932667Y-137506990D01*
X48316363Y-157594761D02*
X48316363Y-156141881D01*
X48316363Y-156141881D02*
X47762885Y-156141881D01*
X47762885Y-156141881D02*
X47624515Y-156211066D01*
X47624515Y-156211066D02*
X47555330Y-156280251D01*
X47555330Y-156280251D02*
X47486146Y-156418620D01*
X47486146Y-156418620D02*
X47486146Y-156626175D01*
X47486146Y-156626175D02*
X47555330Y-156764544D01*
X47555330Y-156764544D02*
X47624515Y-156833729D01*
X47624515Y-156833729D02*
X47762885Y-156902914D01*
X47762885Y-156902914D02*
X48316363Y-156902914D01*
X46932667Y-156280251D02*
X46863483Y-156211066D01*
X46863483Y-156211066D02*
X46725113Y-156141881D01*
X46725113Y-156141881D02*
X46379189Y-156141881D01*
X46379189Y-156141881D02*
X46240820Y-156211066D01*
X46240820Y-156211066D02*
X46171635Y-156280251D01*
X46171635Y-156280251D02*
X46102450Y-156418620D01*
X46102450Y-156418620D02*
X46102450Y-156556990D01*
X46102450Y-156556990D02*
X46171635Y-156764544D01*
X46171635Y-156764544D02*
X47001852Y-157594761D01*
X47001852Y-157594761D02*
X46102450Y-157594761D01*
D12*
X76498561Y-148867199D02*
X76498561Y-147089199D01*
X76498561Y-147089199D02*
X75821228Y-147089199D01*
X75821228Y-147089199D02*
X75651895Y-147173866D01*
X75651895Y-147173866D02*
X75567228Y-147258533D01*
X75567228Y-147258533D02*
X75482561Y-147427866D01*
X75482561Y-147427866D02*
X75482561Y-147681866D01*
X75482561Y-147681866D02*
X75567228Y-147851199D01*
X75567228Y-147851199D02*
X75651895Y-147935866D01*
X75651895Y-147935866D02*
X75821228Y-148020533D01*
X75821228Y-148020533D02*
X76498561Y-148020533D01*
X74466561Y-148867199D02*
X74635895Y-148782533D01*
X74635895Y-148782533D02*
X74720561Y-148697866D01*
X74720561Y-148697866D02*
X74805228Y-148528533D01*
X74805228Y-148528533D02*
X74805228Y-148020533D01*
X74805228Y-148020533D02*
X74720561Y-147851199D01*
X74720561Y-147851199D02*
X74635895Y-147766533D01*
X74635895Y-147766533D02*
X74466561Y-147681866D01*
X74466561Y-147681866D02*
X74212561Y-147681866D01*
X74212561Y-147681866D02*
X74043228Y-147766533D01*
X74043228Y-147766533D02*
X73958561Y-147851199D01*
X73958561Y-147851199D02*
X73873895Y-148020533D01*
X73873895Y-148020533D02*
X73873895Y-148528533D01*
X73873895Y-148528533D02*
X73958561Y-148697866D01*
X73958561Y-148697866D02*
X74043228Y-148782533D01*
X74043228Y-148782533D02*
X74212561Y-148867199D01*
X74212561Y-148867199D02*
X74466561Y-148867199D01*
X72349894Y-148782533D02*
X72519228Y-148867199D01*
X72519228Y-148867199D02*
X72857894Y-148867199D01*
X72857894Y-148867199D02*
X73027228Y-148782533D01*
X73027228Y-148782533D02*
X73111894Y-148697866D01*
X73111894Y-148697866D02*
X73196561Y-148528533D01*
X73196561Y-148528533D02*
X73196561Y-148020533D01*
X73196561Y-148020533D02*
X73111894Y-147851199D01*
X73111894Y-147851199D02*
X73027228Y-147766533D01*
X73027228Y-147766533D02*
X72857894Y-147681866D01*
X72857894Y-147681866D02*
X72519228Y-147681866D01*
X72519228Y-147681866D02*
X72349894Y-147766533D01*
X71587894Y-148867199D02*
X71587894Y-147089199D01*
X71418561Y-148189866D02*
X70910561Y-148867199D01*
X70910561Y-147681866D02*
X71587894Y-148359199D01*
X69471228Y-148782533D02*
X69640561Y-148867199D01*
X69640561Y-148867199D02*
X69979228Y-148867199D01*
X69979228Y-148867199D02*
X70148561Y-148782533D01*
X70148561Y-148782533D02*
X70233228Y-148613199D01*
X70233228Y-148613199D02*
X70233228Y-147935866D01*
X70233228Y-147935866D02*
X70148561Y-147766533D01*
X70148561Y-147766533D02*
X69979228Y-147681866D01*
X69979228Y-147681866D02*
X69640561Y-147681866D01*
X69640561Y-147681866D02*
X69471228Y-147766533D01*
X69471228Y-147766533D02*
X69386561Y-147935866D01*
X69386561Y-147935866D02*
X69386561Y-148105199D01*
X69386561Y-148105199D02*
X70233228Y-148274533D01*
X68878561Y-147681866D02*
X68201228Y-147681866D01*
X68624561Y-147089199D02*
X68624561Y-148613199D01*
X68624561Y-148613199D02*
X68539895Y-148782533D01*
X68539895Y-148782533D02*
X68370561Y-148867199D01*
X68370561Y-148867199D02*
X68201228Y-148867199D01*
X67015895Y-147935866D02*
X66761895Y-148020533D01*
X66761895Y-148020533D02*
X66677228Y-148105199D01*
X66677228Y-148105199D02*
X66592561Y-148274533D01*
X66592561Y-148274533D02*
X66592561Y-148528533D01*
X66592561Y-148528533D02*
X66677228Y-148697866D01*
X66677228Y-148697866D02*
X66761895Y-148782533D01*
X66761895Y-148782533D02*
X66931228Y-148867199D01*
X66931228Y-148867199D02*
X67608561Y-148867199D01*
X67608561Y-148867199D02*
X67608561Y-147089199D01*
X67608561Y-147089199D02*
X67015895Y-147089199D01*
X67015895Y-147089199D02*
X66846561Y-147173866D01*
X66846561Y-147173866D02*
X66761895Y-147258533D01*
X66761895Y-147258533D02*
X66677228Y-147427866D01*
X66677228Y-147427866D02*
X66677228Y-147597199D01*
X66677228Y-147597199D02*
X66761895Y-147766533D01*
X66761895Y-147766533D02*
X66846561Y-147851199D01*
X66846561Y-147851199D02*
X67015895Y-147935866D01*
X67015895Y-147935866D02*
X67608561Y-147935866D01*
X65153228Y-148782533D02*
X65322561Y-148867199D01*
X65322561Y-148867199D02*
X65661228Y-148867199D01*
X65661228Y-148867199D02*
X65830561Y-148782533D01*
X65830561Y-148782533D02*
X65915228Y-148613199D01*
X65915228Y-148613199D02*
X65915228Y-147935866D01*
X65915228Y-147935866D02*
X65830561Y-147766533D01*
X65830561Y-147766533D02*
X65661228Y-147681866D01*
X65661228Y-147681866D02*
X65322561Y-147681866D01*
X65322561Y-147681866D02*
X65153228Y-147766533D01*
X65153228Y-147766533D02*
X65068561Y-147935866D01*
X65068561Y-147935866D02*
X65068561Y-148105199D01*
X65068561Y-148105199D02*
X65915228Y-148274533D01*
X63544561Y-148867199D02*
X63544561Y-147935866D01*
X63544561Y-147935866D02*
X63629228Y-147766533D01*
X63629228Y-147766533D02*
X63798561Y-147681866D01*
X63798561Y-147681866D02*
X64137228Y-147681866D01*
X64137228Y-147681866D02*
X64306561Y-147766533D01*
X63544561Y-148782533D02*
X63713895Y-148867199D01*
X63713895Y-148867199D02*
X64137228Y-148867199D01*
X64137228Y-148867199D02*
X64306561Y-148782533D01*
X64306561Y-148782533D02*
X64391228Y-148613199D01*
X64391228Y-148613199D02*
X64391228Y-148443866D01*
X64391228Y-148443866D02*
X64306561Y-148274533D01*
X64306561Y-148274533D02*
X64137228Y-148189866D01*
X64137228Y-148189866D02*
X63713895Y-148189866D01*
X63713895Y-148189866D02*
X63544561Y-148105199D01*
X61935894Y-147681866D02*
X61935894Y-149121199D01*
X61935894Y-149121199D02*
X62020561Y-149290533D01*
X62020561Y-149290533D02*
X62105228Y-149375199D01*
X62105228Y-149375199D02*
X62274561Y-149459866D01*
X62274561Y-149459866D02*
X62528561Y-149459866D01*
X62528561Y-149459866D02*
X62697894Y-149375199D01*
X61935894Y-148782533D02*
X62105228Y-148867199D01*
X62105228Y-148867199D02*
X62443894Y-148867199D01*
X62443894Y-148867199D02*
X62613228Y-148782533D01*
X62613228Y-148782533D02*
X62697894Y-148697866D01*
X62697894Y-148697866D02*
X62782561Y-148528533D01*
X62782561Y-148528533D02*
X62782561Y-148020533D01*
X62782561Y-148020533D02*
X62697894Y-147851199D01*
X62697894Y-147851199D02*
X62613228Y-147766533D01*
X62613228Y-147766533D02*
X62443894Y-147681866D01*
X62443894Y-147681866D02*
X62105228Y-147681866D01*
X62105228Y-147681866D02*
X61935894Y-147766533D01*
X60835227Y-148867199D02*
X61004561Y-148782533D01*
X61004561Y-148782533D02*
X61089227Y-148613199D01*
X61089227Y-148613199D02*
X61089227Y-147089199D01*
X59480561Y-148782533D02*
X59649894Y-148867199D01*
X59649894Y-148867199D02*
X59988561Y-148867199D01*
X59988561Y-148867199D02*
X60157894Y-148782533D01*
X60157894Y-148782533D02*
X60242561Y-148613199D01*
X60242561Y-148613199D02*
X60242561Y-147935866D01*
X60242561Y-147935866D02*
X60157894Y-147766533D01*
X60157894Y-147766533D02*
X59988561Y-147681866D01*
X59988561Y-147681866D02*
X59649894Y-147681866D01*
X59649894Y-147681866D02*
X59480561Y-147766533D01*
X59480561Y-147766533D02*
X59395894Y-147935866D01*
X59395894Y-147935866D02*
X59395894Y-148105199D01*
X59395894Y-148105199D02*
X60242561Y-148274533D01*
D10*
X92297348Y-151071333D02*
X93144015Y-151071333D01*
X93023063Y-151071333D02*
X93083539Y-151010856D01*
X93083539Y-151010856D02*
X93144015Y-150889904D01*
X93144015Y-150889904D02*
X93144015Y-150708475D01*
X93144015Y-150708475D02*
X93083539Y-150587523D01*
X93083539Y-150587523D02*
X92962586Y-150527047D01*
X92962586Y-150527047D02*
X92297348Y-150527047D01*
X92962586Y-150527047D02*
X93083539Y-150466571D01*
X93083539Y-150466571D02*
X93144015Y-150345618D01*
X93144015Y-150345618D02*
X93144015Y-150164190D01*
X93144015Y-150164190D02*
X93083539Y-150043237D01*
X93083539Y-150043237D02*
X92962586Y-149982761D01*
X92962586Y-149982761D02*
X92297348Y-149982761D01*
X92297348Y-149378000D02*
X93144015Y-149378000D01*
X93567348Y-149378000D02*
X93506872Y-149438476D01*
X93506872Y-149438476D02*
X93446396Y-149378000D01*
X93446396Y-149378000D02*
X93506872Y-149317523D01*
X93506872Y-149317523D02*
X93567348Y-149378000D01*
X93567348Y-149378000D02*
X93446396Y-149378000D01*
X92357825Y-148228952D02*
X92297348Y-148349904D01*
X92297348Y-148349904D02*
X92297348Y-148591809D01*
X92297348Y-148591809D02*
X92357825Y-148712761D01*
X92357825Y-148712761D02*
X92418301Y-148773238D01*
X92418301Y-148773238D02*
X92539253Y-148833714D01*
X92539253Y-148833714D02*
X92902110Y-148833714D01*
X92902110Y-148833714D02*
X93023063Y-148773238D01*
X93023063Y-148773238D02*
X93083539Y-148712761D01*
X93083539Y-148712761D02*
X93144015Y-148591809D01*
X93144015Y-148591809D02*
X93144015Y-148349904D01*
X93144015Y-148349904D02*
X93083539Y-148228952D01*
X92297348Y-147684667D02*
X93144015Y-147684667D01*
X92902110Y-147684667D02*
X93023063Y-147624190D01*
X93023063Y-147624190D02*
X93083539Y-147563714D01*
X93083539Y-147563714D02*
X93144015Y-147442762D01*
X93144015Y-147442762D02*
X93144015Y-147321809D01*
X92297348Y-146717048D02*
X92357825Y-146838000D01*
X92357825Y-146838000D02*
X92418301Y-146898477D01*
X92418301Y-146898477D02*
X92539253Y-146958953D01*
X92539253Y-146958953D02*
X92902110Y-146958953D01*
X92902110Y-146958953D02*
X93023063Y-146898477D01*
X93023063Y-146898477D02*
X93083539Y-146838000D01*
X93083539Y-146838000D02*
X93144015Y-146717048D01*
X93144015Y-146717048D02*
X93144015Y-146535619D01*
X93144015Y-146535619D02*
X93083539Y-146414667D01*
X93083539Y-146414667D02*
X93023063Y-146354191D01*
X93023063Y-146354191D02*
X92902110Y-146293715D01*
X92902110Y-146293715D02*
X92539253Y-146293715D01*
X92539253Y-146293715D02*
X92418301Y-146354191D01*
X92418301Y-146354191D02*
X92357825Y-146414667D01*
X92357825Y-146414667D02*
X92297348Y-146535619D01*
X92297348Y-146535619D02*
X92297348Y-146717048D01*
X92357825Y-145809905D02*
X92297348Y-145628476D01*
X92297348Y-145628476D02*
X92297348Y-145326095D01*
X92297348Y-145326095D02*
X92357825Y-145205143D01*
X92357825Y-145205143D02*
X92418301Y-145144667D01*
X92418301Y-145144667D02*
X92539253Y-145084190D01*
X92539253Y-145084190D02*
X92660205Y-145084190D01*
X92660205Y-145084190D02*
X92781158Y-145144667D01*
X92781158Y-145144667D02*
X92841634Y-145205143D01*
X92841634Y-145205143D02*
X92902110Y-145326095D01*
X92902110Y-145326095D02*
X92962586Y-145568000D01*
X92962586Y-145568000D02*
X93023063Y-145688952D01*
X93023063Y-145688952D02*
X93083539Y-145749429D01*
X93083539Y-145749429D02*
X93204491Y-145809905D01*
X93204491Y-145809905D02*
X93325444Y-145809905D01*
X93325444Y-145809905D02*
X93446396Y-145749429D01*
X93446396Y-145749429D02*
X93506872Y-145688952D01*
X93506872Y-145688952D02*
X93567348Y-145568000D01*
X93567348Y-145568000D02*
X93567348Y-145265619D01*
X93567348Y-145265619D02*
X93506872Y-145084190D01*
X92297348Y-144539905D02*
X93567348Y-144539905D01*
X93567348Y-144539905D02*
X93567348Y-144237524D01*
X93567348Y-144237524D02*
X93506872Y-144056095D01*
X93506872Y-144056095D02*
X93385920Y-143935143D01*
X93385920Y-143935143D02*
X93264967Y-143874666D01*
X93264967Y-143874666D02*
X93023063Y-143814190D01*
X93023063Y-143814190D02*
X92841634Y-143814190D01*
X92841634Y-143814190D02*
X92599729Y-143874666D01*
X92599729Y-143874666D02*
X92478777Y-143935143D01*
X92478777Y-143935143D02*
X92357825Y-144056095D01*
X92357825Y-144056095D02*
X92297348Y-144237524D01*
X92297348Y-144237524D02*
X92297348Y-144539905D01*
%TO.C,U1*%
D12*
X41207000Y-154566000D02*
X41207000Y-139566000D01*
X51207000Y-129566000D02*
X86207000Y-129566000D01*
X86207000Y-164566000D02*
X51207000Y-164566000D01*
X96207000Y-139566000D02*
X96207000Y-154566000D01*
X41207000Y-139566000D02*
G75*
G02*
X51207000Y-129566000I10000000J0D01*
G01*
X51207000Y-164566000D02*
G75*
G02*
X41207000Y-154566000I0J10000000D01*
G01*
X86207000Y-129566000D02*
G75*
G02*
X96207000Y-139566000I0J-10000000D01*
G01*
X96207000Y-154566000D02*
G75*
G02*
X86207000Y-164566000I-10000000J0D01*
G01*
%TD*%
M02*
